<svg width="53" height="50" viewBox="0 0 53 50" fill="none" xmlns="http://www.w3.org/2000/svg">
  <path
    d="M50.5238 34.8975C50.5399 34.8654 50.5527 34.8334 50.5623 34.8014C53.6467 27.6777 53.0958 18.9462 49.0889 12.2742C51.2285 9.7149 48.4483 6.05379 45.4087 7.46955C44.8738 6.92502 44.3133 6.39972 43.7336 5.90645C44.8738 2.80587 41.0687 0.262628 38.6953 2.57845C31.8057 -0.900088 23.2346 -0.858449 16.3803 2.69696C13.9428 0.112083 9.84946 2.88274 11.3228 6.12425C10.4772 6.86417 9.6765 7.66173 8.93982 8.50734C8.30243 9.23764 9.45549 10.237 10.0897 9.51311C10.7751 8.72835 11.5182 7.98524 12.3061 7.29658C13.8243 8.39203 16.028 7.8347 16.8607 6.16269C19.6121 6.95385 22.2353 8.09094 24.6824 9.54834C24.4774 10.2883 24.5607 11.1114 24.913 11.7937C22.8983 13.533 21.0854 15.5029 19.5096 17.6585C18.0554 17.2197 16.454 17.9532 15.8198 19.3305C12.6136 19.3465 9.39784 19.6925 6.23972 20.3587C5.96106 19.8398 5.53827 19.4074 5.0258 19.1191C5.61835 16.8065 6.56002 14.6028 7.82519 12.5688C8.32805 11.7585 7.05648 10.9161 6.52799 11.7617C5.18274 13.9269 4.18342 16.2652 3.54923 18.7252C-0.108545 18.786 -0.720311 23.8469 2.76131 24.8206C2.71006 32.0211 5.82334 39.0198 11.2203 43.7892C10.0929 46.8321 13.7507 49.3401 16.1625 47.1941C23.2026 50.9385 32.1004 50.9385 39.1405 47.1941C41.594 49.622 45.524 46.909 44.1403 43.738C46.9237 41.2652 49.0825 38.2415 50.5174 34.8975H50.5238ZM49.5598 33.1902C47.4458 31.0922 45.1333 29.1864 42.667 27.5144C43.0161 26.4157 42.7118 25.1793 41.8951 24.369C43.9706 20.9161 45.6009 17.2165 46.7476 13.3504C47.1287 13.3504 47.497 13.2799 47.8366 13.155C51.3502 19.0903 51.994 26.7457 49.563 33.1902H49.5598ZM14.4393 41.8193C13.7955 35.5285 14.9229 29.2505 17.7127 23.5778C19.4455 24.1191 21.3193 22.9788 21.6556 21.2011C26.918 21.8514 31.9883 23.3952 36.7447 25.8007C36.5173 26.6912 36.7063 27.6713 37.2508 28.4112C31.889 35.205 24.8105 40.3171 16.7102 43.2447C16.2201 42.4663 15.3938 41.925 14.4393 41.8193ZM38.1732 26.5727C38.1732 25.7079 38.8715 25.0032 39.7299 25.0032C41.7958 25.0897 41.7958 28.0557 39.7299 28.139C38.8715 28.139 38.1732 27.4343 38.1732 26.5695V26.5727ZM48.3106 10.2562C48.3106 11.1211 47.6124 11.8257 46.754 11.8257C44.688 11.7392 44.688 8.7732 46.754 8.68992C47.6124 8.68992 48.3106 9.39459 48.3106 10.2594V10.2562ZM44.2428 8.4625C43.1891 9.94552 43.6759 12.0884 45.2678 12.9692C44.1564 16.6976 42.5805 20.269 40.5755 23.597C40.1559 23.4753 39.6914 23.4465 39.259 23.5138C37.1643 19.0391 34.1151 15.0096 30.3932 11.7937C30.7456 11.1114 30.8288 10.2883 30.6239 9.54834C32.9812 8.14539 35.5052 7.03713 38.1444 6.24917C39.022 7.9436 41.3762 8.42086 42.8367 7.15244C43.3204 7.56884 43.7912 8.00766 44.2396 8.4625H44.2428ZM26.1013 10.3747C26.1013 9.5099 26.7995 8.80523 27.6579 8.80523C29.7238 8.89171 29.7238 11.8578 27.6579 11.941C26.7995 11.941 26.1013 11.2364 26.1013 10.3715V10.3747ZM40.8637 3.21266C41.7221 3.21266 42.4204 3.91734 42.4204 4.78217C42.3339 6.86417 39.3904 6.86417 39.3071 4.78217C39.3071 3.91734 40.0053 3.21266 40.8637 3.21266ZM14.103 6.34847C13.2446 6.34847 12.5463 5.64379 12.5463 4.77896C12.6328 2.69696 15.5763 2.70017 15.6596 4.77896C15.6596 5.64379 14.9614 6.34847 14.103 6.34847ZM17.1842 4.66365C17.1778 4.45225 17.1458 4.24405 17.0978 4.04546C23.4877 0.739886 31.4694 0.68223 37.9074 3.89171C37.8241 4.16718 37.7793 4.46186 37.7793 4.76295C35.0023 5.58294 32.347 6.74565 29.868 8.21907C28.6765 6.98588 26.6362 6.98588 25.4447 8.21907C22.8599 6.68159 20.0893 5.48684 17.1842 4.66045V4.66365ZM25.9283 12.934C26.9597 13.6387 28.3562 13.6387 29.3875 12.934C32.9428 16.0025 35.8543 19.8462 37.8593 24.1127C37.7248 24.2184 37.5967 24.3337 37.4782 24.4587C32.4624 21.9154 27.1102 20.2979 21.5531 19.6476C21.4025 19.1928 21.1495 18.786 20.8228 18.4529C22.3154 16.4253 24.0258 14.574 25.9251 12.9372L25.9283 12.934ZM18.6256 19.0519C19.484 19.0519 20.1822 19.7565 20.1822 20.6214C20.0957 22.7034 17.1522 22.7034 17.0689 20.6214C17.0689 19.7565 17.7672 19.0519 18.6256 19.0519ZM1.97018 21.8225C1.97018 20.9577 2.66842 20.253 3.52681 20.253C5.59272 20.3395 5.59272 23.3055 3.52681 23.3888C2.66842 23.3888 1.97018 22.6842 1.97018 21.8193V21.8225ZM4.29232 24.8206C4.29232 24.8206 6.61126 24.3145 6.61126 21.8417C6.61126 21.8417 12.5592 20.8904 15.5539 20.8584C15.6116 21.5983 15.9255 22.2646 16.4091 22.7674C13.4336 28.7508 12.2357 35.3875 12.9243 42.0339C12.6264 42.1588 12.3542 42.3286 12.1107 42.5336C7.13014 38.0717 4.28912 30.5989 4.28912 24.8206H4.29232ZM14.103 46.4638C13.2446 46.4638 12.5463 45.7591 12.5463 44.8943C12.5463 44.0294 13.2446 43.3248 14.103 43.3248C14.9614 43.3248 15.6596 44.0583 15.6596 44.8943C15.6596 45.7303 14.9614 46.4638 14.103 46.4638ZM27.6579 48.4849C23.9521 48.4849 20.2911 47.5977 17.0145 45.9128C17.1458 45.5317 17.2067 45.0993 17.181 44.6925C25.56 41.672 32.8819 36.3933 38.4295 29.3754C38.8843 29.59 39.3904 29.6861 39.8932 29.6604C40.2327 30.9193 40.5018 32.2037 40.6908 33.4881C40.8349 34.4715 42.3467 34.2505 42.1994 33.2639C41.9976 31.8994 41.7125 30.5381 41.3506 29.2024C41.5331 29.0903 41.7029 28.9558 41.8566 28.8084C44.403 30.5381 46.7796 32.524 48.9288 34.7213C47.5931 37.6713 45.6521 40.3427 43.1859 42.5496C42.9424 42.367 42.6702 42.2197 42.3787 42.114C42.5293 40.695 42.5933 39.2633 42.5709 37.8443C42.5549 36.8482 41.0303 36.8706 41.0431 37.8667C41.0655 39.228 41.0014 40.6054 40.8573 41.9699C39.0572 42.2549 37.8786 44.1223 38.375 45.8712C35.0792 47.5817 31.3894 48.4849 27.6547 48.4849H27.6579ZM41.3442 46.5951C40.4858 46.5951 39.7875 45.8904 39.7875 45.0256C39.874 42.9436 42.8175 42.9468 42.9008 45.0256C42.9008 45.8904 42.2026 46.5951 41.3442 46.5951Z"
    fill="#17498A" />
</svg>