<svg width="51" height="50" viewBox="0 0 51 50" fill="none" xmlns="http://www.w3.org/2000/svg">
  <path
    d="M50.4944 14.1742C50.4944 10.9046 48.1302 8.1189 44.9046 7.59108C41.679 7.06326 38.5488 8.95461 37.5115 12.0556C36.4741 15.1565 37.8377 18.5507 40.7297 20.0718C40.3595 20.3028 40.0186 20.574 39.7107 20.8819C38.809 21.7726 38.2299 22.9345 38.0613 24.1918C37.5884 23.6566 36.9103 23.3451 36.1992 23.3414H33.8314V17.5097C33.8277 14.9146 32.1086 12.6347 29.6161 11.9126C31.852 10.1569 32.7281 7.17689 31.7971 4.4938C30.8697 1.80705 28.3406 0.00732422 25.4962 0.00732422C22.6518 0.00732422 20.1264 1.81071 19.1954 4.4938C18.268 7.18055 19.144 10.1569 21.3763 11.9126C18.8838 12.6347 17.1647 14.9146 17.161 17.5097V23.3414H14.7932C14.0784 23.3451 13.404 23.6566 12.9311 24.1918C12.6929 22.491 11.7179 20.9845 10.2664 20.0718C12.9825 18.646 14.3717 15.5524 13.6386 12.5761C12.9055 9.59973 10.2334 7.50677 7.16544 7.50677C4.09748 7.50677 1.44005 9.59606 0.703304 12.5724C-0.0297803 15.5487 1.36308 18.6423 4.07549 20.0682C2.37474 21.1311 1.34109 22.9968 1.33742 25.0018V36.6652C1.33742 38.245 2.08517 39.7295 3.35707 40.6642L0.846255 45.0187C0.622665 45.4036 0.505371 45.8397 0.505371 46.2833V47.5002C0.505371 48.882 1.62332 50 3.00519 50H47.9946C49.3764 50 50.4944 48.882 50.4944 47.5002V46.2833C50.4944 45.8434 50.3807 45.4109 50.1608 45.0334L47.639 40.6678C48.9109 39.7332 49.6623 38.2487 49.6587 36.6689V25.0055C49.6587 23.0005 48.6213 21.1348 46.9243 20.0718C49.1162 18.9209 50.4907 16.652 50.4944 14.1742ZM20.5002 6.67472C20.5002 3.91466 22.7398 1.67509 25.4999 1.67509C28.2599 1.67509 30.4995 3.91466 30.4995 6.67472C30.4995 9.43478 28.2599 11.6744 25.4999 11.6744C22.7398 11.6744 20.5039 9.43478 20.5002 6.67472ZM18.8361 17.506C18.8361 15.2078 20.7018 13.3421 23.0001 13.3421H27.9997C30.2979 13.3421 32.1636 15.2078 32.1636 17.506V23.3377H30.4958V17.506C30.4958 17.0442 30.122 16.674 29.6638 16.674C29.2056 16.674 28.8317 17.0479 28.8317 17.506V23.3377H22.168V17.506C22.168 17.0442 21.7941 16.674 21.336 16.674C20.8778 16.674 20.5039 17.0479 20.5039 17.506V23.3377H18.8361V17.506ZM14.0711 25.4197C14.2214 25.1594 14.4999 25.0018 14.8005 25.0018H36.1956C36.4961 25.0018 36.7747 25.1594 36.925 25.4197L38.7504 28.5866L38.4168 29.1694H33.9817C32.4568 29.1511 31.1593 30.2764 30.9613 31.7865C30.877 32.6076 31.1446 33.425 31.6981 34.0371C32.2516 34.6492 33.036 34.9974 33.8644 34.9974H39.7144C40.5428 34.9974 41.3418 34.7079 41.9833 34.1874L48.2181 44.9967H2.78526L9.02014 34.1874C9.66159 34.7079 10.4607 34.9974 11.289 34.9974H17.139C17.9638 34.9974 18.7518 34.6492 19.3053 34.0371C19.8588 33.425 20.1264 32.6076 20.0421 31.7865C19.8441 30.2727 18.5466 29.1474 17.0218 29.1694H12.5866L12.253 28.5866L14.0784 25.4197H14.0711ZM2.17314 14.1742C2.17314 11.4141 4.41271 9.17454 7.17277 9.17454C9.93283 9.17454 12.1724 11.4141 12.1724 14.1742C12.1724 16.9342 9.93283 19.1738 7.17277 19.1738C4.41271 19.1738 2.1768 16.9342 2.17314 14.1742ZM3.00519 36.6689V25.0055C3.00519 22.7073 4.87089 20.8416 7.16911 20.8416C9.46732 20.8452 11.3294 22.7073 11.333 25.0055V26.8382L11.289 26.9188L10.0868 24.8112C9.85219 24.4227 9.3537 24.2944 8.9615 24.518C8.5693 24.7416 8.42634 25.2401 8.6426 25.6359L11.1351 29.9978C11.432 30.5183 11.9855 30.8372 12.5829 30.8372H17.0181C17.6889 30.8115 18.2753 31.2917 18.3816 31.9551C18.4183 32.3107 18.3047 32.6626 18.0664 32.9265C17.8318 33.1904 17.4946 33.3407 17.139 33.337H11.289C10.5926 33.337 9.95116 32.9631 9.60661 32.362L6.53132 26.9812C6.29674 26.5926 5.79824 26.4643 5.40604 26.6879C5.01384 26.9115 4.87089 27.41 5.08715 27.8059L7.92052 32.7689L4.20378 39.2163C3.44504 38.5895 3.00885 37.6549 3.00885 36.6725L3.00519 36.6689ZM47.9946 48.3322H3.00519C2.54334 48.3322 2.17314 47.9584 2.17314 47.5002V46.6681H48.8303V47.5002C48.8303 47.962 48.4564 48.3322 47.9982 48.3322H47.9946ZM47.9946 25.0055V36.6689C47.9946 37.6512 47.5584 38.5859 46.7996 39.2127L43.0792 32.7652L45.9126 27.8022C46.1289 27.4027 45.9859 26.9078 45.5937 26.6843C45.2015 26.4607 44.6993 26.589 44.4684 26.9775L41.3931 32.3583C41.0486 32.9595 40.4071 33.3297 39.7144 33.3333H33.8644C33.5125 33.3333 33.1716 33.1867 32.937 32.9228C32.6988 32.6589 32.5815 32.307 32.6218 31.9515C32.7281 31.288 33.3109 30.8079 33.9853 30.8335H38.4205C39.0179 30.8335 39.5714 30.5146 39.8683 29.9941L42.3608 25.6323C42.5771 25.2327 42.4341 24.7379 42.0419 24.5143C41.6497 24.2907 41.1476 24.419 40.9166 24.8076L39.7144 26.9115L39.6704 26.8382V25.0055C39.6741 22.7073 41.5361 20.8452 43.8343 20.8416C46.1325 20.8416 47.9982 22.7073 47.9982 25.0055H47.9946ZM43.827 19.1738C41.0669 19.1738 38.8273 16.9342 38.8273 14.1742C38.8273 11.4141 41.0669 9.17454 43.827 9.17454C46.587 9.17454 48.8266 11.4141 48.8266 14.1742C48.8266 16.9342 46.587 19.1701 43.827 19.1738Z"
    fill="#17498A" />
</svg>