<svg
  width="50"
  height="50"
  viewBox="0 0 50 50"
  fill="none"
  xmlns="http://www.w3.org/2000/svg"
>
  <g clip-path="url(#clip0_4569_10256)">
    <path
      d="M23.346 25.7411C23.1685 25.7411 22.9969 25.6849 22.8549 25.5814C22.639 25.4246 22.5117 25.1731 22.5147 24.9068V0.834304C22.5117 0.372793 22.8845 3.34948e-05 23.346 3.34948e-05C34.3986 -0.0502594 44.33 6.73632 48.2972 17.0493C48.3889 17.2623 48.3889 17.5049 48.2972 17.715C48.1966 17.9221 48.0162 18.0788 47.7972 18.1469L23.63 25.7056C23.5383 25.7322 23.4436 25.7441 23.346 25.7382V25.7411ZM24.1773 1.66562V23.7738L46.4038 16.8334C42.5993 7.86643 33.9164 1.94075 24.1773 1.66562Z"
      fill="#17498A"
    />
    <path
      d="M23.6036 50C20.4648 49.9881 17.3555 49.3846 14.4355 48.2249C8.45956 45.876 2.34453 39.1663 0.776578 33.1844C-0.924505 26.7972 0.187856 19.9899 3.82669 14.4754C7.44778 8.83969 13.2729 4.9908 19.876 3.87548C20.1186 3.83702 20.3642 3.90803 20.5506 4.06778C20.7369 4.22753 20.8434 4.45829 20.8434 4.70088V27.5841L32.9699 46.9942C33.2125 47.3848 33.0942 47.8995 32.7037 48.1421C32.6652 48.1658 32.6268 48.1865 32.5883 48.2013C29.7423 49.3876 26.6892 50 23.6036 50ZM19.1779 5.70082C13.4267 6.94927 8.40926 10.4343 5.22898 15.3837C1.84752 20.5047 0.812079 26.8268 2.38595 32.7584C3.8119 38.1575 9.59558 44.5328 15.0124 46.6659C20.1216 48.7515 25.8195 48.8758 31.0115 47.0149L19.3021 28.2557C19.2193 28.1226 19.1779 27.9687 19.1779 27.8149V5.70082Z"
      fill="#17498A"
    />
    <path
      d="M36.9787 49.642C36.9136 49.6509 36.8515 49.6509 36.7864 49.642C36.5705 49.5976 36.3811 49.4645 36.2687 49.2752L23.4943 28.8C23.3553 28.5811 23.3286 28.309 23.4204 28.0664C23.5091 27.8238 23.7073 27.6344 23.9529 27.5575L48.2118 19.9988C48.4307 19.9278 48.6703 19.9544 48.8715 20.0668C49.0727 20.1822 49.2176 20.3745 49.2709 20.5993C51.9364 31.7821 47.1675 43.4205 37.4195 49.5178C37.2864 49.6006 37.1326 49.642 36.9787 49.642ZM25.4794 28.8089L37.2302 47.6273C45.6676 41.9531 49.8567 31.7584 47.8479 21.7945L25.4794 28.8119V28.8089Z"
      fill="#17498A"
    />
  </g>
  <defs>
    <clipPath id="clip0_4569_10256">
      <rect
        width="50.003"
        height="50"
        fill="white"
        transform="translate(-0.00146484)"
      />
    </clipPath>
  </defs>
</svg>