<svg width="28" height="40" viewBox="0 0 28 40" fill="none" xmlns="http://www.w3.org/2000/svg">
<path d="M13.0454 3.45632e-07C21.112 -0.00158444 27.1215 5.44691 27.7792 12.5436C28.2039 17.1173 26.749 21.1743 24.3053 24.9382C21.8124 28.7781 18.5605 31.8811 14.8283 34.4992C14.3418 34.8399 13.8774 35.0396 13.3132 34.6434C8.12306 30.9984 3.77441 26.6133 1.38297 20.6149C-0.357128 16.2504 -0.647144 11.8114 1.63019 7.52773C4.23558 2.63075 8.45269 0.232964 13.0454 3.45632e-07ZM13.1769 1.89699C9.23083 2.09826 5.55571 4.15848 3.30531 8.4374C1.26094 12.3265 1.66189 16.3011 3.28629 20.2029C5.43209 25.3566 9.19121 29.1965 13.589 32.4739C13.7665 32.6054 14.2704 32.5515 14.4479 32.3899C16.4812 30.5547 18.6302 28.8162 20.4559 26.7892C23.4337 23.4818 25.4559 19.6609 25.9123 15.1046C26.6096 8.12203 21.0581 1.91284 13.1769 1.89699Z" fill="#737273"/>
<path d="M15.0167 40C10.5112 39.8891 7.14511 39.6783 3.92325 38.523C3.115 38.233 2.30676 37.8463 1.6158 37.3439C-0.114789 36.0856 -0.119543 34.3915 1.55874 33.084C2.8139 32.1062 4.30835 31.653 5.83291 31.3186C6.36857 31.2013 6.76635 31.5024 6.89313 32.0365C7.02309 32.5785 6.77111 32.9541 6.24971 33.1395C5.3337 33.4628 4.38283 33.7132 3.50803 34.1268C3.02309 34.3566 2.66334 34.8527 2.24813 35.2298C2.67602 35.5912 3.0532 36.0587 3.54131 36.2964C5.5841 37.2932 7.80914 37.6371 10.0373 37.859C13.8915 38.2425 17.7378 38.1458 21.5239 37.2441C22.6158 36.9842 23.6776 36.5626 24.7156 36.1252C25.0928 35.9668 25.3606 35.5515 25.6792 35.2536C25.3622 34.9224 25.1023 34.4802 24.7172 34.2853C23.9232 33.8859 23.0643 33.6149 22.2291 33.2996C22.0326 33.2251 21.7442 33.2473 21.638 33.1126C21.386 32.7972 21.0516 32.4121 21.0564 32.0587C21.0611 31.5309 21.5381 31.2029 22.0706 31.3186C23.6998 31.6736 25.2973 32.1506 26.5936 33.2726C27.9518 34.447 27.9518 35.9763 26.5825 37.1411C25.0405 38.4517 23.1372 38.9747 21.2133 39.2806C18.7965 39.6625 16.3511 39.8511 15.0183 40H15.0167Z" fill="#737273"/>
<path d="M13.9663 20.9256C9.93934 20.9256 6.66993 17.6498 6.6731 13.6181C6.67627 9.59593 9.95836 6.33602 13.9996 6.34395C17.9821 6.35187 21.2484 9.62445 21.2531 13.6118C21.2579 17.6466 17.9916 20.9271 13.9663 20.9271V20.9256ZM19.3546 13.6292C19.3546 10.6688 16.9219 8.23935 13.9599 8.24094C11.0011 8.24094 8.57167 10.6752 8.57167 13.6355C8.57167 16.5943 11.0075 19.0254 13.9663 19.0254C16.9251 19.0254 19.3561 16.5896 19.3546 13.6292Z" fill="#737273"/>
</svg>
