<svg width="30" height="30" viewBox="0 0 30 30" fill="none" xmlns="http://www.w3.org/2000/svg">
<path d="M23.6897 18.5864C23.0748 17.9484 22.3344 17.6046 21.5477 17.6046C20.761 17.6046 20.0206 17.9418 19.3827 18.5797L17.3829 20.5729C17.2176 20.4837 17.0523 20.401 16.8937 20.3184C16.6656 20.206 16.4508 20.0969 16.2657 19.9812C14.3915 18.7913 12.6892 17.241 11.053 15.2313C10.263 14.2298 9.73081 13.3902 9.34407 12.5341C9.86303 12.0581 10.3456 11.5656 10.8117 11.0896C10.9902 10.9111 11.1654 10.7293 11.3439 10.5508C12.6726 9.22206 12.6726 7.49993 11.3439 6.16784L9.61512 4.43909C9.4201 4.24407 9.21516 4.03914 9.02675 3.83751C8.64663 3.44416 8.24667 3.0409 7.83679 2.66077C7.22198 2.05257 6.48818 1.72864 5.7147 1.72864C4.94123 1.72864 4.1942 2.05257 3.56287 2.66077L3.54964 2.67399L1.39781 4.84566C0.587975 5.66211 0.12852 6.65043 0.026051 7.79411C-0.125999 9.64185 0.419398 11.364 0.835883 12.4911C1.86057 15.2578 3.39429 17.8228 5.68165 20.5696C8.45491 23.8817 11.7934 26.4963 15.6046 28.3407C17.0623 29.0315 19.0059 29.848 21.1775 29.9868C21.3097 29.9934 21.4486 30 21.5775 30C23.0418 30 24.2681 29.4745 25.23 28.4299C25.2366 28.4167 25.2498 28.4101 25.2564 28.3969C25.587 27.9969 25.9671 27.6366 26.3638 27.2499C26.6348 26.9888 26.9158 26.7177 27.1868 26.4335C27.8148 25.7823 28.1421 25.022 28.1421 24.242C28.1421 23.4619 27.8049 22.7016 27.167 22.0703L23.6897 18.5797V18.5864ZM25.9572 25.2534C25.7093 25.5179 25.4581 25.7591 25.1837 26.0269C24.7705 26.4202 24.354 26.8301 23.9607 27.2929C23.3228 27.9771 22.5691 28.301 21.5808 28.301C21.4849 28.301 21.3858 28.301 21.2899 28.2944C19.4091 28.1754 17.6605 27.4383 16.3516 26.8136C12.7685 25.0782 9.62173 22.6157 7.00382 19.492C4.84538 16.8907 3.4009 14.4843 2.44563 11.8995C1.85726 10.3228 1.64241 9.09315 1.73496 7.93624C1.79776 7.19583 2.08203 6.58102 2.6076 6.05545L4.76604 3.897C5.07676 3.60612 5.40399 3.44746 5.72793 3.44746C6.12788 3.44746 6.44851 3.68876 6.65345 3.89039C6.66006 3.897 6.66667 3.90361 6.67328 3.91022C7.06002 4.27052 7.42692 4.64403 7.81366 5.04399C8.00868 5.24562 8.21361 5.45056 8.41525 5.6588L10.144 7.38754C10.815 8.05855 10.815 8.67997 10.144 9.35097C9.95888 9.53608 9.7837 9.71787 9.59859 9.89637C9.06642 10.4418 8.56068 10.9475 8.00868 11.44C7.99545 11.4532 7.98223 11.4598 7.97562 11.4731C7.43023 12.0185 7.53269 12.5506 7.64508 12.9109C7.65169 12.9308 7.6583 12.9473 7.66491 12.9671C8.11445 14.0546 8.74909 15.0826 9.71098 16.3056L9.71759 16.3122C11.4662 18.4641 13.3073 20.1432 15.3401 21.429C15.6013 21.5943 15.8657 21.7265 16.1202 21.8521C16.3483 21.9645 16.5631 22.0736 16.7482 22.1893C16.7747 22.2025 16.7978 22.2223 16.8243 22.2323C17.0391 22.3413 17.2408 22.3909 17.4523 22.3909C17.9779 22.3909 18.3084 22.0604 18.4142 21.9546L20.5792 19.7895C20.7941 19.5747 21.1379 19.3136 21.5345 19.3136C21.9312 19.3136 22.2485 19.5615 22.4468 19.7763L22.46 19.7895L25.9506 23.2801C26.6017 23.9246 26.6017 24.5923 25.9572 25.2633V25.2534Z" fill="#737273"/>
<path d="M16.1928 7.13629C17.8521 7.41395 19.3594 8.20064 20.5625 9.40382C21.7657 10.607 22.5458 12.1143 22.8301 13.7736C22.8995 14.1901 23.2598 14.4843 23.673 14.4843C23.7225 14.4843 23.7688 14.4777 23.8184 14.4711C24.2878 14.395 24.5985 13.9521 24.5225 13.4827C24.182 11.4763 23.23 9.64512 21.7822 8.19403C20.3345 6.74294 18.5033 5.79428 16.4936 5.45383C16.0242 5.3778 15.5879 5.68851 15.5052 6.15127C15.4226 6.61403 15.7267 7.06357 16.1961 7.1396L16.1928 7.13629Z" fill="#737273"/>
<path d="M29.9468 13.2348C29.3849 9.92941 27.8247 6.92146 25.4316 4.52833C23.0385 2.13519 20.0305 0.575025 16.7251 0.0131006C16.2623 -0.0695353 15.826 0.247786 15.7434 0.710547C15.6673 1.17992 15.9781 1.61624 16.4474 1.69887C19.3992 2.19799 22.0898 3.5995 24.2284 5.7315C26.3703 7.87343 27.7619 10.564 28.2611 13.5125C28.3305 13.929 28.6908 14.2232 29.1039 14.2232C29.1535 14.2232 29.1998 14.2166 29.2494 14.2099C29.7121 14.1405 30.0295 13.6976 29.9468 13.2348Z" fill="#737273"/>
</svg>
