<svg width="30" height="31" viewBox="0 0 30 31" fill="none" xmlns="http://www.w3.org/2000/svg">
    <g clip-path="url(#clip0_4865_9241)">
    <path d="M28.3538 4.08266C27.3478 3.10248 26.0356 2.59125 24.6552 2.64715C24.3312 2.65942 24.01 2.65669 23.6683 2.6526C23.5063 2.65124 23.3389 2.64987 23.166 2.64987H22.8937V2.37722C22.8937 2.24907 22.8951 2.12911 22.8964 2.01459C22.8992 1.78011 22.9005 1.57698 22.8924 1.37386C22.8706 0.83673 22.548 0.498641 22.0688 0.500004C21.5842 0.50682 21.2833 0.842183 21.2656 1.39703C21.2588 1.60425 21.2602 1.80874 21.2629 2.0255C21.2643 2.12365 21.2643 2.22317 21.2643 2.32269V2.59534H8.72546V2.32269C8.72546 2.20272 8.72683 2.08684 8.72819 1.97642C8.73091 1.75148 8.73363 1.53881 8.72274 1.33432C8.69552 0.84082 8.37289 0.505457 7.91822 0.501367C7.45947 0.493188 7.12868 0.823098 7.09873 1.31387C7.08648 1.52927 7.0892 1.74466 7.09192 1.99551C7.09328 2.11684 7.09601 2.24498 7.09601 2.37995V2.6526H6.82375C6.63453 2.6526 6.45348 2.65396 6.27651 2.65533C5.90488 2.65805 5.55367 2.65942 5.19974 2.65124C5.15754 2.64987 5.11397 2.64987 5.07177 2.64987C3.78808 2.64987 2.55884 3.16519 1.59641 4.11129C0.572728 5.11466 -0.00990219 6.51064 -0.000373197 7.93798C0.0268525 11.8983 0.0214074 15.924 0.0159622 19.8161C0.0132397 21.5829 0.0105171 23.3483 0.0118784 25.1151C0.0132397 28.2847 2.22669 30.4986 5.39576 30.4986C11.7952 30.5 18.1959 30.5 24.5953 30.4986C27.7644 30.4986 29.9778 28.2833 29.9792 25.1137C29.9792 23.3919 29.9751 21.6715 29.971 19.9497C29.9615 16.0562 29.9506 12.0305 29.9996 8.07158C30.0187 6.57471 29.4184 5.12011 28.3538 4.08266ZM28.347 24.9856C28.3457 27.4136 26.9027 28.8641 24.4851 28.8641C21.2561 28.8654 18.0271 28.8655 14.7995 28.8655C11.6958 28.8655 8.59342 28.8654 5.48969 28.8641C3.11833 28.8641 1.64542 27.3972 1.64406 25.0374C1.6427 21.9333 1.6427 18.8291 1.6427 15.7249V10.8731H28.347V15.6677C28.3484 18.7759 28.3484 21.8801 28.347 24.9856ZM28.2817 8.94407L28.2477 9.17718H1.77474L1.7339 8.95361C1.4739 7.5399 1.72982 6.36068 2.47717 5.54136C3.362 4.57208 4.87439 4.15628 6.84961 4.34032L7.09601 4.3635V4.61161C7.09601 4.71113 7.09464 4.81201 7.09328 4.91426C7.09056 5.13238 7.08648 5.35868 7.09873 5.57817C7.12595 6.07576 7.43769 6.38658 7.91142 6.38658C8.39059 6.38658 8.69415 6.08394 8.72274 5.5768C8.73363 5.37368 8.73091 5.1651 8.72819 4.94288C8.72683 4.83382 8.72546 4.7234 8.72546 4.60616V4.3335H21.2643V4.60616C21.2643 4.71113 21.2629 4.81474 21.2615 4.91698C21.2588 5.1351 21.2561 5.34096 21.2656 5.54545C21.2901 6.08394 21.6073 6.40021 22.1055 6.38658C22.5738 6.37567 22.8679 6.06076 22.8924 5.54681C22.9019 5.35186 22.8992 5.15146 22.8964 4.95652C22.8951 4.86518 22.8937 4.77384 22.8937 4.6825V4.46165L23.1088 4.4153C24.8118 4.04858 26.2792 4.34441 27.2403 5.24826C28.1415 6.09348 28.5104 7.4063 28.2817 8.94407Z" fill="white"/>
    <path d="M11.1681 22.1419C11.6758 22.6504 12.1822 23.1589 12.6913 23.666C13.3325 24.3068 13.6687 24.3027 14.3221 23.6497C15.8835 22.0901 17.4422 20.5292 19.0022 18.9669L20.7706 17.196C20.7951 17.1714 20.8209 17.1469 20.8454 17.1224C20.8999 17.0692 20.9516 17.0188 20.9965 16.9669C21.3409 16.5716 21.3505 16.1504 21.0238 15.8109C20.6862 15.4605 20.2383 15.4714 19.8272 15.8423C19.7373 15.9227 19.6529 16.0086 19.5631 16.1013C19.5263 16.1394 19.4882 16.1776 19.4501 16.2158L18.1188 17.5491C16.8147 18.8551 15.5106 20.1611 14.2051 21.4657C14.0962 21.5748 13.9832 21.6784 13.8648 21.7888C13.8076 21.842 13.749 21.8965 13.6878 21.9538L13.5027 22.1283L13.3162 21.9551C13.2563 21.8992 13.1991 21.8461 13.1419 21.7943C13.0221 21.6838 12.9078 21.5789 12.7961 21.4684C12.5089 21.1822 12.223 20.8945 11.9372 20.6055C11.3545 20.0179 10.7529 19.4113 10.1444 18.8319C9.95787 18.6547 9.73598 18.5606 9.51409 18.5606C9.45147 18.5606 9.39021 18.5674 9.32896 18.5824C9.06895 18.6465 8.86476 18.8414 8.77083 19.1168C8.65784 19.4495 8.74905 19.7303 9.07712 20.0575C9.77818 20.7486 10.4724 21.4439 11.1681 22.1419Z" fill="white"/>
    </g>
    <defs>
    <clipPath id="clip0_4865_9241">
    <rect width="30" height="30" fill="white" transform="translate(0 0.5)"/>
    </clipPath>
    </defs>
    </svg>
    