<svg width="51" height="50" viewBox="0 0 51 50" fill="none" xmlns="http://www.w3.org/2000/svg">
    <path
        d="M49.6381 9.74887C48.5239 5.84261 45.2478 3.5984 40.6498 3.58927H40.6452C40.5082 3.58927 40.3462 3.60297 40.1749 3.61895C39.6247 3.66689 39.0015 3.72168 38.5996 3.33129C38.1887 2.93404 38.1727 2.30393 38.159 1.74687C38.1545 1.58478 38.1499 1.43181 38.1385 1.2994C38.0631 0.509472 37.5677 0.000357503 36.8805 0.000357503H36.8782C36.1682 0.000357503 35.6797 0.504906 35.6317 1.28113C35.6089 1.64185 35.6157 2.00257 35.6226 2.38612C35.6249 2.56419 35.6271 2.74227 35.6271 2.92034V3.4911H14.5023L14.4612 2.966C14.2238 -0.00877458 13.7672 -0.00420854 13.1257 0.000357503C12.4704 0.00492355 12.0732 0.00948959 11.7947 3.07559L11.7467 3.59384H11.2262C10.9226 3.59384 10.628 3.59384 10.3358 3.59155C10.055 3.59155 9.77876 3.58927 9.50936 3.58927C9.18974 3.58927 8.87696 3.58927 8.56191 3.5984C3.6146 3.69657 0.0188349 7.35854 0.0119859 12.3013C-0.00399529 22.6023 -0.00399529 32.0837 0.0119859 41.2934C0.021118 46.243 3.75158 49.9803 8.69204 49.9871C19.7761 50.0031 30.7597 50.0054 41.337 49.9871C46.2683 49.978 49.9942 46.2361 50.0033 41.2774C50.0216 31.0449 50.017 21.5612 49.9919 12.2853C49.9919 11.4246 49.8686 10.5456 49.6381 9.74658V9.74887ZM47.4897 41.1404C47.4829 44.928 44.9145 47.4758 41.0973 47.4781C35.8326 47.4827 30.4949 47.485 25.1207 47.485C19.7464 47.485 14.3334 47.485 8.92491 47.4781C5.0392 47.4758 2.52788 44.9462 2.52331 41.0331C2.51875 35.7753 2.51874 30.5198 2.52103 25.262V17.107H47.387L47.4258 17.6367C47.4327 17.7417 47.4418 17.8422 47.4509 17.9449C47.4715 18.1755 47.4943 18.4152 47.4943 18.6618V22.1525C47.4989 28.376 47.5034 34.8096 47.4943 41.1381L47.4897 41.1404ZM47.3413 14.0546L47.2477 14.5113H2.79956L2.6991 14.0661C2.18086 11.7693 2.5781 9.79453 3.84975 8.3585C5.37481 6.63482 8.04366 5.86544 11.3655 6.1942L11.8791 6.24443V6.76039C11.8791 6.91563 11.8791 7.07316 11.8769 7.23297C11.8723 7.57314 11.87 7.92473 11.8837 8.26718C11.918 9.12103 12.3883 9.63015 13.1371 9.63015C13.895 9.63015 14.3517 9.13245 14.3882 8.26262C14.4019 7.94756 14.3973 7.62337 14.395 7.27863C14.395 7.10741 14.3905 6.93162 14.3905 6.74897V6.17822H35.424L35.5267 6.61884C35.6226 7.02979 35.618 7.43388 35.6134 7.82428C35.6043 8.55484 35.6203 8.98177 36.0449 9.29911C36.2869 9.47947 36.6545 9.60503 36.9604 9.60732C37.586 9.61873 37.9627 9.62102 38.2047 6.73299L38.2412 6.28552L38.6864 6.21703C42.6543 5.60746 44.7798 6.83801 45.8642 7.97724C47.2637 9.44751 47.8139 11.7168 47.3391 14.0546H47.3413Z"
        fill="white" />
    <path
        d="M34.3259 25.2209C33.9218 25.1752 33.4972 25.3419 33.1387 25.6935C31.794 27.0108 30.4425 28.3669 29.1366 29.6796C28.591 30.2276 28.043 30.7778 27.4951 31.3257L22.5364 36.2844L22.1346 35.91C22.0387 35.821 21.9542 35.7434 21.8812 35.6749C21.7305 35.5379 21.6163 35.4329 21.5067 35.321C21.0205 34.837 20.5365 34.3484 20.0525 33.8621C19.0023 32.8051 17.9178 31.7138 16.8288 30.6682C16.532 30.3828 16.1782 30.2321 15.8289 30.2321C15.7375 30.2321 15.6439 30.2435 15.5549 30.2641C15.1622 30.3577 14.8517 30.6499 14.7033 31.0677C14.5116 31.6065 14.6622 32.038 15.2376 32.6088C16.4042 33.7663 17.5662 34.9283 18.7283 36.0927C19.5548 36.9191 20.3789 37.7456 21.2077 38.5697C22.2601 39.6176 22.7419 39.6199 23.7852 38.5812C25.6071 36.7661 27.4243 34.9466 29.2416 33.127L31.1206 31.2481C31.4767 30.8919 31.8329 30.5358 32.1913 30.1796C33.084 29.2915 34.0063 28.3738 34.8967 27.4583C35.4446 26.8966 35.5451 26.335 35.198 25.7939C34.988 25.4675 34.6798 25.2643 34.3282 25.2232L34.3259 25.2209Z"
        fill="white" />
</svg>