<svg width="35" height="50" viewBox="0 0 35 50" fill="none" xmlns="http://www.w3.org/2000/svg">
    <path
        d="M16.3214 4.3204e-07C26.4046 -0.00198055 33.9165 6.80864 34.7386 15.6795C35.2695 21.3966 33.451 26.4679 30.3963 31.1727C27.2802 35.9727 23.2152 39.8514 18.55 43.124C17.9419 43.5499 17.3614 43.7995 16.6562 43.3043C10.1685 38.748 4.73266 33.2666 1.74336 25.7686C-0.431762 20.313 -0.794282 14.7643 2.05239 9.40967C5.30913 3.28843 10.5805 0.291205 16.3214 4.3204e-07ZM16.4858 2.37124C11.5532 2.62282 6.95928 5.1981 4.14629 10.5468C1.59082 15.4081 2.09201 20.3764 4.12252 25.2536C6.80477 31.6957 11.5037 36.4956 17.0009 40.5923C17.2228 40.7567 17.8527 40.6894 18.0746 40.4873C20.6162 38.1933 23.3024 36.0202 25.5845 33.4865C29.3067 29.3522 31.8345 24.5761 32.405 18.8807C33.2766 10.1525 26.3373 2.39105 16.4858 2.37124Z"
        fill="white" />
    <path
        d="M18.7858 50C13.1538 49.8613 8.94623 49.5979 4.91889 48.1537C3.90859 47.7912 2.89829 47.3079 2.03458 46.6799C-0.128655 45.107 -0.134598 42.9893 1.96326 41.355C3.5322 40.1327 5.40027 39.5662 7.30597 39.1482C7.97554 39.0016 8.47277 39.378 8.63125 40.0456C8.79369 40.7231 8.47871 41.1926 7.82697 41.4243C6.68196 41.8285 5.49337 42.1415 4.39987 42.6585C3.79369 42.9457 3.34401 43.5658 2.82499 44.0373C3.35986 44.4889 3.83133 45.0733 4.44147 45.3705C6.99496 46.6165 9.77626 47.0464 12.5615 47.3237C17.3793 47.8031 22.1871 47.6823 26.9197 46.5551C28.2846 46.2302 29.6118 45.7033 30.9094 45.1565C31.3809 44.9584 31.7156 44.4394 32.1138 44.067C31.7176 43.6529 31.3927 43.1002 30.9114 42.8566C29.9189 42.3574 28.8452 42.0186 27.8012 41.6244C27.5556 41.5313 27.195 41.559 27.0623 41.3907C26.7473 40.9964 26.3293 40.5151 26.3353 40.0733C26.3412 39.4136 26.9375 39.0036 27.6031 39.1482C29.6396 39.5919 31.6364 40.1882 33.2568 41.5907C34.9545 43.0586 34.9545 44.9703 33.243 46.4263C31.3155 48.0646 28.9363 48.7183 26.5314 49.1006C23.5104 49.5781 20.4538 49.8138 18.7877 50H18.7858Z"
        fill="white" />
    <path
        d="M17.4724 26.1569C12.4388 26.1569 8.352 22.0622 8.35596 17.0226C8.35992 11.9949 12.4625 7.91998 17.514 7.92989C22.4923 7.93979 26.5751 12.0305 26.581 17.0147C26.5869 22.0583 22.5041 26.1589 17.4724 26.1589V26.1569ZM24.2078 17.0365C24.2078 13.336 21.167 10.2991 17.4645 10.3011C13.766 10.3011 10.7292 13.3439 10.7292 17.0444C10.7292 20.7429 13.7739 23.7817 17.4724 23.7817C21.1709 23.7817 24.2098 20.7369 24.2078 17.0365Z"
        fill="white" />
</svg>