<svg width="80" height="78" viewBox="0 0 80 78" fill="none" xmlns="http://www.w3.org/2000/svg">
<path d="M73.7944 72.6044V18.7101H60.9776V2L19.0225 12.4305V27.3682H6.20564V72.6044H1V77H79V72.6044H73.7944ZM11.1629 72.6044V31.7638H31.9822V72.6044H11.1629ZM36.9395 72.6044V27.3682H23.9796V15.7632L56.02 7.79764L55.9485 72.6046H36.9395V72.6044ZM60.9775 72.6044V23.1057H68.8369V72.6044H60.9775Z" fill="#17498A" stroke="white" stroke-width="0"/>
<path d="M19.0938 38.7054H24.0511V47.5466H19.0938V38.7054Z" fill="#D21F34"/>
<path d="M19.0938 54.8523H24.0511V63.6935H19.0938V54.8523Z" fill="#D21F34"/>
<path d="M43.0605 38.7054H48.0177V47.5466H43.0605V38.7054Z" fill="#D21F34"/>
<path d="M43.0605 22.559H48.0177V31.4001H43.0605V22.559Z" fill="#D21F34"/>
<path d="M43.0605 54.8523H48.0177V63.6935H43.0605V54.8523Z" fill="#D21F34"/>
</svg>
