<svg width="140" height="40" viewBox="0 0 140 40" fill="none" xmlns="http://www.w3.org/2000/svg">
<path d="M54.4529 4.05014V6.89538H59.4342V8.89474H54.4529V12.8166H51.9623V2.05078H60.0964V4.05014H54.4529Z" fill="white"/>
<path d="M66.7569 4.41748V6.63045C66.5561 6.61336 66.4023 6.60054 66.2186 6.60054C64.8943 6.60054 64.0185 7.32253 64.0185 8.90749V12.8122H61.6176V4.54137H63.9074V5.63504C64.4927 4.83615 65.4753 4.42175 66.7527 4.42175L66.7569 4.41748Z" fill="white"/>
<path d="M75.5658 8.09164V12.8123H73.323V11.7828C72.8787 12.5347 72.0157 12.9362 70.8024 12.9362C68.8629 12.9362 67.7094 11.8597 67.7094 10.4285C67.7094 8.99733 68.739 7.95493 71.2638 7.95493H73.1692C73.1692 6.92535 72.554 6.32725 71.2638 6.32725C70.388 6.32725 69.478 6.61775 68.8799 7.09623L68.017 5.42155C68.9227 4.77646 70.2598 4.42188 71.5842 4.42188C74.1048 4.42188 75.5658 5.59244 75.5658 8.09591V8.09164ZM73.1692 10.1978V9.35192H71.5244C70.4008 9.35192 70.0462 9.76631 70.0462 10.3217C70.0462 10.9198 70.5546 11.3214 71.4005 11.3214C72.1994 11.3214 72.8915 10.954 73.1692 10.1978Z" fill="white"/>
<path d="M86.1903 8.0787V12.8165H83.7894V8.45037C83.7894 7.1132 83.1742 6.49801 82.1147 6.49801C80.9612 6.49801 80.1324 7.20718 80.1324 8.72806V12.8165H77.7357V4.54137H80.0256V5.51115C80.6707 4.80197 81.6405 4.41748 82.764 4.41748C84.7164 4.41748 86.1946 5.55387 86.1946 8.0787H86.1903Z" fill="white"/>
<path d="M87.7453 8.6768C87.7453 6.18614 89.6677 4.41748 92.3592 4.41748C94.0979 4.41748 95.465 5.16938 96.0631 6.52364L94.2005 7.52332C93.7562 6.73725 93.094 6.38693 92.3421 6.38693C91.1288 6.38693 90.1718 7.23282 90.1718 8.6768C90.1718 10.1208 91.1245 10.9667 92.3421 10.9667C93.094 10.9667 93.7562 10.6292 94.2005 9.83027L96.0631 10.847C95.465 12.1714 94.0937 12.9361 92.3592 12.9361C89.6677 12.9361 87.7453 11.1675 87.7453 8.6768Z" fill="white"/>
<path d="M105.906 8.07859V12.8164H103.505V8.45027C103.505 7.11309 102.89 6.4979 101.831 6.4979C100.677 6.4979 99.8485 7.20707 99.8485 8.72795V12.8164H97.4519V1.40552H99.8485V5.40423C100.494 4.75914 101.416 4.42164 102.48 4.42164C104.433 4.42164 105.911 5.55803 105.911 8.08286L105.906 8.07859Z" fill="white"/>
<path d="M107.457 8.6768C107.457 6.18614 109.38 4.41748 112.007 4.41748C114.635 4.41748 116.544 6.18614 116.544 8.6768C116.544 11.1675 114.639 12.9361 112.007 12.9361C109.376 12.9361 107.457 11.1675 107.457 8.6768ZM114.118 8.6768C114.118 7.24563 113.212 6.38693 112.012 6.38693C110.811 6.38693 109.888 7.2499 109.888 8.6768C109.888 10.1037 110.811 10.9667 112.012 10.9667C113.212 10.9667 114.118 10.1037 114.118 8.6768Z" fill="white"/>
<path d="M117.851 2.05056C117.851 1.29866 118.45 0.713379 119.342 0.713379C120.235 0.713379 120.833 1.26876 120.833 2.00356C120.833 2.80245 120.235 3.38773 119.342 3.38773C118.45 3.38773 117.851 2.80245 117.851 2.05056ZM118.146 4.54121H120.543V12.8121H118.146V4.54121Z" fill="white"/>
<path d="M122.158 8.6768C122.158 6.18614 124.08 4.41748 126.772 4.41748C128.51 4.41748 129.877 5.16938 130.475 6.52364L128.613 7.52332C128.169 6.73725 127.506 6.38693 126.754 6.38693C125.541 6.38693 124.584 7.23282 124.584 8.6768C124.584 10.1208 125.537 10.9667 126.754 10.9667C127.506 10.9667 128.169 10.6292 128.613 9.83027L130.475 10.847C129.877 12.1714 128.506 12.9361 126.772 12.9361C124.08 12.9361 122.158 11.1675 122.158 8.6768Z" fill="white"/>
<path d="M139.917 9.35179H133.658C133.889 10.3814 134.765 11.0137 136.025 11.0137C136.901 11.0137 137.533 10.7531 138.101 10.2148L139.379 11.5989C138.61 12.4747 137.456 12.9361 135.965 12.9361C133.107 12.9361 131.245 11.1375 131.245 8.6768C131.245 6.21605 133.137 4.41748 135.658 4.41748C138.178 4.41748 139.964 6.04516 139.964 8.7067C139.964 8.8904 139.934 9.151 139.917 9.35179ZM133.628 7.95481H137.704C137.533 6.90813 136.751 6.23314 135.675 6.23314C134.598 6.23314 133.799 6.89532 133.628 7.95481Z" fill="white"/>
<path d="M69.1707 16.8748L65.6505 27.6405H62.9761L60.6094 20.3523L58.1657 27.6405H55.5042L51.9669 16.8748H54.5515L56.9823 24.4407L59.52 16.8748H61.8269L64.2877 24.5005L66.7954 16.8748H69.1793H69.1707Z" fill="white"/>
<path d="M69.9991 23.5052C69.9991 21.0145 71.9216 19.2458 74.5489 19.2458C77.1763 19.2458 79.0859 21.0145 79.0859 23.5052C79.0859 25.9958 77.1806 27.7645 74.5489 27.7645C71.9173 27.7645 69.9991 25.9958 69.9991 23.5052ZM76.6594 23.5052C76.6594 22.074 75.7537 21.2153 74.5532 21.2153C73.3527 21.2153 72.43 22.0783 72.43 23.5052C72.43 24.9321 73.3527 25.795 74.5532 25.795C75.7537 25.795 76.6594 24.9321 76.6594 23.5052Z" fill="white"/>
<path d="M85.8232 19.2458V21.4588C85.6224 21.4417 85.4686 21.4289 85.2849 21.4289C83.9605 21.4289 83.0847 22.1509 83.0847 23.7359V27.6406H80.6881V19.3697H82.9779V20.4634C83.5632 19.6645 84.5458 19.2501 85.8232 19.2501V19.2458Z" fill="white"/>
<path d="M87.3143 16.2297H89.7153V27.6406H87.3143V16.2297Z" fill="white"/>
<path d="M100.37 16.2297V27.6406H98.0798V26.6879C97.4817 27.4099 96.6017 27.7645 95.4952 27.7645C93.1583 27.7645 91.3598 26.1026 91.3598 23.5052C91.3598 20.9077 93.1583 19.2459 95.4952 19.2459C96.512 19.2459 97.3707 19.5705 97.9688 20.2455V16.234H100.37V16.2297ZM98.0157 23.5052C98.0157 22.074 97.093 21.2153 95.9096 21.2153C94.7262 21.2153 93.7863 22.0783 93.7863 23.5052C93.7863 24.9321 94.7091 25.795 95.9096 25.795C97.1101 25.795 98.0157 24.9321 98.0157 23.5052Z" fill="white"/>
<path d="M4.78477 37.0352H5.7759V39.2781C5.4854 39.5087 5.1479 39.6882 4.76341 39.8078C4.37892 39.9317 3.98161 39.9915 3.57148 39.9915C2.99902 39.9915 2.47782 39.8676 2.01643 39.6156C1.55504 39.3678 1.19191 39.0217 0.931305 38.5817C0.670705 38.1417 0.538269 37.6461 0.538269 37.095C0.538269 36.5439 0.670705 36.0483 0.931305 35.6083C1.19618 35.1683 1.55931 34.8222 2.0207 34.5744C2.48636 34.3224 3.00756 34.1985 3.5843 34.1985C4.05423 34.1985 4.48572 34.2754 4.87021 34.4335C5.2547 34.5872 5.57939 34.8179 5.84426 35.117L5.18208 35.7621C4.75486 35.3349 4.23366 35.117 3.62702 35.117C3.22971 35.117 2.8794 35.2024 2.56753 35.3691C2.25994 35.5357 2.01643 35.7664 1.84127 36.0697C1.66611 36.373 1.58067 36.7148 1.58067 37.0993C1.58067 37.4838 1.66611 37.8127 1.84127 38.1118C2.01643 38.4108 2.25567 38.65 2.56753 38.8209C2.87513 38.9918 3.22544 39.0773 3.61848 39.0773C4.05851 39.0773 4.443 38.979 4.77623 38.7868V37.0309L4.78477 37.0352Z" fill="white"/>
<path d="M13.4104 39.9149L12.2612 38.2658C12.2142 38.2701 12.1415 38.2744 12.0433 38.2744H10.7702V39.9149H9.72351V34.2842H12.039C12.526 34.2842 12.9532 34.3653 13.3164 34.5234C13.6795 34.6858 13.9572 34.9165 14.1494 35.2155C14.3417 35.5146 14.4399 35.8734 14.4399 36.2835C14.4399 36.6937 14.3374 37.0739 14.1281 37.3772C13.923 37.6848 13.624 37.9112 13.2395 38.0607L14.5339 39.9106H13.4061L13.4104 39.9149ZM13.0301 35.459C12.7952 35.2668 12.4491 35.1685 11.992 35.1685H10.7702V37.4114H11.992C12.4491 37.4114 12.7952 37.3131 13.0301 37.1166C13.2651 36.9201 13.3847 36.6424 13.3847 36.2835C13.3847 35.9247 13.2651 35.647 13.0301 35.4547V35.459Z" fill="white"/>
<path d="M19.2586 39.6242C18.7972 39.3764 18.4341 39.0304 18.1735 38.5861C17.9129 38.1461 17.7805 37.6505 17.7805 37.1037C17.7805 36.5568 17.9129 36.0613 18.1735 35.617C18.4341 35.1769 18.7972 34.8266 19.2586 34.5788C19.72 34.331 20.2369 34.2029 20.8137 34.2029C21.3904 34.2029 21.9073 34.3268 22.3687 34.5788C22.8301 34.8266 23.1933 35.1727 23.4539 35.6127C23.7187 36.0527 23.8469 36.5483 23.8469 37.0994C23.8469 37.6505 23.7145 38.1461 23.4539 38.5861C23.189 39.0261 22.8301 39.3722 22.3687 39.6199C21.9073 39.8677 21.3904 39.9959 20.8137 39.9959C20.2369 39.9959 19.7243 39.872 19.2586 39.6199M21.8262 38.8253C22.1252 38.6544 22.3602 38.4195 22.5353 38.1162C22.7062 37.8128 22.7917 37.4711 22.7917 37.0994C22.7917 36.7277 22.7062 36.3859 22.5353 36.0826C22.3645 35.7793 22.1295 35.5443 21.8262 35.3734C21.5271 35.2026 21.1853 35.1214 20.8094 35.1214C20.4335 35.1214 20.096 35.2068 19.7969 35.3734C19.4979 35.5443 19.2586 35.7793 19.0877 36.0826C18.9168 36.3859 18.8314 36.7234 18.8314 37.0994C18.8314 37.4753 18.9168 37.8128 19.0877 38.1162C19.2586 38.4195 19.4979 38.6544 19.7969 38.8253C20.096 38.9962 20.4335 39.0774 20.8094 39.0774C21.1853 39.0774 21.5228 38.9919 21.8262 38.8253Z" fill="white"/>
<path d="M35.587 34.2842L33.7201 39.9149H32.6093L31.2166 35.7495L29.7982 39.9149H28.6789L26.8163 34.2842H27.9014L29.3027 38.5649L30.7595 34.2842H31.7207L33.1476 38.5862L34.5873 34.2842H35.587Z" fill="white"/>
<path d="M48.6598 37.4968C48.8435 37.7361 48.9332 38.0308 48.9332 38.3854C48.9332 38.8724 48.7452 39.2527 48.3693 39.5175C47.9933 39.7824 47.4465 39.9149 46.7288 39.9149H43.9305V34.2842H46.5707C47.2372 34.2842 47.7498 34.4123 48.1087 34.6729C48.4675 34.9335 48.647 35.2924 48.647 35.7452C48.647 36.0229 48.5829 36.2707 48.4547 36.4843C48.3266 36.6979 48.1471 36.8645 47.925 36.9842C48.2369 37.0867 48.4846 37.2576 48.6641 37.4968M44.9772 35.1044V36.6595H46.4554C46.8185 36.6595 47.1005 36.5954 47.297 36.463C47.4935 36.3305 47.5918 36.1426 47.5918 35.8862C47.5918 35.6299 47.4935 35.4334 47.297 35.3052C47.1005 35.1728 46.8228 35.1087 46.4554 35.1087H44.9772V35.1044ZM47.8823 38.2829C47.8823 37.7403 47.4764 37.4712 46.669 37.4712H44.9772V39.0946H46.669C47.4807 39.0946 47.8823 38.8255 47.8823 38.2829Z" fill="white"/>
<path d="M56.8539 39.0391V39.9149H52.6288V34.2842H56.7386V35.16H53.6755V36.6253H56.3925V37.4883H53.6755V39.0391H56.8539Z" fill="white"/>
<path d="M62.9587 37.9283V39.9149H61.9121V37.9454L59.6991 34.2842H60.8184L62.4674 37.0269L64.1336 34.2842H65.1632L62.9587 37.9283Z" fill="white"/>
<path d="M69.2603 39.6242C68.7989 39.3764 68.4358 39.0304 68.1752 38.5861C67.9146 38.1461 67.7821 37.6505 67.7821 37.1037C67.7821 36.5568 67.9146 36.0613 68.1752 35.617C68.44 35.1769 68.7989 34.8266 69.2603 34.5788C69.7217 34.331 70.2386 34.2029 70.8153 34.2029C71.3921 34.2029 71.9047 34.3268 72.3704 34.5788C72.8318 34.8266 73.1949 35.1727 73.4555 35.6127C73.7161 36.0527 73.8486 36.5483 73.8486 37.0994C73.8486 37.6505 73.7161 38.1461 73.4555 38.5861C73.1949 39.0261 72.8318 39.3722 72.3704 39.6199C71.909 39.8677 71.3921 39.9959 70.8153 39.9959C70.2386 39.9959 69.7217 39.872 69.2603 39.6199M71.8278 38.8253C72.1269 38.6544 72.3661 38.4195 72.537 38.1162C72.7079 37.8128 72.7933 37.4711 72.7933 37.0994C72.7933 36.7277 72.7079 36.3859 72.537 36.0826C72.3661 35.7793 72.1269 35.5443 71.8278 35.3734C71.5288 35.2026 71.1913 35.1214 70.8153 35.1214C70.4394 35.1214 70.1019 35.2068 69.8029 35.3734C69.5038 35.5401 69.2688 35.7793 69.0937 36.0826C68.9228 36.3859 68.8374 36.7234 68.8374 37.0994C68.8374 37.4753 68.9228 37.8128 69.0937 38.1162C69.2646 38.4195 69.4995 38.6544 69.8029 38.8253C70.1019 38.9962 70.4394 39.0774 70.8153 39.0774C71.1913 39.0774 71.5288 38.9919 71.8278 38.8253Z" fill="white"/>
<path d="M82.5381 34.2842V39.9149H81.6751L78.5693 36.0998V39.9149H77.5312V34.2842H78.3941L81.5 38.0992V34.2842H82.5381Z" fill="white"/>
<path d="M86.6264 34.2842H89.0871C89.6895 34.2842 90.2235 34.3995 90.6892 34.6345C91.1548 34.8695 91.518 35.1984 91.7743 35.6256C92.0306 36.0528 92.1588 36.5441 92.1588 37.1038C92.1588 37.6634 92.0306 38.1547 91.7743 38.5819C91.518 39.0092 91.1548 39.3381 90.6892 39.5731C90.2235 39.808 89.6895 39.9234 89.0871 39.9234H86.6264V34.2927V34.2842ZM89.0401 39.0305C89.4545 39.0305 89.8177 38.9494 90.1295 38.7913C90.4414 38.6332 90.6849 38.4068 90.8558 38.1163C91.0267 37.8258 91.1078 37.484 91.1078 37.0995C91.1078 36.715 91.0224 36.3733 90.8558 36.0827C90.6849 35.788 90.4457 35.5658 90.1295 35.4077C89.8177 35.2497 89.4545 35.1728 89.0401 35.1728H87.673V39.0348H89.0401V39.0305Z" fill="white"/>
<path d="M100.643 34.2842H101.686V39.0305H104.633V39.9149H100.643V34.2842Z" fill="white"/>
<path d="M109.085 34.2842H108.038V39.9149H109.085V34.2842Z" fill="white"/>
<path d="M118.351 39.9149L118.343 36.181L116.493 39.274H116.027L114.173 36.2323V39.9149H113.178V34.2842H114.036L116.275 38.018L118.471 34.2842H119.334L119.342 39.9149H118.351Z" fill="white"/>
<path d="M124.481 34.2842H123.435V39.9149H124.481V34.2842Z" fill="white"/>
<path d="M129.719 35.1685H127.852V34.2842H132.633V35.1685H130.766V39.9149H129.719V35.1685Z" fill="white"/>
<path d="M136.426 39.8121C136.021 39.6882 135.7 39.5258 135.465 39.3208L135.828 38.5091C136.059 38.6928 136.341 38.8423 136.679 38.9576C137.016 39.073 137.349 39.1328 137.687 39.1328C138.105 39.1328 138.417 39.0644 138.627 38.932C138.832 38.7996 138.938 38.6201 138.938 38.4023C138.938 38.2399 138.883 38.1075 138.763 38.005C138.648 37.8982 138.503 37.817 138.323 37.7572C138.148 37.6974 137.905 37.6333 137.597 37.5564C137.17 37.4539 136.82 37.3513 136.555 37.2488C136.29 37.1463 136.059 36.9882 135.871 36.7703C135.679 36.5524 135.585 36.2619 135.585 35.8903C135.585 35.5784 135.67 35.2964 135.837 35.0401C136.004 34.7838 136.26 34.583 136.602 34.4335C136.943 34.2839 137.358 34.207 137.853 34.207C138.195 34.207 138.533 34.2498 138.866 34.3352C139.199 34.4206 139.485 34.5445 139.729 34.7069L139.4 35.5186C139.152 35.3733 138.896 35.2622 138.627 35.1896C138.357 35.1127 138.097 35.0785 137.845 35.0785C137.43 35.0785 137.123 35.1469 136.922 35.2879C136.721 35.4289 136.619 35.6126 136.619 35.8433C136.619 36.0056 136.674 36.138 136.79 36.2363C136.905 36.3388 137.05 36.42 137.23 36.4755C137.405 36.5353 137.648 36.6037 137.956 36.6763C138.375 36.7746 138.716 36.8728 138.985 36.9796C139.255 37.0822 139.481 37.2445 139.673 37.4581C139.861 37.6717 139.96 37.9622 139.96 38.3254C139.96 38.6372 139.874 38.9192 139.707 39.1713C139.537 39.4233 139.28 39.6241 138.938 39.7736C138.597 39.9231 138.178 40 137.682 40C137.247 40 136.828 39.9402 136.422 39.8163" fill="white"/>
<path d="M0.265137 28.0637V0.444336H21.0021V6.01093H7.00656V12.6156H8.82222L12.3083 18.1651H7.00656V28.0637H0.265137Z" fill="#00458D"/>
<path d="M20.7369 0.71346V5.74603H6.73715V12.8848H8.67243L11.8253 17.9003H6.73715V27.7988H0.534017V0.71346H20.7369ZM21.271 0.179443H0V28.3328H7.27117V18.4343H12.7908L12.2781 17.614L9.12528 12.5985L8.96721 12.3508H7.27117V6.28005H21.271V0.179443Z" fill="white"/>
<path d="M25.8599 22.7191L39.0565 4.22077L37.2281 2.89641L45.9432 0.354492V9.2149L44.0977 7.87772L29.4827 28.2088L25.8599 22.7191Z" fill="#D42034"/>
<path d="M45.6739 0.713446V8.69379L44.0376 7.50614L29.4953 27.739L26.1844 22.7277L39.4323 4.16533L37.8302 3.00331L45.6781 0.717718M46.2079 0L45.5243 0.20079L37.6764 2.48638L36.6298 2.7897L37.5141 3.43052L38.6889 4.28068L25.7486 22.4116L25.535 22.7107L25.7358 23.0183L29.0467 28.0295L29.4739 28.6746L29.9268 28.0466L44.1573 8.24949L45.362 9.121L46.2079 9.73619V0Z" fill="white"/>
<path d="M16.8712 22.7619L27.0816 8.62964H34.4809L20.5067 28.2686L16.8712 22.7619Z" fill="#D42034"/>
<path d="M33.9638 8.89876L20.5151 27.7987L17.1956 22.7704L27.2181 8.89876H33.968M35.0019 8.36475H26.9446L26.7866 8.5869L16.7641 22.4585L16.5463 22.7576L16.7513 23.0652L20.0708 28.0935L20.498 28.7428L20.9508 28.1063L34.3995 9.20636L35.0019 8.36475Z" fill="white"/>
<path d="M8.60455 10.0737H15.9056L20.0539 16.3879L16.2474 21.6939L8.60455 10.0737Z" fill="#D42034"/>
<path d="M15.7603 10.3385L19.7291 16.3793L16.2558 21.2196L9.10002 10.3385H15.7603ZM16.0508 9.80444H8.11316L8.65572 10.6332L15.8115 21.5144L16.2388 22.1637L16.6916 21.5314L20.1648 16.6911L20.3785 16.3921L20.1777 16.0845L16.2089 10.0437L16.0508 9.80444Z" fill="white"/>
</svg>
