<svg width="74" height="73" viewBox="0 0 74 73" fill="none" xmlns="http://www.w3.org/2000/svg">
<path d="M0.736816 70.8561H3.01807V73H0.736816V70.8561Z" fill="#17498A"/>
<path d="M67.1775 70.8561V19.4073H52.2136V32.2227H54.3523V21.546H65.0388V70.8561H54.3523V34.3614H52.2136V70.8561H44.7187V38.6463H29.7549V70.8561H22.2675V60.1001H20.1289V70.8561H9.44249V49.3442H20.129V57.8868H22.2677V47.2055H7.30382V70.8561H5.15674V73H73.7368V70.8561H67.1775ZM31.8936 40.7849H42.5799V70.8561H31.8936V40.7849Z" fill="#17498A"/>
<path d="M61.4278 3.82694L62.5895 10.7652L64.6989 10.4119L62.9553 0L52.5436 1.74345L52.8967 3.85275L59.5859 2.73265C53.6327 11.438 46.3021 18.9555 37.772 25.0965C27.3798 32.5781 15.2902 37.8414 2.81018 40.3171L3.22622 42.4149C16.0046 39.88 28.3824 34.4915 39.0216 26.8322C47.7906 20.5191 55.3204 12.7854 61.4278 3.82694Z" fill="#D21F34"/>
<path d="M11.5774 51.4707H13.7161V53.6094H11.5774V51.4707Z" fill="#17498A"/>
<path d="M34.0288 42.916H36.1675V45.0547H34.0288V42.916Z" fill="#17498A"/>
<path d="M56.5258 23.668H58.6644V25.8066H56.5258V23.668Z" fill="#17498A"/>
</svg>
