<svg width="72" height="71" viewBox="0 0 72 71" fill="none" xmlns="http://www.w3.org/2000/svg">
<path d="M53.0364 46.4817L45.3965 44.8004H38.5659L30.9259 46.4817C28.0715 47.3216 26.1125 49.9414 26.1125 52.9166V67.7051C26.1125 68.9726 27.1399 70 28.4075 70H55.5521C56.8196 70 57.847 68.9726 57.847 67.7051V52.9166C57.847 49.9414 55.8881 47.323 53.0337 46.4817H53.0364Z" stroke="#17498A" stroke-width="2" stroke-linecap="round" stroke-linejoin="round"/>
<path d="M49.6836 28.0307C49.6836 26.2815 48.287 24.8529 46.5391 24.8126C44.7231 24.7709 44.5843 23.5076 42.7364 23.5076H39.5822C36.6528 23.5076 34.2773 25.883 34.2773 28.8124L34.2829 33.6007C34.2926 37.8532 37.7496 41.6572 42.002 41.6475C46.2545 41.6378 49.6948 37.8171 49.6836 33.5646V28.0321V28.0307Z" stroke="#17498A" stroke-width="2" stroke-linecap="round" stroke-linejoin="round"/>
<path d="M57.8497 63.5831C57.8497 59.2918 54.3705 55.8126 50.0792 55.8126H33.8857C29.5944 55.8126 26.1152 59.2918 26.1152 63.5831" stroke="#17498A" stroke-width="2" stroke-linecap="round" stroke-linejoin="round"/>
<path d="M45.3965 44.799V40.7756" stroke="#17498A" stroke-width="2" stroke-linecap="round" stroke-linejoin="round"/>
<path d="M38.5659 40.7728V44.799" stroke="#17498A" stroke-width="2" stroke-linecap="round" stroke-linejoin="round"/>
<path d="M61.9038 43.5384V36.8286C61.9038 34.4713 59.9935 32.5609 57.6361 32.5609H49.6837" stroke="#17498A" stroke-width="2" stroke-linecap="round" stroke-linejoin="round"/>
<path d="M57.8499 59.357C60.1073 59.2459 61.9038 57.38 61.9038 55.0948V47.7034" stroke="#17498A" stroke-width="2" stroke-linecap="round" stroke-linejoin="round"/>
<path d="M11.531 32.5624H5.63614C3.27875 32.5624 1.36841 34.4727 1.36841 36.8301V55.0964C1.36841 57.4538 3.27875 59.3641 5.63614 59.3641H26.114" stroke="#17498A" stroke-width="2" stroke-linecap="round" stroke-linejoin="round"/>
<path d="M34.2815 32.5624H15.6959" stroke="#17498A" stroke-width="2" stroke-linecap="round" stroke-linejoin="round"/>
<path d="M6.60242 59.3627V68.6367C6.60242 69.3892 7.21189 69.9987 7.96437 69.9987H10.3495C11.102 69.9987 11.7115 69.3892 11.7115 68.6367V59.3627" stroke="#17498A" stroke-width="2" stroke-linecap="round" stroke-linejoin="round"/>
<path d="M19.8387 22.6566L12.1987 24.3379C9.3457 25.1778 7.38538 27.7976 7.38538 30.7714V32.5596" stroke="#17498A" stroke-width="2" stroke-linecap="round" stroke-linejoin="round"/>
<path d="M35.8684 25.0251C35.3797 24.7307 34.8549 24.5003 34.3093 24.3392L26.6693 22.658" stroke="#17498A" stroke-width="2" stroke-linecap="round" stroke-linejoin="round"/>
<path d="M19.8387 19.6439V22.6566C19.8387 24.5433 21.3673 26.0719 23.254 26.0719C25.1408 26.0719 26.6693 24.5433 26.6693 22.6566V19.6439" stroke="#17498A" stroke-width="2" stroke-linecap="round" stroke-linejoin="round"/>
<path d="M31.8492 10.3462C31.8492 10.3462 30.1707 9.84644 28.9017 8.43867C28.1451 7.60012 26.922 7.37938 25.9377 7.93471C23.3942 9.37163 18.7392 11.3333 14.6575 9.42716V6.91845C14.6575 3.64893 17.3078 1 20.5759 1H24.0953C24.877 1 25.6364 1.25545 26.2584 1.72887C26.8581 2.18425 27.5856 2.4397 28.3395 2.45636C30.2901 2.50078 31.8492 4.09598 31.8492 6.04658V10.3462Z" stroke="#17498A" stroke-width="2" stroke-linecap="round" stroke-linejoin="round"/>
<path d="M14.6589 9.42578V12.1983C14.6589 13.1465 15.4267 13.9143 16.3749 13.9143C16.4138 15.7219 17.1732 17.4614 18.5449 18.6429C19.65 19.5939 21.2021 20.7795 23.2541 20.8018C25.3047 20.7795 26.8582 19.5939 27.9633 18.6429C29.335 17.4614 30.0944 15.7219 30.1333 13.9143C31.0815 13.9143 31.8492 13.1451 31.8492 12.1983V10.3462" stroke="#17498A" stroke-width="2" stroke-linecap="round" stroke-linejoin="round"/>
<path d="M68.0624 1.02222H50.3598C49.0895 1.02222 48.0593 2.05236 48.0593 3.32268V12.4121C48.0593 13.6824 49.0895 14.7125 50.3598 14.7125H56.6461C57.897 14.7125 58.9105 15.726 58.9105 16.9769V20.1367C58.9105 20.7462 59.6852 21.0072 60.0545 20.5227L63.8002 15.6052C64.2278 15.043 64.8942 14.7125 65.6023 14.7125H68.0638C69.3341 14.7125 70.3642 13.6824 70.3642 12.4121V3.32268C70.3642 2.05236 69.3341 1.02222 68.0638 1.02222H68.0624Z" stroke="#D21F34" stroke-width="2" stroke-linecap="round" stroke-linejoin="round"/>
</svg>
