<svg width="73" height="73" viewBox="0 0 73 73" fill="none" xmlns="http://www.w3.org/2000/svg">
<path d="M55.5832 27.9195H37.7574C36.6409 27.9195 35.7108 26.9895 35.7108 25.873C35.7108 24.7565 36.6409 23.8264 37.7574 23.8264H55.5832C56.6997 23.8264 57.6298 24.7565 57.6298 25.873C57.6298 26.9938 56.7289 27.9195 55.5832 27.9195Z" fill="#17498A" stroke="white"/>
<path d="M18.828 24.4627L18.8283 24.463L19.5748 25.2095L19.9283 25.563L20.2819 25.2095L26.1214 19.3699C26.9115 18.5798 28.2245 18.5802 29.0126 19.3696L29.0129 19.3699C29.803 20.16 29.8026 21.473 29.0132 22.2611L29.0129 22.2614L21.3733 29.901C20.9907 30.2836 20.4736 30.5006 19.9283 30.5011C19.4092 30.5007 18.8932 30.3109 18.4834 29.901L15.9368 27.3545C15.1467 26.5644 15.1471 25.2514 15.9365 24.4633C16.727 23.6741 18.0402 23.6737 18.828 24.4627Z" fill="#D21F34" stroke="white"/>
<path d="M55.5832 51.6883H37.7574C36.6409 51.6883 35.7108 50.7583 35.7108 49.6418C35.7108 48.5253 36.6409 47.5952 37.7574 47.5952H55.5832C56.6997 47.5952 57.6298 48.5253 57.6298 49.6418C57.6298 50.7626 56.7289 51.6883 55.5832 51.6883Z" fill="#17498A" stroke="white"/>
<path d="M18.828 48.2299L18.8283 48.2302L19.5748 48.9767L19.9283 49.3302L20.2819 48.9767L26.1214 43.1371C26.9115 42.347 28.2245 42.3474 29.0126 43.1368L29.0129 43.1371C29.803 43.9272 29.8026 45.2402 29.0132 46.0283L29.0129 46.0286L21.3733 53.6683C20.9907 54.0508 20.4736 54.2678 19.9283 54.2683C19.4092 54.2679 18.8932 54.0781 18.4834 53.6683L15.9368 51.1217C15.1467 50.3316 15.1471 49.0186 15.9365 48.2305C16.727 47.4413 18.0402 47.4409 18.828 48.2299Z" fill="#D21F34" stroke="white"/>
<path d="M46.1862 72.5V72.5016H26.3138C17.1527 72.5016 10.7343 70.5423 6.59659 66.4042C2.45888 62.2661 0.5 55.8473 0.5 46.6862V26.3138C0.5 17.1527 2.45889 10.7343 6.59658 6.59658C10.7343 2.45889 17.1527 0.5 26.3138 0.5H46.6862C55.8473 0.5 62.2657 2.45889 66.4034 6.59658C70.5411 10.7343 72.5 17.1527 72.5 26.3138V46.6862C72.5 55.8473 70.5411 62.2657 66.4034 66.4034C62.2657 70.5411 55.8473 72.5 46.6862 72.5H46.1862ZM26.3138 4.5931C18.4519 4.5931 12.9738 5.98642 9.47989 9.48051C5.98601 12.9746 4.5931 18.4527 4.5931 26.3138V46.6862C4.5931 54.5481 5.98642 60.0262 9.48051 63.5201C12.9746 67.014 18.4527 68.4069 26.3138 68.4069H46.6862C54.5481 68.4069 60.0262 67.0136 63.5201 63.5195C67.014 60.0254 68.4069 54.5473 68.4069 46.6862V26.3138C68.4069 18.4519 67.0136 12.9738 63.5195 9.47989C60.0254 5.98601 54.5473 4.5931 46.6862 4.5931H26.3138Z" fill="#17498A" stroke="white"/>
</svg>
