<svg width="75" height="75" viewBox="0 0 75 75" fill="none" xmlns="http://www.w3.org/2000/svg">
<path d="M1.36841 71.8561H3.64966V74H1.36841V71.8561Z" fill="white" stroke="white"/>
<path d="M67.8091 71.8561V20.4073H52.8452V33.2227H54.9839V22.546H65.6704V71.8561H54.9839V35.3614H52.8452V71.8561H45.3503V39.6463H30.3865V71.8561H22.8991V61.1001H20.7605V71.8561H10.0741V50.3442H20.7606V58.8868H22.8993V48.2055H7.93541V71.8561H5.78833V74H74.3684V71.8561H67.8091ZM32.5252 41.7849H43.2115V71.8561H32.5252V41.7849Z" fill="white" stroke="white"/>
<path d="M62.0593 4.82694L63.2211 11.7652L65.3305 11.4119L63.5869 1L53.1752 2.74345L53.5283 4.85275L60.2175 3.73265C54.2643 12.438 46.9337 19.9555 38.4036 26.0965C28.0114 33.5781 15.9218 38.8414 3.44177 41.3171L3.85782 43.4149C16.6362 40.88 29.014 35.4915 39.6532 27.8322C48.4222 21.5191 55.952 13.7854 62.0593 4.82694Z" fill="white" stroke="white"/>
<path d="M12.209 52.4707H14.3476V54.6094H12.209V52.4707Z" fill="white" stroke="white"/>
<path d="M34.6604 43.916H36.7991V46.0547H34.6604V43.916Z" fill="white" stroke="white"/>
<path d="M57.1574 24.668H59.2961V26.8066H57.1574V24.668Z" fill="white" stroke="white"/>
</svg>
