<svg width="103" height="77" viewBox="0 0 103 77" fill="none" xmlns="http://www.w3.org/2000/svg">
<path d="M100.723 26.5651L98.1094 22.1978C97.5682 21.2938 96.3703 20.984 95.4321 21.5059C94.4946 22.0279 94.1734 23.1841 94.7147 24.0883L97.3287 28.4556C97.4667 28.6859 97.4359 28.9051 97.4053 29.0154C97.3748 29.1256 97.2876 29.3305 97.0488 29.4634L90.1364 33.3128C89.7707 33.5159 89.3023 33.3947 89.0914 33.0427L75.1855 9.81112C74.9746 9.45873 75.1002 9.00652 75.4656 8.80291L82.3777 4.95367C82.7431 4.75063 83.2123 4.87124 83.423 5.22363L85.8949 9.35343C86.4362 10.2578 87.6349 10.5677 88.5722 10.0453C89.5096 9.52338 89.8309 8.36715 89.2895 7.46293L86.8176 3.33314C85.5262 1.17551 82.6557 0.433111 80.418 1.67914L73.5056 5.52857C72.4555 6.11349 71.7289 7.03397 71.3869 8.06921H51.7912C49.04 8.06921 46.4535 9.10256 44.5078 10.9791L42.5 12.9157C40.7396 12.5109 38.936 12.3028 37.1223 12.3028H31.0378C30.7338 11.1702 29.9786 10.1508 28.8477 9.52092L21.9353 5.67149C20.8515 5.06786 19.5885 4.90773 18.3802 5.22004C17.1715 5.53235 16.1611 6.28023 15.5355 7.32549L1.62977 30.5573C1.00415 31.6025 0.837752 32.8204 1.16154 33.9864C1.48532 35.1525 2.26068 36.1269 3.34454 36.7303L10.2569 40.5797C10.9929 40.9896 11.7971 41.1843 12.5914 41.1843C12.8809 41.1843 13.1688 41.1573 13.4519 41.1066L19.1095 46.5639C19.0228 46.9929 18.978 47.4328 18.978 47.8797C18.978 49.6963 19.7114 51.4043 21.0432 52.6887C22.3183 53.9185 23.9643 54.577 25.6371 54.666C25.6114 54.9031 25.5975 55.1424 25.5975 55.384C25.5975 57.2008 26.3309 58.9087 27.6627 60.1931C28.9945 61.4777 30.7652 62.1851 32.6485 62.1851C32.6996 62.1851 32.7502 62.1826 32.8012 62.1815C32.8 62.2307 32.7974 62.2794 32.7974 62.3288C32.7974 64.1455 33.5309 65.8534 34.8626 67.1378C36.1944 68.4224 37.9651 69.1298 39.8484 69.1298C39.8995 69.1298 39.9501 69.1274 40.0011 69.1263C39.9999 69.1754 39.9973 69.2242 39.9973 69.2735C39.9973 71.0901 40.7308 72.7982 42.0626 74.0826C43.3944 75.367 45.165 76.0746 47.0483 76.0746C48.9316 76.0746 50.7024 75.3672 52.034 74.0826L54.8223 71.3933C55.6398 70.6048 56.2121 69.6686 56.5435 68.6735C57.7822 69.5552 59.2541 69.9963 60.7267 69.9961C62.532 69.9959 64.3381 69.3331 65.7124 68.0073C66.5348 67.214 67.1281 66.2591 67.4625 65.2173C68.5971 65.9328 69.9224 66.3177 71.3097 66.3177C73.193 66.3177 74.9638 65.6103 76.2954 64.3257C77.285 63.371 77.9435 62.1826 78.2169 60.8895C78.9249 61.1156 79.6728 61.2349 80.4401 61.2349C82.3235 61.2349 84.0945 60.5275 85.4261 59.2427C88.1751 56.5909 88.1751 52.2762 85.4261 49.6244L80.8515 45.212L89.2015 37.1579C89.387 37.1793 89.5737 37.1914 89.7613 37.1914C90.5557 37.1914 91.36 36.9967 92.0958 36.587L99.0082 32.7378C100.092 32.1341 100.867 31.1598 101.191 29.9937C101.515 28.8276 101.349 27.6103 100.723 26.5651ZM5.3043 33.456C5.06558 33.3231 4.97856 33.1183 4.94798 33.0079C4.91741 32.8977 4.88664 32.6784 5.02462 32.4479L18.9303 9.21599C19.0681 8.98572 19.2806 8.90179 19.3948 8.87229C19.4436 8.85982 19.513 8.84715 19.595 8.84715C19.7053 8.84715 19.8384 8.87003 19.9752 8.94602L26.8876 12.7955C27.2527 12.9989 27.3785 13.4511 27.1677 13.8035L13.2619 37.0352C13.0508 37.3874 12.5824 37.5088 12.2169 37.3054L5.3043 33.456ZM22.8979 47.8795C22.8979 47.0726 23.2236 46.3144 23.8151 45.7438L25.5066 44.1123C26.1169 43.5234 26.9187 43.2291 27.7207 43.2291C28.5224 43.2291 29.3244 43.5236 29.9347 44.1123C30.5262 44.6829 30.852 45.4411 30.852 46.2478C30.852 47.0545 30.5262 47.813 29.9347 48.3833L28.2433 50.0148C27.0224 51.1926 25.036 51.1924 23.8151 50.0148C23.2236 49.4447 22.8979 48.6862 22.8979 47.8795ZM32.6487 58.4041C31.8122 58.4041 31.026 58.0899 30.4347 57.5195C29.8432 56.9492 29.5174 56.1907 29.5174 55.384C29.5174 54.5774 29.8432 53.8189 30.4347 53.2485L33.2227 50.5593C33.8331 49.9706 34.6349 49.6762 35.4367 49.6762C36.2387 49.6762 37.0406 49.9706 37.6509 50.5593C38.2424 51.1297 38.5681 51.8881 38.5681 52.6948C38.5681 53.5015 38.2424 54.2599 37.6509 54.8303L34.8628 57.5195C34.2713 58.0901 33.485 58.4041 32.6487 58.4041ZM39.8486 65.349C39.0121 65.349 38.2259 65.0348 37.6346 64.4645C37.0431 63.8941 36.7174 63.1356 36.7174 62.329C36.7174 61.5223 37.0431 60.7638 37.6346 60.1933L40.4227 57.504C41.033 56.9153 41.8348 56.621 42.6366 56.621C43.4384 56.621 44.2405 56.9153 44.8508 57.5042C45.4423 58.0746 45.7681 58.833 45.7681 59.6397C45.7681 60.4464 45.4423 61.2049 44.8508 61.7752L42.0628 64.4645C41.4714 65.0348 40.6851 65.349 39.8486 65.349ZM52.0507 68.72L49.2625 71.4094C48.6712 71.9798 47.885 72.294 47.0485 72.294C46.212 72.294 45.4258 71.9798 44.8345 71.4094C44.243 70.8389 43.9173 70.0806 43.9173 69.2739C43.9173 68.467 44.243 67.7087 44.8345 67.1382L47.6226 64.449C48.2329 63.8601 49.0347 63.5657 49.8367 63.5657C50.6384 63.5657 51.4404 63.8603 52.0507 64.4488C53.2716 65.6262 53.2716 67.5424 52.0507 68.72ZM82.6547 56.5696C82.0632 57.1401 81.277 57.4543 80.4405 57.4543C79.6042 57.4543 78.8181 57.1401 78.2266 56.5696L59.5187 38.5248C58.7534 37.7867 57.5127 37.7865 56.7468 38.5248C55.9814 39.263 55.9814 40.4601 56.7468 41.1983L73.524 57.3811C74.1155 57.9515 74.4413 58.71 74.4413 59.5167C74.4413 60.3233 74.1155 61.0818 73.524 61.6524C72.9327 62.2227 72.1466 62.5369 71.3101 62.5369C70.4735 62.5369 69.6874 62.2227 69.0961 61.6524L48.9357 42.2065C48.1704 41.4685 46.9293 41.4685 46.1638 42.2065C45.3984 42.9447 45.3984 44.1418 46.1638 44.88L62.941 61.0629C63.5325 61.6333 63.8583 62.3917 63.8583 63.1984C63.8583 64.0051 63.5325 64.7635 62.941 65.3339C61.7204 66.5115 59.7339 66.5119 58.5129 65.3339L54.8231 61.7749C54.818 61.7699 54.8123 61.7658 54.8072 61.7611C53.3956 60.4076 51.5337 59.7518 49.6842 59.7902C49.6854 59.7401 49.688 59.6902 49.688 59.6397C49.688 57.8231 48.9546 56.1151 47.6228 54.8305C46.2094 53.4673 44.3404 52.8069 42.4841 52.8453C42.4853 52.7952 42.4879 52.7453 42.4879 52.695C42.4879 50.8782 41.7545 49.1703 40.4227 47.8857C38.877 46.3949 36.7863 45.7425 34.7637 45.9279C34.6827 44.2316 33.9597 42.6477 32.7065 41.439C29.9573 38.7872 25.4838 38.7877 22.7346 41.439L21.0432 43.0705C21.0412 43.0724 21.0392 43.0744 21.0373 43.0763L16.685 38.8783L30.3289 16.0838H37.1221C37.7877 16.0838 38.4515 16.1178 39.1116 16.184L36.8712 18.345C35.5394 19.6296 34.806 21.3377 34.806 23.1543C34.806 24.971 35.5394 26.6789 36.8712 27.9635C38.2459 29.2893 40.0516 29.9523 41.857 29.9523C43.6627 29.9523 45.4684 29.2895 46.8429 27.9635L52.134 22.8599L82.6545 52.2985C83.8754 53.4759 83.8754 55.3922 82.6547 56.5696ZM63.8238 28.7877C66.6759 26.7967 68.4242 23.5836 68.4242 20.0928C68.4242 19.0487 67.5465 18.2023 66.4642 18.2023C65.382 18.2023 64.5043 19.0487 64.5043 20.0928C64.5043 22.5623 63.1519 24.8149 60.9942 26.0586L53.5291 18.8581C52.7635 18.1199 51.5247 18.1006 50.7591 18.8388L44.0711 25.2898C42.8503 26.4674 40.8638 26.4672 39.643 25.2898C39.0515 24.7194 38.7257 23.9609 38.7257 23.1543C38.7257 22.3476 39.0515 21.5891 39.643 21.0186L47.2796 13.6526C48.4846 12.4903 50.0868 11.8502 51.7912 11.8502H71.8798L85.6965 34.9336C85.7293 34.9882 85.7649 35.0402 85.7996 35.0929L78.0801 42.5389L63.8238 28.7877Z" fill="#17498A"/>
<path d="M92.0027 17.667C92.5182 17.667 93.0219 17.4647 93.3884 17.113C93.7528 16.7595 93.9627 16.2736 93.9627 15.7764C93.9627 15.2773 93.753 14.7914 93.3884 14.4379C93.0219 14.0863 92.5182 13.8859 92.0027 13.8859C91.4853 13.8859 90.9815 14.0863 90.617 14.4379C90.2505 14.7914 90.0427 15.2773 90.0427 15.7764C90.0427 16.2736 90.2505 16.7595 90.617 17.113C90.9815 17.4649 91.4853 17.667 92.0027 17.667Z" fill="#D21F34"/>
</svg>
