<svg width="77" height="77" viewBox="0 0 77 77" fill="none" xmlns="http://www.w3.org/2000/svg">
<path d="M2.85878 42.5566H20.2147C20.0647 42.3255 19.9203 42.0902 19.7871 41.8475C17.5224 37.7237 18.1962 32.8322 21.092 29.4315L27.0338 19.2969C30.3603 13.3405 36.0796 12.7966 41.6109 12.2705C42.404 12.1951 43.2241 12.1172 44.0306 12.0241C49.6244 11.3777 50.7161 10.7985 54.7782 8.64372C55.2581 8.38913 55.7779 8.11345 56.3478 7.81506C56.2663 7.27966 56.3085 6.72829 56.4784 6.19407C56.7779 5.25188 57.4366 4.48122 58.3272 4.02698L63.2205 1.50598C64.1173 1.04529 65.1478 0.949779 66.1216 1.23777C67.0967 1.5259 67.896 2.16267 68.3717 3.02986L75.8972 16.7264C76.3739 17.5923 76.4727 18.5878 76.1751 19.5299C75.8774 20.4725 75.2193 21.2455 74.3222 21.7062L69.4305 24.2264C68.8629 24.5179 68.2529 24.6561 67.6508 24.6561C66.2866 24.6559 64.9643 23.9462 64.2793 22.7024L64.2066 22.57C62.6625 23.4961 61.7581 24.3715 60.9343 25.6655C58.5123 29.4638 56.1446 30.5702 53.8547 31.64C53.0584 32.0121 52.3061 32.3636 51.5211 32.8371L41.582 38.8293C41.5087 38.8734 41.4341 38.9174 41.3591 38.961C41.0709 40.2439 40.557 41.4594 39.8441 42.5565H55.594C56.4308 42.5565 57.1091 43.2123 57.1091 44.0213V71.4583C57.1091 74.0037 54.9685 76.0746 52.3372 76.0746H6.11545C3.48423 76.0746 1.34363 74.0037 1.34363 71.4583V44.0215C1.34363 43.2124 2.02196 42.5566 2.85878 42.5566ZM22.4633 40.4738C22.8908 41.252 23.4371 41.9499 24.0883 42.5566H35.9665C36.7705 41.8098 37.4129 40.9214 37.8609 39.9417C37.739 39.9244 37.6169 39.9016 37.4946 39.8698C36.5705 39.6294 35.8259 39.0055 35.2817 38.0156C34.2599 36.1567 34.6699 33.1399 36.085 30.7154C33.4537 28.1603 29.3744 27.5254 26.0044 29.2577C21.8358 31.407 20.2473 36.4383 22.4633 40.4738ZM37.9612 28.3945L42.9755 23.3607C42.9897 23.344 43.0031 23.3279 43.0155 23.3127C42.8393 23.2467 42.5678 23.1688 42.1623 23.1029C38.1867 22.4601 37.0435 23.5416 35.1923 26.5264C36.1911 27.0073 37.1249 27.6331 37.9612 28.3945ZM66.9549 21.3269C67.1536 21.6877 67.6363 21.831 68.0073 21.6403L72.899 19.12C72.8996 19.1197 72.9002 19.1194 72.9008 19.1191C73.1458 18.9933 73.2417 18.7864 73.277 18.6744C73.3125 18.5623 73.3525 18.3392 73.2217 18.1021L65.6951 4.40344C65.5651 4.16643 65.3516 4.0737 65.236 4.03957C65.1805 4.02331 65.0989 4.00588 65.002 4.00588C64.896 4.00588 64.7717 4.02668 64.6439 4.09231L59.7464 6.6155C59.5054 6.7384 59.4101 6.94348 59.3748 7.05466C59.3388 7.16746 59.2982 7.39216 59.4295 7.63049L66.9549 21.3269ZM39.98 36.3427L49.9176 30.3514C50.8407 29.7946 51.7028 29.3919 52.5363 29.0024C54.6934 27.9945 56.3972 27.1985 58.3543 24.1292C59.5776 22.2074 60.9964 21.0218 62.7814 19.9763L57.5766 10.5035C57.096 10.7559 56.6504 10.9922 56.2355 11.2122C52.1104 13.4005 50.5667 14.2194 44.3894 14.9332C43.5514 15.0297 42.7155 15.1093 41.9072 15.1862C36.5138 15.699 32.2535 16.1042 29.6935 20.7003C29.6882 20.7096 29.6831 20.7189 29.6776 20.7281L26.6837 25.8347C28.5206 25.2971 30.434 25.2181 32.2599 25.5641C34.47 21.9318 36.5147 19.2193 42.6629 20.2136C44.5061 20.5128 45.649 21.2156 46.0597 22.3028C46.3094 22.964 46.3731 24.0189 45.2575 25.2887C45.237 25.312 45.216 25.3346 45.194 25.3566L39.6922 30.8799C37.9475 32.628 37.3943 35.6165 37.9573 36.6407C38.1226 36.9414 38.2502 37.0325 38.2817 37.0407C38.3447 37.057 38.7209 37.1001 39.98 36.3427ZM6.1156 73.1449H52.3372C53.2975 73.1449 54.0788 72.3883 54.0788 71.4583V54.1681H45.8837C45.0469 54.1681 44.3685 53.5123 44.3685 52.7033C44.3685 51.8943 45.0469 51.2385 45.8837 51.2385H54.0788V45.4862H4.37393V51.2385H32.2902C33.127 51.2385 33.8053 51.8943 33.8053 52.7033C33.8053 53.5123 33.127 54.1681 32.2902 54.1681H4.37393V71.4583C4.37393 72.3883 5.15514 73.1449 6.1156 73.1449Z" fill="#17498A"/>
<path d="M14.7612 58.4552H43.6911C44.5279 58.4552 45.2063 59.111 45.2063 59.92V67.3899C45.2063 68.1989 44.5279 68.8547 43.6911 68.8547H14.7612C13.9244 68.8547 13.2461 68.1989 13.2461 67.3899V59.92C13.2461 59.111 13.9244 58.4552 14.7612 58.4552ZM16.2764 65.925H42.176V61.3849H16.2764V65.925Z" fill="#D21F34"/>
<path d="M39.087 54.1683H39.0783C38.2415 54.1683 37.5674 53.5125 37.5674 52.7035C37.5674 51.8945 38.25 51.2386 39.0868 51.2386C39.9236 51.2386 40.602 51.8945 40.602 52.7035C40.602 53.5125 39.9238 54.1683 39.087 54.1683Z" fill="#D21F34"/>
</svg>
