<svg width="142" height="40" viewBox="0 0 142 40" fill="none" xmlns="http://www.w3.org/2000/svg">
<path d="M54.8978 3.39724V6.29415H59.9695V8.32982H54.8978V12.3229H52.3619V1.36157H60.6437V3.39724H54.8978Z" fill="#17498A"/>
<path d="M67.425 3.77124V6.02439C67.2205 6.007 67.0639 5.99395 66.8769 5.99395C65.5285 5.99395 64.6368 6.72905 64.6368 8.34279V12.3184H62.1923V3.89738H64.5237V5.01091C65.1196 4.19751 66.1201 3.77559 67.4206 3.77559L67.425 3.77124Z" fill="#17498A"/>
<path d="M76.3941 7.51619V12.3226H74.1105V11.2743C73.6581 12.0399 72.7794 12.4488 71.5441 12.4488C69.5693 12.4488 68.3949 11.3526 68.3949 9.89549C68.3949 8.43833 69.4432 7.377 72.0139 7.377H73.9539C73.9539 6.32872 73.3275 5.71976 72.0139 5.71976C71.1222 5.71976 70.1957 6.01554 69.5867 6.50271L68.7081 4.79762C69.6302 4.14081 70.9917 3.77979 72.3401 3.77979C74.9065 3.77979 76.3941 4.97161 76.3941 7.52054V7.51619ZM73.9539 9.6606V8.79936H72.2792C71.1352 8.79936 70.7742 9.22128 70.7742 9.78675C70.7742 10.3957 71.2918 10.8046 72.1531 10.8046C72.9665 10.8046 73.6711 10.4305 73.9539 9.6606Z" fill="#17498A"/>
<path d="M87.2118 7.49895V12.3228H84.7673V7.87737C84.7673 6.51591 84.1409 5.88955 83.0622 5.88955C81.8878 5.88955 81.0439 6.61161 81.0439 8.16011V12.3228H78.6037V3.89738H80.9352V4.88477C81.592 4.16271 82.5794 3.77124 83.7233 3.77124C85.7112 3.77124 87.2162 4.92827 87.2162 7.49895H87.2118Z" fill="#17498A"/>
<path d="M88.7951 8.10791C88.7951 5.57202 90.7525 3.77124 93.4928 3.77124C95.2631 3.77124 96.655 4.53679 97.264 5.91565L95.3675 6.93349C94.9152 6.13314 94.241 5.77646 93.4754 5.77646C92.2401 5.77646 91.2657 6.6377 91.2657 8.10791C91.2657 9.57811 92.2357 10.4394 93.4754 10.4394C94.241 10.4394 94.9152 10.0957 95.3675 9.28233L97.264 10.3176C96.655 11.666 95.2588 12.4446 93.4928 12.4446C90.7525 12.4446 88.7951 10.6438 88.7951 8.10791Z" fill="#17498A"/>
<path d="M107.286 7.49885V12.3227H104.841V7.87727C104.841 6.51581 104.215 5.88945 103.136 5.88945C101.962 5.88945 101.118 6.61151 101.118 8.16001V12.3227H98.6777V0.70459H101.118V4.77593C101.775 4.11912 102.714 3.77549 103.797 3.77549C105.785 3.77549 107.29 4.93252 107.29 7.5032L107.286 7.49885Z" fill="#17498A"/>
<path d="M108.865 8.10791C108.865 5.57202 110.822 3.77124 113.497 3.77124C116.172 3.77124 118.117 5.57202 118.117 8.10791C118.117 10.6438 116.177 12.4446 113.497 12.4446C110.818 12.4446 108.865 10.6438 108.865 8.10791ZM115.646 8.10791C115.646 6.65075 114.724 5.77646 113.502 5.77646C112.279 5.77646 111.34 6.6551 111.34 8.10791C111.34 9.56071 112.279 10.4394 113.502 10.4394C114.724 10.4394 115.646 9.56071 115.646 8.10791Z" fill="#17498A"/>
<path d="M119.448 1.36146C119.448 0.595911 120.057 0 120.966 0C121.875 0 122.484 0.565463 122.484 1.31361C122.484 2.12701 121.875 2.72292 120.966 2.72292C120.057 2.72292 119.448 2.12701 119.448 1.36146ZM119.748 3.89735H122.188V12.3184H119.748V3.89735Z" fill="#17498A"/>
<path d="M123.832 8.10791C123.832 5.57202 125.789 3.77124 128.53 3.77124C130.3 3.77124 131.692 4.53679 132.301 5.91565L130.405 6.93349C129.952 6.13314 129.278 5.77646 128.512 5.77646C127.277 5.77646 126.303 6.6377 126.303 8.10791C126.303 9.57811 127.273 10.4394 128.512 10.4394C129.278 10.4394 129.952 10.0957 130.405 9.28233L132.301 10.3176C131.692 11.666 130.296 12.4446 128.53 12.4446C125.789 12.4446 123.832 10.6438 123.832 8.10791Z" fill="#17498A"/>
<path d="M141.914 8.79956H135.542C135.776 9.84784 136.668 10.4916 137.951 10.4916C138.843 10.4916 139.487 10.2263 140.065 9.6782L141.366 11.0875C140.583 11.9792 139.408 12.449 137.89 12.449C134.98 12.449 133.084 10.6177 133.084 8.1123C133.084 5.60687 135.011 3.77563 137.577 3.77563C140.144 3.77563 141.962 5.43288 141.962 8.14275C141.962 8.32979 141.931 8.59512 141.914 8.79956ZM135.511 7.37285H139.661C139.487 6.30717 138.691 5.61992 137.595 5.61992C136.498 5.61992 135.685 6.29412 135.511 7.37285Z" fill="#17498A"/>
<path d="M69.8826 16.4592L66.2985 27.4205H63.5756L61.1658 19.9999L58.6778 27.4205H55.9679L52.3663 16.4592H54.9979L57.4729 24.1626L60.0566 16.4592H62.4055L64.9109 24.2235L67.4642 16.4592H69.8913H69.8826Z" fill="#17498A"/>
<path d="M70.7265 23.2058C70.7265 20.6699 72.6839 18.8691 75.3589 18.8691C78.034 18.8691 79.9783 20.6699 79.9783 23.2058C79.9783 25.7417 78.0384 27.5425 75.3589 27.5425C72.6795 27.5425 70.7265 25.7417 70.7265 23.2058ZM77.5077 23.2058C77.5077 21.7487 76.5856 20.8744 75.3633 20.8744C74.141 20.8744 73.2015 21.753 73.2015 23.2058C73.2015 24.6586 74.141 25.5373 75.3633 25.5373C76.5856 25.5373 77.5077 24.6586 77.5077 23.2058Z" fill="#17498A"/>
<path d="M86.8379 18.8691V21.1223C86.6334 21.1049 86.4768 21.0918 86.2898 21.0918C84.9414 21.0918 84.0497 21.8269 84.0497 23.4407V27.4163H81.6095V18.9953H83.9409V20.1088C84.5369 19.2954 85.5373 18.8735 86.8379 18.8735V18.8691Z" fill="#17498A"/>
<path d="M88.3559 15.8025H90.8004V27.4206H88.3559V15.8025Z" fill="#17498A"/>
<path d="M101.649 15.8025V27.4206H99.3172V26.4506C98.7082 27.1857 97.8122 27.5467 96.6856 27.5467C94.3063 27.5467 92.4751 25.8547 92.4751 23.2101C92.4751 20.5654 94.3063 18.8734 96.6856 18.8734C97.7208 18.8734 98.5951 19.204 99.2041 19.8912V15.8068H101.649V15.8025ZM99.2519 23.2057C99.2519 21.7486 98.3124 20.8743 97.1075 20.8743C95.9026 20.8743 94.9457 21.7529 94.9457 23.2057C94.9457 24.6585 95.8852 25.5372 97.1075 25.5372C98.3298 25.5372 99.2519 24.6585 99.2519 23.2057Z" fill="#17498A"/>
<path d="M4.32789 36.9812H5.33703V39.2648C5.04125 39.4997 4.69762 39.6824 4.30614 39.8042C3.91467 39.9303 3.51014 39.9912 3.09257 39.9912C2.50971 39.9912 1.97904 39.8651 1.50927 39.6085C1.03951 39.3562 0.669779 39.0039 0.404447 38.5558C0.139114 38.1078 0.00427246 37.6032 0.00427246 37.0421C0.00427246 36.481 0.139114 35.9764 0.404447 35.5284C0.674129 35.0804 1.04385 34.7281 1.51362 34.4758C1.98774 34.2192 2.51841 34.093 3.10562 34.093C3.58409 34.093 4.02341 34.1713 4.41489 34.3323C4.80636 34.4888 5.13694 34.7237 5.40662 35.0282L4.73242 35.685C4.29744 35.25 3.76678 35.0282 3.14912 35.0282C2.74459 35.0282 2.38792 35.1152 2.07039 35.2848C1.75721 35.4545 1.50927 35.6894 1.33094 35.9982C1.1526 36.307 1.0656 36.655 1.0656 37.0465C1.0656 37.438 1.1526 37.7729 1.33094 38.0774C1.50927 38.3818 1.75286 38.6254 2.07039 38.7994C2.38357 38.9734 2.74024 39.0604 3.14042 39.0604C3.58844 39.0604 3.97991 38.9604 4.31919 38.7646V36.9769L4.32789 36.9812Z" fill="#737273"/>
<path d="M13.1099 39.9173L11.9399 38.2383C11.892 38.2426 11.8181 38.247 11.718 38.247H10.4218V39.9173H9.35614V34.1843H11.7137C12.2096 34.1843 12.6445 34.267 13.0143 34.4279C13.384 34.5932 13.6667 34.8281 13.8624 35.1326C14.0582 35.437 14.1582 35.8024 14.1582 36.22C14.1582 36.6376 14.0538 37.0247 13.8407 37.3335C13.6319 37.6467 13.3274 37.8772 12.936 38.0295L14.2539 39.9129H13.1056L13.1099 39.9173ZM12.7228 35.3762C12.4836 35.1804 12.1313 35.0804 11.6658 35.0804H10.4218V37.364H11.6658C12.1313 37.364 12.4836 37.2639 12.7228 37.0638C12.9621 36.8638 13.0838 36.581 13.0838 36.2156C13.0838 35.8503 12.9621 35.5675 12.7228 35.3718V35.3762Z" fill="#737273"/>
<path d="M19.0649 39.6172C18.5951 39.3649 18.2254 39.0126 17.9601 38.5602C17.6947 38.1122 17.5599 37.6076 17.5599 37.0509C17.5599 36.4941 17.6947 35.9895 17.9601 35.5372C18.2254 35.0891 18.5951 34.7325 19.0649 34.4802C19.5346 34.2279 20.061 34.0974 20.6482 34.0974C21.2354 34.0974 21.7617 34.2236 22.2315 34.4802C22.7012 34.7325 23.071 35.0848 23.3363 35.5328C23.606 35.9808 23.7365 36.4854 23.7365 37.0465C23.7365 37.6076 23.6016 38.1122 23.3363 38.5602C23.0666 39.0082 22.7012 39.3606 22.2315 39.6129C21.7617 39.8651 21.2354 39.9956 20.6482 39.9956C20.061 39.9956 19.539 39.8695 19.0649 39.6129M21.6791 38.8038C21.9835 38.6298 22.2228 38.3906 22.4011 38.0818C22.5751 37.7729 22.6621 37.4249 22.6621 37.0465C22.6621 36.6681 22.5751 36.3201 22.4011 36.0113C22.2271 35.7025 21.9879 35.4632 21.6791 35.2892C21.3746 35.1152 21.0266 35.0326 20.6438 35.0326C20.2611 35.0326 19.9174 35.1196 19.6129 35.2892C19.3085 35.4632 19.0649 35.7025 18.8909 36.0113C18.7169 36.3201 18.6299 36.6637 18.6299 37.0465C18.6299 37.4293 18.7169 37.7729 18.8909 38.0818C19.0649 38.3906 19.3085 38.6298 19.6129 38.8038C19.9174 38.9778 20.2611 39.0604 20.6438 39.0604C21.0266 39.0604 21.3702 38.9734 21.6791 38.8038Z" fill="#737273"/>
<path d="M35.6895 34.1799L33.7887 39.9172H32.6577L31.2397 35.6719L29.7956 39.9172H28.656L26.7595 34.1799H27.8643L29.2911 38.5383L30.7743 34.1799H31.753L33.2058 38.5644L34.6717 34.1799H35.6895Z" fill="#737273"/>
<path d="M48.9996 37.4553C49.1867 37.6989 49.278 37.999 49.278 38.3601C49.278 38.8559 49.0866 39.243 48.7039 39.5127C48.3211 39.7824 47.7643 39.9173 47.0336 39.9173H44.1845V34.1843H46.8726C47.5512 34.1843 48.0732 34.3148 48.4385 34.5802C48.8039 34.8455 48.9866 35.2109 48.9866 35.6719C48.9866 35.9547 48.9214 36.2069 48.7909 36.4244C48.6604 36.6419 48.4777 36.8116 48.2515 36.9334C48.569 37.0377 48.8213 37.2117 49.004 37.4553M45.2502 35.0151V36.5984H46.7552C47.1249 36.5984 47.412 36.5332 47.6121 36.3983C47.8122 36.2635 47.9122 36.0721 47.9122 35.8111C47.9122 35.5501 47.8122 35.3501 47.6121 35.2196C47.412 35.0847 47.1293 35.0195 46.7552 35.0195H45.2502V35.0151ZM48.208 38.2513C48.208 37.6989 47.7948 37.4249 46.9727 37.4249H45.2502V39.0778H46.9727C47.7991 39.0778 48.208 38.8037 48.208 38.2513Z" fill="#737273"/>
<path d="M57.3423 39.0212V39.9172H53.0405V34.1799H57.2249V35.076H54.1061V36.5636H56.8726V37.4422H54.1061V39.0212H57.3423Z" fill="#737273"/>
<path d="M63.5582 37.8946V39.9172H62.4925V37.9076L60.2394 34.1799H61.379L63.058 36.9768L64.7544 34.1799H65.8027L63.5582 37.8946Z" fill="#737273"/>
<path d="M69.974 39.6172C69.5042 39.3649 69.1345 39.0126 68.8692 38.5602C68.6038 38.1122 68.469 37.6076 68.469 37.0509C68.469 36.4941 68.6038 35.9895 68.8692 35.5372C69.1388 35.0891 69.5042 34.7325 69.974 34.4802C70.4438 34.2279 70.9701 34.0974 71.5573 34.0974C72.1445 34.0974 72.6665 34.2236 73.1406 34.4802C73.6104 34.7325 73.9801 35.0848 74.2454 35.5328C74.5108 35.9808 74.6456 36.4854 74.6456 37.0465C74.6456 37.6076 74.5108 38.1122 74.2454 38.5602C73.9801 39.0082 73.6104 39.3606 73.1406 39.6129C72.6708 39.8651 72.1445 39.9956 71.5573 39.9956C70.9701 39.9956 70.4438 39.8695 69.974 39.6129M72.5882 38.8038C72.8927 38.6298 73.1362 38.3906 73.3102 38.0818C73.4842 37.7729 73.5712 37.4249 73.5712 37.0465C73.5712 36.6681 73.4842 36.3201 73.3102 36.0113C73.1362 35.7025 72.8927 35.4632 72.5882 35.2892C72.2837 35.1152 71.9401 35.0326 71.5573 35.0326C71.1745 35.0326 70.8309 35.1196 70.5264 35.2892C70.2219 35.4589 69.9827 35.7025 69.8044 36.0113C69.6304 36.3201 69.5434 36.6637 69.5434 37.0465C69.5434 37.4293 69.6304 37.7729 69.8044 38.0818C69.9783 38.3906 70.2176 38.6298 70.5264 38.8038C70.8309 38.9778 71.1745 39.0604 71.5573 39.0604C71.9401 39.0604 72.2837 38.9734 72.5882 38.8038Z" fill="#737273"/>
<path d="M83.4929 34.1799V39.9172H82.6142L79.452 36.0329V39.9172H78.395V34.1799H79.2736L82.4359 38.0642V34.1799H83.4929Z" fill="#737273"/>
<path d="M87.6555 34.1799H90.161C90.7743 34.1799 91.318 34.2974 91.7921 34.5366C92.2662 34.7758 92.636 35.1108 92.897 35.5457C93.1579 35.9807 93.2884 36.4809 93.2884 37.0507C93.2884 37.6206 93.1579 38.1208 92.897 38.5557C92.636 38.9907 92.2662 39.3256 91.7921 39.5649C91.318 39.8041 90.7743 39.9216 90.161 39.9216H87.6555V34.1886V34.1799ZM90.1131 39.0168C90.5351 39.0168 90.9048 38.9342 91.2223 38.7732C91.5398 38.6123 91.7878 38.3818 91.9618 38.086C92.1358 37.7902 92.2184 37.4422 92.2184 37.0507C92.2184 36.6593 92.1314 36.3113 91.9618 36.0155C91.7878 35.7154 91.5442 35.4892 91.2223 35.3283C90.9048 35.1673 90.5351 35.089 90.1131 35.089H88.7212V39.0212H90.1131V39.0168Z" fill="#737273"/>
<path d="M101.927 34.1799H102.988V39.0168H105.99V39.9172H101.927V34.1799Z" fill="#737273"/>
<path d="M110.522 34.1799H109.456V39.9129H110.522V34.1799Z" fill="#737273"/>
<path d="M119.956 39.9172L119.948 36.1156L118.064 39.2604H117.59L115.702 36.1634V39.9172H114.689V34.1799H115.563L117.843 37.9816L120.078 34.1799H120.957L120.966 39.9172H119.956Z" fill="#737273"/>
<path d="M126.198 34.1799H125.133V39.9129H126.198V34.1799Z" fill="#737273"/>
<path d="M131.531 35.0803H129.63V34.1799H134.498V35.0803H132.597V39.9172H131.531V35.0803Z" fill="#737273"/>
<path d="M138.36 39.8086C137.947 39.6825 137.621 39.5172 137.381 39.3084L137.751 38.482C137.986 38.669 138.273 38.8212 138.617 38.9387C138.96 39.0561 139.3 39.117 139.643 39.117C140.07 39.117 140.387 39.0474 140.6 38.9126C140.809 38.7778 140.918 38.5951 140.918 38.3732C140.918 38.2079 140.861 38.0731 140.739 37.9687C140.622 37.86 140.474 37.7773 140.291 37.7164C140.113 37.6555 139.865 37.5903 139.552 37.512C139.117 37.4076 138.76 37.3032 138.491 37.1988C138.221 37.0944 137.986 36.9335 137.795 36.7116C137.599 36.4898 137.503 36.194 137.503 35.8156C137.503 35.4981 137.59 35.211 137.76 34.95C137.93 34.689 138.191 34.4846 138.538 34.3323C138.886 34.1801 139.308 34.1018 139.813 34.1018C140.161 34.1018 140.505 34.1453 140.844 34.2323C141.183 34.3193 141.475 34.4454 141.722 34.6107L141.388 35.4372C141.135 35.2893 140.874 35.1762 140.6 35.1022C140.326 35.0239 140.061 34.9891 139.804 34.9891C139.382 34.9891 139.069 35.0587 138.865 35.2023C138.66 35.3458 138.556 35.5329 138.556 35.7677C138.556 35.933 138.612 36.0679 138.73 36.1679C138.847 36.2723 138.995 36.355 139.178 36.4115C139.356 36.4724 139.604 36.542 139.917 36.6159C140.344 36.716 140.692 36.816 140.966 36.9248C141.24 37.0292 141.47 37.1945 141.666 37.4119C141.857 37.6294 141.957 37.9252 141.957 38.2949C141.957 38.6125 141.87 38.8995 141.701 39.1562C141.527 39.4128 141.266 39.6172 140.918 39.7695C140.57 39.9217 140.144 40 139.639 40C139.195 40 138.769 39.9391 138.356 39.813" fill="#737273"/>
<path d="M6.31579 5.12397V12.3923H8.28621L11.4963 17.4989H6.31579V27.5772H0V0H20.5698V5.12397H6.31579Z" fill="#17498A"/>
<path d="M45.9591 0L37.9687 2.3271L39.5998 3.51457L26.1157 22.4141L29.4824 27.5163L44.2932 6.91605L45.9591 8.12527V0Z" fill="#D21F34"/>
<path d="M27.1683 8.33398L16.9639 22.4575L20.3436 27.5771L34.0365 8.33398H27.1683Z" fill="#D21F34"/>
<path d="M15.5023 9.8042H8.72107L16.0068 20.8829L19.5432 15.9547L15.5023 9.8042Z" fill="#D21F34"/>
</svg>
