<svg width="142" height="40" viewBox="0 0 142 40" fill="none" xmlns="http://www.w3.org/2000/svg">
<path d="M54.9125 3.62786V6.4906H59.9857V8.50225H54.9125V12.4482H52.376V1.61621H60.6601V3.62786H54.9125Z" fill="white"/>
<path d="M67.4431 3.99756V6.22413C67.2386 6.20694 67.082 6.19404 66.8949 6.19404C65.5461 6.19404 64.6542 6.92047 64.6542 8.51518V12.4439H62.209V4.12221H64.5411V5.2226C65.1371 4.4188 66.1378 4.00186 67.4388 4.00186L67.4431 3.99756Z" fill="white"/>
<path d="M76.4146 7.69843V12.4482H74.1304V11.4123C73.6779 12.1688 72.799 12.5728 71.5634 12.5728C69.5881 12.5728 68.4133 11.4896 68.4133 10.0497C68.4133 8.6097 69.4619 7.56088 72.0333 7.56088H73.9738C73.9738 6.52497 73.3472 5.92319 72.0333 5.92319C71.1413 5.92319 70.2146 6.21548 69.6055 6.6969L68.7266 5.01193C69.649 4.36287 71.0108 4.0061 72.3596 4.0061C74.9266 4.0061 76.4146 5.18387 76.4146 7.70273V7.69843ZM73.9738 9.81755V8.96646H72.2987C71.1544 8.96646 70.7933 9.38341 70.7933 9.9422C70.7933 10.544 71.311 10.948 72.1725 10.948C72.9861 10.948 73.691 10.5784 73.9738 9.81755Z" fill="white"/>
<path d="M87.2354 7.68129V12.4482H84.7902V8.05525C84.7902 6.70985 84.1637 6.09088 83.0847 6.09088C81.9099 6.09088 81.0659 6.80442 81.0659 8.33465V12.4482H78.625V4.12221H80.9571V5.09795C81.6141 4.38441 82.6017 3.99756 83.746 3.99756C85.7344 3.99756 87.2398 5.14093 87.2398 7.68129H87.2354Z" fill="white"/>
<path d="M88.8191 8.28307C88.8191 5.7771 90.777 3.99756 93.5181 3.99756C95.2889 3.99756 96.6812 4.75408 97.2903 6.11667L95.3933 7.1225C94.9408 6.33159 94.2664 5.97912 93.5007 5.97912C92.265 5.97912 91.2904 6.83021 91.2904 8.28307C91.2904 9.73593 92.2606 10.587 93.5007 10.587C94.2664 10.587 94.9408 10.2474 95.3933 9.44364L97.2903 10.4667C96.6812 11.7992 95.2845 12.5686 93.5181 12.5686C90.777 12.5686 88.8191 10.789 88.8191 8.28307Z" fill="white"/>
<path d="M107.315 7.68115V12.4481H104.87V8.05511C104.87 6.70971 104.243 6.09074 103.164 6.09074C101.989 6.09074 101.145 6.80427 101.145 8.33451V12.4481H98.7043V0.967041H101.145V4.99035C101.802 4.34129 102.742 4.00171 103.825 4.00171C105.814 4.00171 107.319 5.14509 107.319 7.68545L107.315 7.68115Z" fill="white"/>
<path d="M108.894 8.28307C108.894 5.7771 110.852 3.99756 113.528 3.99756C116.204 3.99756 118.148 5.7771 118.148 8.28307C118.148 10.789 116.208 12.5686 113.528 12.5686C110.848 12.5686 108.894 10.789 108.894 8.28307ZM115.677 8.28307C115.677 6.8431 114.755 5.97912 113.532 5.97912C112.309 5.97912 111.37 6.8474 111.37 8.28307C111.37 9.71874 112.309 10.587 113.532 10.587C114.755 10.587 115.677 9.71874 115.677 8.28307Z" fill="white"/>
<path d="M119.48 1.61615C119.48 0.859633 120.089 0.270752 120.998 0.270752C121.908 0.270752 122.517 0.829545 122.517 1.56887C122.517 2.37267 121.908 2.96155 120.998 2.96155C120.089 2.96155 119.48 2.37267 119.48 1.61615ZM119.78 4.12212H122.221V12.4438H119.78V4.12212Z" fill="white"/>
<path d="M123.865 8.28307C123.865 5.7771 125.823 3.99756 128.564 3.99756C130.335 3.99756 131.728 4.75408 132.337 6.11667L130.44 7.1225C129.987 6.33159 129.313 5.97912 128.547 5.97912C127.311 5.97912 126.337 6.83021 126.337 8.28307C126.337 9.73593 127.307 10.587 128.547 10.587C129.313 10.587 129.987 10.2474 130.44 9.44364L132.337 10.4667C131.728 11.7992 130.331 12.5686 128.564 12.5686C125.823 12.5686 123.865 10.789 123.865 8.28307Z" fill="white"/>
<path d="M141.952 8.96637H135.578C135.813 10.0023 136.705 10.6384 137.989 10.6384C138.88 10.6384 139.524 10.3762 140.103 9.83464L141.404 11.2273C140.621 12.1085 139.446 12.5727 137.928 12.5727C135.017 12.5727 133.12 10.7631 133.12 8.28722C133.12 5.81134 135.047 4.00171 137.614 4.00171C140.181 4.00171 142 5.6394 142 8.31731C142 8.50214 141.97 8.76434 141.952 8.96637ZM135.548 7.55649H139.698C139.524 6.50338 138.728 5.82423 137.632 5.82423C136.535 5.82423 135.722 6.49049 135.548 7.55649Z" fill="white"/>
<path d="M69.9014 16.5361L66.3163 27.3681H63.5926L61.1822 20.035L58.6935 27.3681H55.9829L52.3804 16.5361H55.0127L57.4883 24.1486L60.0728 16.5361H62.4222L64.9283 24.2088L67.4823 16.5361H69.9101H69.9014Z" fill="white"/>
<path d="M70.7456 23.2027C70.7456 20.6968 72.7035 18.9172 75.3793 18.9172C78.0551 18.9172 80 20.6968 80 23.2027C80 25.7087 78.0595 27.4883 75.3793 27.4883C72.6992 27.4883 70.7456 25.7087 70.7456 23.2027ZM77.5286 23.2027C77.5286 21.7628 76.6063 20.8988 75.3837 20.8988C74.1611 20.8988 73.2213 21.7671 73.2213 23.2027C73.2213 24.6384 74.1611 25.5067 75.3837 25.5067C76.6063 25.5067 77.5286 24.6384 77.5286 23.2027Z" fill="white"/>
<path d="M86.8611 18.9172V21.1438C86.6566 21.1266 86.5 21.1137 86.3129 21.1137C84.9641 21.1137 84.0722 21.8402 84.0722 23.4349V27.3636H81.6313V19.0419H83.9634V20.1423C84.5595 19.3385 85.5602 18.9215 86.8611 18.9215V18.9172Z" fill="white"/>
<path d="M88.3796 15.887H90.8248V27.368H88.3796V15.887Z" fill="white"/>
<path d="M101.676 15.887V27.368H99.3439V26.4095C98.7348 27.1359 97.8385 27.4927 96.7117 27.4927C94.3317 27.4927 92.5 25.8206 92.5 23.2071C92.5 20.5937 94.3317 18.9216 96.7117 18.9216C97.7472 18.9216 98.6217 19.2483 99.2308 19.9275V15.8913H101.676V15.887ZM99.2787 23.2028C99.2787 21.7629 98.3389 20.8989 97.1337 20.8989C95.9285 20.8989 94.9713 21.7672 94.9713 23.2028C94.9713 24.6385 95.9111 25.5068 97.1337 25.5068C98.3563 25.5068 99.2787 24.6385 99.2787 23.2028Z" fill="white"/>
<path d="M4.32894 36.8158H5.33834V39.0725C5.04248 39.3046 4.69876 39.4851 4.30718 39.6055C3.9156 39.7301 3.51097 39.7903 3.09328 39.7903C2.51026 39.7903 1.97946 39.6657 1.50956 39.412C1.03966 39.1627 0.669837 38.8146 0.404432 38.3718C0.139028 37.9291 0.00415039 37.4305 0.00415039 36.876C0.00415039 36.3215 0.139028 35.8229 0.404432 35.3801C0.674188 34.9374 1.04401 34.5892 1.51391 34.3399C1.98816 34.0863 2.51897 33.9617 3.10634 33.9617C3.58493 33.9617 4.02437 34.039 4.41595 34.1981C4.80753 34.3528 5.1382 34.5849 5.40796 34.8858L4.73357 35.5349C4.29848 35.105 3.76767 34.8858 3.14984 34.8858C2.74521 34.8858 2.38844 34.9718 2.07082 35.1394C1.75756 35.3071 1.50956 35.5392 1.33117 35.8444C1.15279 36.1496 1.06577 36.4934 1.06577 36.8803C1.06577 37.2671 1.15279 37.5981 1.33117 37.899C1.50956 38.1999 1.75321 38.4406 2.07082 38.6125C2.38409 38.7845 2.74086 38.8704 3.14114 38.8704C3.58928 38.8704 3.98087 38.7716 4.32023 38.5782V36.8115L4.32894 36.8158Z" fill="white"/>
<path d="M13.1135 39.7173L11.9431 38.0581C11.8952 38.0624 11.8212 38.0667 11.7212 38.0667H10.4246V39.7173H9.35864V34.052H11.7168C12.2128 34.052 12.6479 34.1337 13.0177 34.2927C13.3876 34.4561 13.6704 34.6882 13.8662 34.9891C14.062 35.2899 14.162 35.651 14.162 36.0637C14.162 36.4763 14.0576 36.8589 13.8444 37.164C13.6356 37.4735 13.331 37.7013 12.9394 37.8518L14.2577 39.713H13.1091L13.1135 39.7173ZM12.7262 35.2298C12.4869 35.0363 12.1345 34.9375 11.669 34.9375H10.4246V37.1941H11.669C12.1345 37.1941 12.4869 37.0953 12.7262 36.8975C12.9655 36.6998 13.0874 36.4204 13.0874 36.0594C13.0874 35.6983 12.9655 35.4189 12.7262 35.2255V35.2298Z" fill="white"/>
<path d="M19.0699 39.4207C18.6 39.1714 18.2301 38.8233 17.9647 38.3762C17.6993 37.9335 17.5645 37.4349 17.5645 36.8847C17.5645 36.3345 17.6993 35.8359 17.9647 35.3888C18.2301 34.9461 18.6 34.5936 19.0699 34.3443C19.5398 34.095 20.0662 33.9661 20.6536 33.9661C21.241 33.9661 21.7674 34.0907 22.2373 34.3443C22.7072 34.5936 23.077 34.9418 23.3424 35.3845C23.6122 35.8273 23.7427 36.3259 23.7427 36.8804C23.7427 37.4349 23.6078 37.9335 23.3424 38.3762C23.0727 38.819 22.7072 39.1671 22.2373 39.4164C21.7674 39.6657 21.241 39.7947 20.6536 39.7947C20.0662 39.7947 19.5441 39.67 19.0699 39.4164M21.6847 38.6169C21.9893 38.445 22.2286 38.2086 22.407 37.9034C22.581 37.5982 22.668 37.2543 22.668 36.8804C22.668 36.5064 22.581 36.1625 22.407 35.8574C22.233 35.5522 21.9937 35.3158 21.6847 35.1438C21.3802 34.9719 21.0321 34.8902 20.6492 34.8902C20.2664 34.8902 19.9226 34.9762 19.6181 35.1438C19.3135 35.3158 19.0699 35.5522 18.8958 35.8574C18.7218 36.1625 18.6348 36.5021 18.6348 36.8804C18.6348 37.2586 18.7218 37.5982 18.8958 37.9034C19.0699 38.2086 19.3135 38.445 19.6181 38.6169C19.9226 38.7889 20.2664 38.8705 20.6492 38.8705C21.0321 38.8705 21.3758 38.7846 21.6847 38.6169Z" fill="white"/>
<path d="M35.699 34.0476L33.7976 39.7172H32.6664L31.248 35.522L29.8035 39.7172H28.6636L26.7666 34.0476H27.8717L29.2988 38.3546L30.7825 34.0476H31.7614L33.2146 38.3804L34.6809 34.0476H35.699Z" fill="white"/>
<path d="M49.0127 37.2844C49.1998 37.5251 49.2912 37.8217 49.2912 38.1785C49.2912 38.6685 49.0997 39.051 48.7169 39.3175C48.334 39.584 47.7771 39.7173 47.0461 39.7173H44.1963V34.052H46.8851C47.5639 34.052 48.086 34.181 48.4515 34.4432C48.8169 34.7054 48.9997 35.0664 48.9997 35.5221C48.9997 35.8015 48.9344 36.0508 48.8039 36.2657C48.6734 36.4806 48.4906 36.6482 48.2644 36.7686C48.582 36.8718 48.8343 37.0437 49.0171 37.2844M45.2623 34.873V36.4376H46.7677C47.1375 36.4376 47.4246 36.3731 47.6248 36.2399C47.8249 36.1066 47.925 35.9175 47.925 35.6596C47.925 35.4017 47.8249 35.204 47.6248 35.075C47.4246 34.9418 47.1418 34.8773 46.7677 34.8773H45.2623V34.873ZM48.2209 38.071C48.2209 37.5251 47.8075 37.2543 46.9852 37.2543H45.2623V38.8877H46.9852C47.8119 38.8877 48.2209 38.6169 48.2209 38.071Z" fill="white"/>
<path d="M57.3577 38.8317V39.7172H53.0547V34.0476H57.2402V34.9331H54.1207V36.4031H56.8878V37.2714H54.1207V38.8317H57.3577Z" fill="white"/>
<path d="M63.5753 37.7184V39.7172H62.5094V37.7313L60.2556 34.0476H61.3955L63.075 36.8115L64.7718 34.0476H65.8204L63.5753 37.7184Z" fill="white"/>
<path d="M69.9927 39.4207C69.5228 39.1714 69.153 38.8233 68.8876 38.3762C68.6222 37.9335 68.4873 37.4349 68.4873 36.8847C68.4873 36.3345 68.6222 35.8359 68.8876 35.3888C69.1573 34.9461 69.5228 34.5936 69.9927 34.3443C70.4626 34.095 70.9891 33.9661 71.5764 33.9661C72.1638 33.9661 72.6859 34.0907 73.1602 34.3443C73.6301 34.5936 73.9999 34.9418 74.2653 35.3845C74.5307 35.8273 74.6656 36.3259 74.6656 36.8804C74.6656 37.4349 74.5307 37.9335 74.2653 38.3762C73.9999 38.819 73.6301 39.1671 73.1602 39.4164C72.6903 39.6657 72.1638 39.7947 71.5764 39.7947C70.9891 39.7947 70.4626 39.67 69.9927 39.4164M72.6076 38.6169C72.9122 38.445 73.1558 38.2086 73.3298 37.9034C73.5039 37.5982 73.5909 37.2543 73.5909 36.8804C73.5909 36.5064 73.5039 36.1625 73.3298 35.8574C73.1558 35.5522 72.9122 35.3158 72.6076 35.1438C72.303 34.9719 71.9593 34.8902 71.5764 34.8902C71.1936 34.8902 70.8498 34.9762 70.5453 35.1438C70.2407 35.3115 70.0014 35.5522 69.823 35.8574C69.649 36.1625 69.562 36.5021 69.562 36.8804C69.562 37.2586 69.649 37.5982 69.823 37.9034C69.9971 38.2086 70.2364 38.445 70.5453 38.6169C70.8498 38.7889 71.1936 38.8705 71.5764 38.8705C71.9593 38.8705 72.303 38.7846 72.6076 38.6169Z" fill="white"/>
<path d="M83.5153 34.0476V39.7172H82.6364L79.4733 35.8787V39.7172H78.416V34.0476H79.2949L82.458 37.8861V34.0476H83.5153Z" fill="white"/>
<path d="M87.6792 34.0476H90.1853C90.7988 34.0476 91.3426 34.1637 91.8169 34.4001C92.2911 34.6365 92.661 34.9675 92.922 35.3973C93.1831 35.8271 93.3136 36.3215 93.3136 36.8846C93.3136 37.4476 93.1831 37.942 92.922 38.3718C92.661 38.8016 92.2911 39.1326 91.8169 39.369C91.3426 39.6054 90.7988 39.7215 90.1853 39.7215H87.6792V34.0562V34.0476ZM90.1375 38.8274C90.5595 38.8274 90.9293 38.7458 91.2469 38.5867C91.5645 38.4277 91.8125 38.1999 91.9866 37.9076C92.1606 37.6153 92.2433 37.2714 92.2433 36.8846C92.2433 36.4977 92.1563 36.1538 91.9866 35.8615C91.8125 35.5649 91.5689 35.3414 91.2469 35.1824C90.9293 35.0233 90.5595 34.946 90.1375 34.946H88.7452V38.8317H90.1375V38.8274Z" fill="white"/>
<path d="M101.954 34.0476H103.016V38.8274H106.018V39.7172H101.954V34.0476Z" fill="white"/>
<path d="M110.552 34.0476H109.486V39.7129H110.552V34.0476Z" fill="white"/>
<path d="M119.989 39.7172L119.98 35.9604L118.096 39.0681H117.622L115.733 36.0077V39.7172H114.72V34.0476H115.594L117.874 37.8044L120.11 34.0476H120.989L120.998 39.7172H119.989Z" fill="white"/>
<path d="M126.232 34.0476H125.167V39.7129H126.232V34.0476Z" fill="white"/>
<path d="M131.567 34.9374H129.665V34.0476H134.534V34.9374H132.633V39.7172H131.567V34.9374Z" fill="white"/>
<path d="M138.397 39.6097C137.984 39.4851 137.658 39.3217 137.418 39.1154L137.788 38.2987C138.023 38.4835 138.31 38.634 138.654 38.75C138.998 38.8661 139.337 38.9263 139.681 38.9263C140.107 38.9263 140.425 38.8575 140.638 38.7242C140.847 38.591 140.956 38.4105 140.956 38.1912C140.956 38.0279 140.899 37.8947 140.777 37.7915C140.66 37.684 140.512 37.6024 140.329 37.5422C140.151 37.482 139.903 37.4175 139.59 37.3402C139.154 37.237 138.798 37.1338 138.528 37.0307C138.258 36.9275 138.023 36.7685 137.832 36.5493C137.636 36.33 137.54 36.0377 137.54 35.6638C137.54 35.35 137.627 35.0663 137.797 34.8084C137.967 34.5505 138.228 34.3485 138.576 34.198C138.924 34.0476 139.346 33.9702 139.851 33.9702C140.199 33.9702 140.542 34.0132 140.882 34.0992C141.221 34.1851 141.513 34.3098 141.761 34.4731L141.426 35.2898C141.173 35.1437 140.912 35.0319 140.638 34.9588C140.364 34.8815 140.099 34.8471 139.842 34.8471C139.42 34.8471 139.107 34.9159 138.902 35.0577C138.698 35.1996 138.593 35.3844 138.593 35.6165C138.593 35.7798 138.65 35.9131 138.767 36.012C138.885 36.1151 139.033 36.1968 139.215 36.2527C139.394 36.3128 139.642 36.3816 139.955 36.4547C140.381 36.5536 140.729 36.6524 141.004 36.7599C141.278 36.863 141.508 37.0264 141.704 37.2413C141.896 37.4562 141.996 37.7485 141.996 38.1139C141.996 38.4277 141.909 38.7114 141.739 38.965C141.565 39.2186 141.304 39.4206 140.956 39.571C140.608 39.7215 140.181 39.7989 139.677 39.7989C139.233 39.7989 138.806 39.7387 138.393 39.614" fill="white"/>
<path d="M6.31749 5.33427V12.5169H8.28845L11.4994 17.5632H6.31749V27.5226H0V0.270752H20.5754V5.33427H6.31749Z" fill="white"/>
<path d="M45.9716 0.270752L37.979 2.5704L39.6106 3.74386L26.1228 22.4204L29.4904 27.4625L44.3052 7.10522L45.9716 8.30017V0.270752Z" fill="white"/>
<path d="M27.1757 8.50659L16.9685 22.4635L20.3491 27.5227L34.0458 8.50659H27.1757Z" fill="white"/>
<path d="M15.5064 9.95947H8.72339L16.0111 20.9075L19.5484 16.0374L15.5064 9.95947Z" fill="white"/>
</svg>
