<svg width="71" height="71" viewBox="0 0 71 71" fill="none" xmlns="http://www.w3.org/2000/svg">
<path d="M52.6681 46.4817L45.0281 44.8004H38.1975L30.5575 46.4817C27.7031 47.3216 25.7442 49.9414 25.7442 52.9166V67.7051C25.7442 68.9726 26.7716 70 28.0391 70H55.1837C56.4513 70 57.4787 68.9726 57.4787 67.7051V52.9166C57.4787 49.9414 55.5197 47.323 52.6653 46.4817H52.6681Z" stroke="white" stroke-width="2" stroke-linecap="round" stroke-linejoin="round"/>
<path d="M49.3153 28.0307C49.3153 26.2815 47.9186 24.8529 46.1707 24.8126C44.3548 24.7709 44.2159 23.5076 42.3681 23.5076H39.2138C36.2844 23.5076 33.909 25.883 33.909 28.8124L33.9145 33.6007C33.9243 37.8532 37.3812 41.6572 41.6337 41.6475C45.8861 41.6378 49.3264 37.8171 49.3153 33.5646V28.0321V28.0307Z" stroke="white" stroke-width="2" stroke-linecap="round" stroke-linejoin="round"/>
<path d="M57.4814 63.5831C57.4814 59.2918 54.0023 55.8126 49.711 55.8126H33.5175C29.2261 55.8126 25.747 59.2918 25.747 63.5831" stroke="white" stroke-width="2" stroke-linecap="round" stroke-linejoin="round"/>
<path d="M45.0281 44.799V40.7756" stroke="white" stroke-width="2" stroke-linecap="round" stroke-linejoin="round"/>
<path d="M38.1975 40.7728V44.799" stroke="white" stroke-width="2" stroke-linecap="round" stroke-linejoin="round"/>
<path d="M61.5354 43.5384V36.8286C61.5354 34.4713 59.625 32.5609 57.2676 32.5609H49.3153" stroke="white" stroke-width="2" stroke-linecap="round" stroke-linejoin="round"/>
<path d="M57.4814 59.357C59.7389 59.2459 61.5354 57.38 61.5354 55.0948V47.7034" stroke="white" stroke-width="2" stroke-linecap="round" stroke-linejoin="round"/>
<path d="M11.1626 32.5624H5.26773C2.91034 32.5624 1 34.4727 1 36.8301V55.0964C1 57.4538 2.91034 59.3641 5.26773 59.3641H25.7456" stroke="white" stroke-width="2" stroke-linecap="round" stroke-linejoin="round"/>
<path d="M33.9131 32.5624H15.3276" stroke="white" stroke-width="2" stroke-linecap="round" stroke-linejoin="round"/>
<path d="M6.23399 59.3627V68.6367C6.23399 69.3892 6.84347 69.9987 7.59595 69.9987H9.9811C10.7336 69.9987 11.343 69.3892 11.343 68.6367V59.3627" stroke="white" stroke-width="2" stroke-linecap="round" stroke-linejoin="round"/>
<path d="M19.4703 22.6566L11.8304 24.3379C8.97735 25.1778 7.01703 27.7976 7.01703 30.7714V32.5596" stroke="white" stroke-width="2" stroke-linecap="round" stroke-linejoin="round"/>
<path d="M35.5 25.0251C35.0113 24.7307 34.4865 24.5003 33.9409 24.3392L26.3009 22.658" stroke="white" stroke-width="2" stroke-linecap="round" stroke-linejoin="round"/>
<path d="M19.4703 19.6438V22.6565C19.4703 24.5432 20.9989 26.0718 22.8856 26.0718C24.7724 26.0718 26.3009 24.5432 26.3009 22.6565V19.6438" stroke="white" stroke-width="2" stroke-linecap="round" stroke-linejoin="round"/>
<path d="M31.4808 10.3462C31.4808 10.3462 29.8023 9.84644 28.5334 8.43867C27.7767 7.60012 26.5536 7.37938 25.5693 7.93471C23.0259 9.37163 18.3708 11.3333 14.2891 9.42716V6.91845C14.2891 3.64893 16.9394 1 20.2075 1H23.727C24.5086 1 25.268 1.25545 25.89 1.72887C26.4897 2.18425 27.2172 2.4397 27.9711 2.45636C29.9217 2.50078 31.4808 4.09598 31.4808 6.04658V10.3462Z" stroke="white" stroke-width="2" stroke-linecap="round" stroke-linejoin="round"/>
<path d="M14.2905 9.42578V12.1983C14.2905 13.1465 15.0582 13.9143 16.0065 13.9143C16.0453 15.7219 16.8047 17.4614 18.1764 18.6429C19.2815 19.5939 20.8337 20.7795 22.8856 20.8018C24.9362 20.7795 26.4897 19.5939 27.5948 18.6429C28.9665 17.4614 29.7259 15.7219 29.7648 13.9143C30.713 13.9143 31.4808 13.1451 31.4808 12.1983V10.3462" stroke="white" stroke-width="2" stroke-linecap="round" stroke-linejoin="round"/>
<path d="M67.694 1.02222H49.9914C48.7211 1.02222 47.6909 2.05236 47.6909 3.32268V12.4121C47.6909 13.6824 48.7211 14.7125 49.9914 14.7125H56.2778C57.5287 14.7125 58.5421 15.726 58.5421 16.9769V20.1367C58.5421 20.7462 59.3168 21.0072 59.6861 20.5227L63.4318 15.6052C63.8594 15.043 64.5258 14.7125 65.2339 14.7125H67.6954C68.9657 14.7125 69.9959 13.6824 69.9959 12.4121V3.32268C69.9959 2.05236 68.9657 1.02222 67.6954 1.02222H67.694Z" stroke="white" stroke-width="2" stroke-linecap="round" stroke-linejoin="round"/>
</svg>
