<svg width="76" height="76" viewBox="0 0 76 76" fill="none" xmlns="http://www.w3.org/2000/svg">
<path d="M75.2264 34.8504L64.9081 24.8331V5.849C64.9081 4.83928 64.0621 4.01794 63.0221 4.01794H55.1576C54.1176 4.01794 53.2716 4.83928 53.2716 5.849V13.5358L40.4004 1.03992C39.7592 0.417358 38.9067 0.074585 37.9999 0.074585C37.0931 0.074585 36.2407 0.417358 35.5996 1.03992L19.2178 16.944C18.7757 17.3731 18.7757 18.0686 19.2176 18.4976C19.6595 18.9267 20.3761 18.9268 20.8178 18.4976L37.1998 2.59353C37.641 2.16521 38.3587 2.16521 38.8 2.59353L73.6261 36.404C73.7733 36.5469 73.7733 36.7792 73.6261 36.922L69.1317 41.2855C68.9846 41.4282 68.7453 41.4283 68.5983 41.2855L38.8 12.3564C38.3583 11.9274 37.6416 11.9274 37.2 12.3564L7.40137 41.2855C7.25396 41.4283 7.01482 41.4282 6.86801 41.2855L2.37363 36.922C2.22637 36.7792 2.22637 36.5469 2.37348 36.404L16.904 22.2974C17.3461 21.8684 17.3461 21.1729 16.9042 20.7438C16.4623 20.3148 15.7457 20.3148 15.304 20.7438L0.773255 34.8504C0.2746 35.3345 0 35.9783 0 36.6632C0 37.348 0.2746 37.9916 0.773255 38.4759L5.26764 42.8394C6.29693 43.8388 7.97199 43.839 9.00159 42.8394L11.0917 40.8103V66.0522H10.5543C8.26651 66.0522 6.40511 67.8592 6.40511 70.0805V73.2435C6.40511 74.2533 7.25109 75.0746 8.2911 75.0746H67.7091C68.7491 75.0746 69.595 74.2533 69.595 73.2435V70.0803C69.595 67.8591 67.7336 66.052 65.4459 66.052H64.9084V54.835C64.9084 54.2282 64.4019 53.7364 63.7768 53.7364C63.1517 53.7364 62.6452 54.2282 62.6452 54.835V66.052H31.3179C30.6929 66.052 30.1864 66.5439 30.1864 67.1507C30.1864 67.7574 30.6929 68.2493 31.3179 68.2493H65.4457C66.4857 68.2493 67.3317 69.0706 67.3317 70.0803V72.8773H8.66815V70.0803C8.66815 69.0706 9.51413 68.2493 10.5541 68.2493H26.0372C26.6623 68.2493 27.1688 67.7574 27.1688 67.1507C27.1688 66.5439 26.6623 66.052 26.0372 66.052H13.3547V38.613L37.9999 14.687L62.6451 38.613V49.708C62.6451 50.3148 63.1516 50.8067 63.7767 50.8067C64.4018 50.8067 64.9083 50.3148 64.9083 49.708V40.8103L66.9984 42.8394C67.5131 43.339 68.1891 43.5889 68.8652 43.5889C69.5413 43.5889 70.2176 43.339 70.7324 42.8392L75.2267 38.4758C75.7254 37.9916 76 37.3478 76 36.663C75.9998 35.9783 75.7252 35.3345 75.2264 34.8504ZM55.5349 6.21521H62.6451V22.6358L55.5349 15.733V6.21521Z" fill="#17498A"/>
<path d="M44.4183 37.2266L36.3434 45.0664L31.5826 40.4441C30.5506 39.4423 28.8805 39.4421 27.8483 40.4441L25.011 43.1987C23.9792 44.2007 23.9792 45.8221 25.011 46.8241L33.4094 54.9778C34.1931 55.7387 35.2352 56.1578 36.3434 56.1578C37.4516 56.1578 38.4936 55.7388 39.2773 54.9778L50.9895 43.6067C52.0214 42.6047 52.0214 40.9833 50.9895 39.9814L48.1521 37.2267C47.1231 36.2273 45.4479 36.2271 44.4183 37.2266ZM49.3893 42.0528L37.677 53.4241C37.321 53.7699 36.8472 53.9604 36.3436 53.9604C35.8398 53.9604 35.366 53.7699 35.0099 53.4241L26.6116 45.2703C26.4648 45.1278 26.4637 44.8958 26.6116 44.7524L29.4489 41.9977C29.596 41.8549 29.8353 41.8549 29.9822 41.9977L35.0098 46.8789C35.366 47.2247 35.8396 47.4151 36.3434 47.4151C36.8472 47.4151 37.3208 47.2247 37.6772 46.8789L46.0185 38.7802C46.1659 38.6372 46.4051 38.6374 46.552 38.7802L49.3893 41.5348C49.5366 41.6776 49.5366 41.9101 49.3893 42.0528Z" fill="#D21F34"/>
</svg>
