<svg width="42" height="42" viewBox="0 0 42 42" fill="none" xmlns="http://www.w3.org/2000/svg">
<g clip-path="url(#clip0_2891_14369)">
<path d="M37.1303 23.0467C38.9616 21.1623 39.2669 18.2577 37.8674 16.0336C38.7739 13.5673 37.8715 10.7895 35.6884 9.32703C35.5133 6.70518 33.559 4.53466 30.9698 4.08662C29.7433 1.76237 27.0756 0.574284 24.5276 1.21828C22.4621 -0.406095 19.5413 -0.406095 17.4759 1.21828C14.9281 0.574202 12.2599 1.7627 11.0336 4.08679C10.2481 4.22351 9.49356 4.52488 8.83321 4.96783L9.51968 5.99134C10.1115 5.59441 10.8005 5.3425 11.5121 5.2628L11.86 5.22385L12.0047 4.90489C12.9404 2.84127 15.2742 1.80189 17.4344 2.4873L17.7681 2.59321L18.03 2.36069C19.7241 0.856188 22.2794 0.856188 23.9735 2.36069L24.2354 2.59321L24.5691 2.4873C26.7289 1.80189 29.0631 2.84127 29.9989 4.90489L30.1435 5.22377L30.4915 5.2628C32.7432 5.51504 34.4529 7.41393 34.4685 9.67976L34.4709 10.0299L34.773 10.2071C36.7274 11.3534 37.5169 13.7834 36.6097 15.8597L36.4694 16.1806L36.6733 16.4653C37.9925 18.3075 37.7254 20.8487 36.0519 22.3763L35.7934 22.6123L35.8638 22.9554C36.3197 25.1749 35.0421 27.3877 32.892 28.1026L32.5597 28.2131L32.4846 28.5552C32.2886 29.447 31.8325 30.2468 31.1657 30.8678L32.0059 31.7697C32.6352 31.1834 33.117 30.4724 33.4266 29.6816L36.624 35.5085L31.8048 35.6928L29.0608 39.6589L26.2979 34.6237C26.8959 34.2907 27.4415 33.8479 27.8993 33.2988C28.9366 33.3377 29.9574 33.0969 30.8705 32.5927L30.2748 31.5138C29.4802 31.9526 28.5821 32.137 27.6761 32.0488L27.3276 32.0146L27.1199 32.2964C25.7756 34.1204 23.2765 34.6516 21.3062 33.5322L21.0017 33.3592L20.6973 33.5322C18.7273 34.6515 16.2279 34.1204 14.8836 32.2964L14.6759 32.0145L14.3274 32.0488C12.0719 32.2714 10.0052 30.7683 9.51894 28.5552L9.44376 28.2131L9.11149 28.1026C6.96143 27.3877 5.68379 25.1749 6.13971 22.9554L6.21013 22.6123L5.95156 22.3763C4.27821 20.8486 4.01109 18.3075 5.33023 16.4653L5.53408 16.1806L5.39383 15.8598C4.48649 13.7834 5.27601 11.3534 7.23052 10.2071L7.53263 10.0299L7.53502 9.67976C7.54258 8.57613 7.95537 7.51844 8.69731 6.70149L7.78504 5.87295C6.91608 6.8295 6.40124 8.04495 6.3153 9.32695C4.1322 10.7895 3.22955 13.5673 4.13615 16.0336C2.73665 18.2577 3.04197 21.1624 4.87324 23.0467C4.53538 25.3968 5.69512 27.6879 7.72128 28.8286L3.42182 36.6639L6.80253 36.7931L6.84953 35.5616L5.46161 35.5085L8.61235 29.7668C9.51188 31.9548 11.6994 33.3925 14.1041 33.2986C14.578 33.8671 15.145 34.3235 15.7678 34.6601L13.0249 39.6588L10.2808 35.6927L8.10154 35.6094L8.05446 36.8409L9.61795 36.9008L13.1461 42L16.9174 35.1271C18.2431 35.5056 19.6985 35.4055 21.0017 34.7647C21.803 35.1587 22.6615 35.3486 23.5124 35.3486C24.0702 35.3486 24.624 35.2649 25.1564 35.1055L28.9396 42L32.4677 36.9008L38.6638 36.6638L34.3443 28.7921C36.3318 27.6399 37.4647 25.3724 37.1303 23.0467Z" fill="#17498A"/>
<path d="M10.1797 23.7169C14.7969 32.3785 27.6497 32.3758 32.2652 23.7169L31.1845 23.1243C27.0187 30.9389 15.4245 30.9365 11.2604 23.1243L10.1797 23.7169Z" fill="#17498A"/>
<path d="M27.9322 7.02428C23.9447 4.45329 18.5007 4.45337 14.5133 7.02428C12.562 8.25633 10.9865 9.99705 9.95703 12.0585L11.0597 12.609C11.9886 10.7491 13.4103 9.17829 15.1713 8.06645C18.7665 5.74819 23.679 5.74819 27.2742 8.06645C29.0352 9.17829 30.4569 10.7491 31.3858 12.609L32.4885 12.0585C31.4589 9.99713 29.8834 8.25633 27.9322 7.02428Z" fill="#17498A"/>
<path d="M21.5021 18.7942L22.0222 19.9987L23 19.684L20.9775 15L20.0403 15.0008L18 19.6827L18.9767 20L19.5022 18.7942H21.5021ZM20.5067 16.4891L21.113 17.8932H19.8947L20.5067 16.4891Z" fill="#17498A"/>
<path d="M26.1185 20H27V15.1086H26.0998V18.3361L23.8816 15.0002L23 15V19.9333H23.9002V16.6641L26.1185 20Z" fill="#17498A"/>
<path d="M32 17.4992C32 16.0044 31.0908 15 29.7374 15H28L28.0117 20C28.0117 20 29.4306 19.995 29.7822 19.9892C31.0673 19.9683 32 18.9211 32 17.4992ZM29.0234 19.0629L29.005 15.9329H29.7374C30.6674 15.9329 30.9988 16.742 30.9988 17.4992C30.9988 18.561 30.3791 19.0464 29.7648 19.0564C29.595 19.0592 29.2903 19.0614 29.0234 19.0629Z" fill="#17498A"/>
<path d="M10 15.0001V16.8769V17.804V20L10.4078 19.998C10.4079 19.998 11.3667 19.9931 11.6309 19.9931C12.9444 19.9902 13.4951 18.0822 12.4609 17.1953C13.0299 16.2985 12.4293 14.984 11.4488 15.0001H10ZM11.6309 19.0711C11.4808 19.0711 11.1077 19.0726 10.8121 19.074V17.8001C10.8985 17.7997 10.9899 17.7993 11.0772 17.7989H11.6309C12.3733 17.831 12.3728 19.0393 11.6309 19.0711ZM11.8688 16.399C11.8688 16.6619 11.6804 16.8758 11.4488 16.8758C11.3735 16.8758 11.2327 16.8763 11.0785 16.8769H10.8121V15.9222H11.4488C11.6804 15.9222 11.8688 16.1361 11.8688 16.399Z" fill="#17498A"/>
<path d="M18 16.619C18 15.7263 17.0925 15 15.9771 15H14L14.0001 19.9262H15.0991V18.3937L16.7966 20L17.6215 19.3953L16.3662 18.2076C17.296 18.0619 18 17.4051 18 16.619ZM15.9771 17.3227C15.7763 17.3227 15.4152 17.324 15.1075 17.3253C15.1059 17.0739 15.1033 16.1781 15.1025 15.9152H15.9771C16.4779 15.9152 16.901 16.2375 16.901 16.619C16.901 17.0004 16.4779 17.3227 15.9771 17.3227Z" fill="#17498A"/>
</g>
<defs>
<clipPath id="clip0_2891_14369">
<rect width="42" height="42" fill="#17498A"/>
</clipPath>
</defs>
</svg>
