<svg width="43" height="50" viewBox="0 0 43 50" fill="none" xmlns="http://www.w3.org/2000/svg">
<path d="M40.3198 27.4366C42.4999 25.1933 42.8634 21.7353 41.1973 19.0877C42.2765 16.1515 41.2021 12.8447 38.6032 11.1036C38.3947 7.98237 36.0682 5.39841 32.9858 4.86503C31.5257 2.09806 28.3499 0.683672 25.3166 1.45034C22.8577 -0.483446 19.3805 -0.483446 16.9216 1.45034C13.8886 0.683574 10.7122 2.09846 9.25229 4.86523C8.31719 5.02799 7.41886 5.38677 6.63273 5.91409L7.44997 7.13256C8.15452 6.66002 8.97469 6.36012 9.82186 6.26524L10.2361 6.21888L10.4084 5.83916C11.5223 3.38246 14.3006 2.14511 16.8722 2.96108L17.2695 3.08716L17.5813 2.81035C19.5981 1.01927 22.6401 1.01927 24.6569 2.81035L24.9687 3.08716L25.366 2.96108C27.9371 2.14511 30.7159 3.38246 31.83 5.83916L32.0022 6.21878L32.4164 6.26524C35.097 6.56553 37.1325 8.82611 37.1509 11.5235L37.1538 11.9404L37.5134 12.1513C39.8401 13.5159 40.78 16.4089 39.7 18.8806L39.533 19.2626L39.7757 19.6015C41.3462 21.7947 41.0282 24.8199 39.036 26.6385L38.7282 26.9195L38.812 27.3279C39.3548 29.9702 37.8338 32.6044 35.2742 33.4555L34.8786 33.5871L34.7891 33.9943C34.5558 35.056 34.0129 36.0081 33.2191 36.7475L34.2193 37.8212C34.9684 37.1232 35.5421 36.2767 35.9106 35.3353L39.7171 42.2721L33.9799 42.4915L30.7132 47.213L27.424 41.2187C28.1359 40.8223 28.7855 40.2952 29.3305 39.6415C30.5654 39.6877 31.7807 39.4012 32.8677 38.8009L32.1585 37.5165C31.2125 38.0388 30.1433 38.2584 29.0647 38.1533L28.6499 38.1126L28.4026 38.4481C26.8023 40.6195 23.8271 41.252 21.4815 39.9193L21.1191 39.7134L20.7567 39.9193C18.4114 41.2518 15.436 40.6195 13.8356 38.4481L13.5883 38.1125L13.1735 38.1533C10.4884 38.4183 8.02795 36.629 7.44909 33.9943L7.35959 33.5871L6.96403 33.4555C4.40442 32.6044 2.88342 29.9701 3.42619 27.3279L3.51001 26.9195L3.20219 26.6385C1.21011 24.8198 0.892114 21.7946 2.46252 19.6015L2.7052 19.2626L2.53823 18.8807C1.45807 16.4089 2.39796 13.5159 4.72477 12.1513L5.08443 11.9404L5.08727 11.5235C5.09626 10.2097 5.58768 8.95053 6.47094 7.97797L5.38491 6.99161C4.35043 8.13036 3.73753 9.57733 3.63521 11.1035C1.03629 12.8446 -0.0382938 16.1515 1.04099 19.0877C-0.625081 21.7353 -0.261604 25.1934 1.91848 27.4366C1.51627 30.2343 2.89691 32.9619 5.30901 34.3198L0.190591 43.6476L4.21525 43.8013L4.2712 42.3353L2.61892 42.2721L6.3698 35.4366C7.44067 38.0414 10.0449 39.753 12.9076 39.6413C13.4718 40.318 14.1468 40.8613 14.8882 41.2621L11.6228 47.2129L8.35612 42.4914L5.76169 42.3922L5.70565 43.8582L7.56695 43.9296L11.7671 50L16.2568 41.818C17.835 42.2687 19.5677 42.1494 21.1191 41.3866C22.073 41.8556 23.095 42.0817 24.108 42.0817C24.7721 42.0817 25.4313 41.9821 26.0652 41.7923L30.5689 50L34.7691 43.9296L42.1454 43.6475L37.0031 34.2764C39.3692 32.9046 40.7178 30.2053 40.3198 27.4366Z" fill="#17498A"/>
<path d="M8.23438 28.2345C13.731 38.5458 29.032 38.5427 34.5266 28.2345L33.2402 27.5289C28.2808 36.8321 14.4782 36.8292 9.52092 27.5289L8.23438 28.2345Z" fill="#17498A"/>
<path d="M29.3677 8.36226C24.6207 5.30156 18.1398 5.30166 13.3928 8.36226C11.0699 9.82899 9.19436 11.9013 7.96875 14.3553L9.28142 15.0108C10.3873 12.7966 12.0798 10.9266 14.1762 9.60294C18.4562 6.84311 24.3045 6.84311 28.5845 9.60294C30.6809 10.9266 32.3734 12.7966 33.4793 15.0108L34.7919 14.3553C33.5662 11.9014 31.6906 9.82899 29.3677 8.36226Z" fill="#17498A"/>
<path d="M21.716 22.3741L22.3352 23.8081L23.4993 23.4333L21.0915 17.8572L19.9758 17.8581L17.5469 23.4318L18.7096 23.8096L19.3352 22.3741H21.716ZM20.531 19.6299L21.2528 21.3014H19.8025L20.531 19.6299Z" fill="#17498A"/>
<path d="M27.2086 23.8096H28.258V17.9864H27.1863V21.8288L24.5456 17.8575L23.4961 17.8572V23.7301H24.5678V19.8382L27.2086 23.8096Z" fill="#17498A"/>
<path d="M34.2111 20.8324C34.2111 19.0529 33.1287 17.8572 31.5175 17.8572H29.4492L29.4631 23.8096C29.4631 23.8096 31.1523 23.8036 31.5709 23.7967C33.1008 23.7718 34.2111 22.5252 34.2111 20.8324ZM30.6675 22.6939L30.6457 18.9678H31.5176C32.6247 18.9678 33.0192 19.931 33.0192 20.8324C33.0192 22.0965 32.2814 22.6744 31.5502 22.6862C31.348 22.6895 30.9852 22.6921 30.6675 22.6939Z" fill="#17498A"/>
<path d="M8.02344 17.8574V20.0916V21.1953V23.8096L8.50894 23.8071C8.50907 23.8071 9.65043 23.8014 9.96495 23.8014C11.5287 23.7979 12.1843 21.5265 10.9531 20.4706C11.6304 19.403 10.9155 17.8381 9.7482 17.8574H8.02344ZM9.96495 22.7037C9.78635 22.7037 9.34216 22.7056 8.9902 22.7072V21.1906C9.09306 21.1902 9.20192 21.1896 9.30587 21.1892H9.96495C10.8488 21.2275 10.8482 22.6659 9.96495 22.7037ZM10.2482 19.5226C10.2482 19.8356 10.0239 20.0903 9.7482 20.0903C9.65855 20.0903 9.49098 20.0909 9.30736 20.0916H8.9902V18.9551H9.7482C10.0239 18.955 10.2482 19.2096 10.2482 19.5226Z" fill="#17498A"/>
<path d="M17.5471 19.7845C17.5471 18.7218 16.4667 17.8572 15.1389 17.8572H12.7852L12.7853 23.7217H14.0936V21.8973L16.1144 23.8096L17.0965 23.0897L15.6021 21.6757C16.709 21.5023 17.5471 20.7204 17.5471 19.7845ZM15.1388 20.6223C14.8997 20.6223 14.4699 20.6238 14.1036 20.6254C14.1017 20.3262 14.0987 19.2596 14.0976 18.9467H15.1388C15.735 18.9467 16.2387 19.3304 16.2387 19.7845C16.2387 20.2386 15.735 20.6223 15.1388 20.6223Z" fill="#17498A"/>
</svg>
