<svg width="62" height="63" viewBox="0 0 62 63" fill="none" xmlns="http://www.w3.org/2000/svg">
    <rect y="0.0848389" width="62" height="62" rx="22" />
    <path
        d="M35.2543 30.3677L35.2542 30.3676C34.5269 30.1495 34.1139 29.383 34.332 28.6559L34.332 28.6559C34.568 27.8683 34.6874 27.0483 34.6874 26.2188C34.6874 21.5488 30.8889 17.75 26.2186 17.75C21.5486 17.75 17.7497 21.5488 17.7497 26.2188C17.7497 30.8887 21.5486 34.6875 26.2186 34.6875C27.0088 34.6875 27.7906 34.579 28.5427 34.3652L28.5432 34.3651C29.2726 34.1568 30.0338 34.5803 30.2417 35.3109L30.2418 35.3111C30.4499 36.0412 30.0264 36.802 29.296 37.0098C28.2996 37.2933 27.2643 37.4375 26.2186 37.4375C20.0332 37.4375 14.9997 32.4044 14.9997 26.2188C14.9997 20.0331 20.0332 15 26.2186 15C32.4043 15 37.4374 20.0331 37.4374 26.2188C37.4374 27.3171 37.2789 28.4025 36.9663 29.4454C36.7482 30.173 35.9817 30.586 35.2543 30.3677ZM31.5148 46.9193L31.8377 46.5376L31.5148 46.9193C32.0942 47.4095 32.1666 48.2772 31.6758 48.8571C30.1429 50.6682 28.9553 52.2591 27.9434 53.8598L28.366 54.127L27.9434 53.8598C27.6915 54.2582 27.2527 54.5 26.7811 54.5H25.656C25.1849 54.5 24.746 54.2583 24.4942 53.8596L24.4941 53.8594C22.4161 50.5722 19.8188 47.7276 17.3401 45.013L17.3233 44.9945L17.3233 44.9945C14.7789 42.2083 12.4152 39.6173 10.5987 36.6558C8.51145 33.2521 7.50366 29.8359 7.5 26.2001C7.50585 21.2 9.45485 16.5064 12.9898 12.9755C16.5252 9.44397 21.2215 7.5 26.2186 7.5C31.216 7.5 35.9123 9.44397 39.4477 12.9754C42.9823 16.5065 44.9316 21.2 44.9375 26.1961C44.9367 26.853 44.9035 27.5054 44.8386 28.1391L44.8386 28.1395C44.7618 28.8953 44.0865 29.4454 43.3318 29.3681L43.3316 29.3681C42.5761 29.291 42.026 28.6161 42.1028 27.8605C42.1584 27.3164 42.1867 26.757 42.1874 26.1971V26.1958C42.1772 17.4047 35.014 10.25 26.2186 10.25C17.423 10.25 10.2602 17.4048 10.25 26.1999L10.25 26.2009C10.2568 33.1787 14.5313 37.8593 19.292 43.0725L19.3538 43.1401C21.5694 45.5666 23.8246 48.0374 25.8088 50.8741L26.2186 51.4599L26.6283 50.8741C27.4723 49.6673 28.4329 48.4319 29.5767 47.0804C30.0674 46.5008 30.9349 46.4286 31.5148 46.9193ZM47.3888 48.8125L47.1214 48.5158L46.773 48.711C45.628 49.3523 44.3096 49.7188 42.9062 49.7188C38.5296 49.7188 34.9686 46.1575 34.9686 41.7812C34.9686 37.405 38.5296 33.8438 42.9062 33.8438C47.2824 33.8438 50.8438 37.4051 50.8438 41.7812C50.8438 43.4804 50.307 45.0553 49.3943 46.3481L49.1639 46.6744L49.4313 46.9712L54.1466 52.2046C54.1466 52.2046 54.1466 52.2047 54.1467 52.2047C54.6548 52.769 54.6095 53.6383 54.0454 54.1466C53.7822 54.3837 53.4542 54.5 53.1258 54.5C52.7484 54.5 52.3749 54.3466 52.1034 54.0453L47.3888 48.8125ZM42.9062 46.9688C45.7671 46.9688 48.0937 44.6421 48.0937 41.7812C48.0937 38.9204 45.7671 36.5938 42.9062 36.5938C40.0453 36.5938 37.7187 38.9204 37.7187 41.7812C37.7187 44.6421 40.0453 46.9688 42.9062 46.9688Z"
        fill="#17498A" />
</svg>