<svg width="54" height="50" viewBox="0 0 54 50" fill="none" xmlns="http://www.w3.org/2000/svg">
<path d="M47.337 36.6242V36.8742H47.587H49.1385C51.2917 36.8742 53.0506 38.6557 53.0506 40.8535V45.7708C53.0506 47.9685 51.2917 49.75 49.1385 49.75H42.7709C40.6178 49.75 38.8589 47.9685 38.8589 45.7708V40.8535C38.8589 38.6557 40.6178 36.8742 42.7709 36.8742H44.4612H44.7112V36.6242V34.6336C44.7112 31.5377 42.2318 29.0125 39.1753 29.0125H35.9173H28.5606H28.3106V29.2625V36.6242V36.8742H28.5606H30.1814C32.3345 36.8742 34.0934 38.6557 34.0934 40.8535V45.7708C34.0934 47.9685 32.3345 49.75 30.1814 49.75H23.8138C21.6606 49.75 19.9017 47.9685 19.9017 45.7708V40.8535C19.9017 38.6557 21.6606 36.8742 23.8138 36.8742H25.4346H25.6846V36.6242V29.2625V29.0125H25.4346H18.1822H14.1947C11.1383 29.0125 8.65891 31.5377 8.65891 34.6336V36.6242V36.8742H8.90891H10.5297C12.6828 36.8742 14.4417 38.6557 14.4417 40.8535V45.7708C14.4417 47.9685 12.6828 49.75 10.5297 49.75H4.16213C2.00891 49.75 0.25 47.9685 0.25 45.7708V40.8535C0.25 38.6557 2.00891 36.8742 4.16213 36.8741H5.78312H6.03312V36.6241V34.6335C6.03312 30.0547 9.69826 26.336 14.1948 26.336H18.1823H25.4347H25.6847V26.086V18.7243V18.4743H25.4347H20.7813C18.6282 18.4743 16.8693 16.6928 16.8693 14.4951V4.22926C16.8693 2.03148 18.6282 0.25 20.7813 0.25H33.214C35.3671 0.25 37.126 2.03158 37.126 4.22926V14.4952C37.126 16.693 35.3671 18.4744 33.214 18.4744H28.5606H28.3106V18.7244V26.0861V26.3361H28.5606H35.9172H39.1751C43.6716 26.3361 47.337 30.0547 47.337 34.6336V36.6242ZM20.7813 15.7981H21.0313V15.798H33.2139C33.9271 15.798 34.5 15.2099 34.5 14.4951V4.22926C34.5 3.51436 33.927 2.92631 33.2139 2.92631H20.7813C20.0681 2.92631 19.4952 3.51448 19.4952 4.22926V14.4952C19.4952 15.21 20.0681 15.7981 20.7813 15.7981ZM11.8159 40.8535C11.8159 40.1387 11.243 39.5505 10.5298 39.5505H4.16224C3.44909 39.5505 2.876 40.1387 2.876 40.8535V45.7708C2.876 46.4857 3.44913 47.0737 4.16224 47.0737H10.5298C11.2429 47.0737 11.8159 46.4857 11.8159 45.7708V40.8535ZM31.4676 40.8535C31.4676 40.1387 30.8946 39.5505 30.1815 39.5505H23.8139C23.1008 39.5505 22.5277 40.1387 22.5277 40.8535V45.7708C22.5277 46.4857 23.1008 47.0737 23.8139 47.0737H30.1815C30.8946 47.0737 31.4676 46.4857 31.4676 45.7708V40.8535ZM49.1385 47.0738C49.8516 47.0738 50.4247 46.4858 50.4247 45.7709V40.8536C50.4247 40.1386 49.8516 39.5506 49.1385 39.5506H42.7709C42.0578 39.5506 41.4848 40.1388 41.4848 40.8536V45.7709C41.4848 46.4858 42.0578 47.0738 42.7709 47.0738H49.1385Z" fill="#17498A" />
</svg>
