<svg width="62" height="63" viewBox="0 0 62 63" fill="none" xmlns="http://www.w3.org/2000/svg">
<path d="M54.8539 45.0213V45.5213H55.3539H57.1586C59.5445 45.5213 61.5 47.4967 61.5 49.9409V55.6608C61.5 58.1048 59.5445 60.0802 57.1586 60.0802H49.7517C47.3659 60.0802 45.4104 58.1048 45.4104 55.6608V49.9409C45.4104 47.4967 47.3659 45.5213 49.7517 45.5213H51.7179H52.2179V45.0213V42.7058C52.2179 38.9923 49.2433 35.9581 45.5693 35.9581H41.7795H33.2221H32.7221V36.4581V45.0213V45.5213H33.2221H35.1074C37.4932 45.5213 39.4487 47.4967 39.4487 49.9409V55.6608C39.4487 58.1048 37.4932 60.0802 35.1074 60.0802H27.7006C25.3146 60.0802 23.3591 58.1048 23.3591 55.6608V49.9409C23.3591 47.4967 25.3146 45.5213 27.7006 45.5213H29.5859H30.0859V45.0213V36.4581V35.9581H29.5859H21.1497H16.5115C12.8376 35.9581 9.86296 38.9923 9.86296 42.7058V45.0213V45.5213H10.363H12.2483C14.6341 45.5213 16.5896 47.4967 16.5896 49.9409V55.6608C16.5896 58.1048 14.6341 60.0802 12.2483 60.0802H4.84145C2.45546 60.0802 0.5 58.1048 0.5 55.6608V49.9409C0.5 47.4968 2.45547 45.5213 4.84145 45.5212H6.727H7.227V45.0212V42.7057C7.227 37.4919 11.3998 33.2632 16.5116 33.2632H21.1499H29.586H30.086V32.7632V24.2V23.7H29.586H24.1731C21.7873 23.7 19.8318 21.7244 19.8318 19.2804V7.33909C19.8318 4.89496 21.7872 2.91956 24.1731 2.91956H38.635C41.0208 2.91956 42.9763 4.89508 42.9763 7.33909V19.2805C42.9763 21.7247 41.0208 23.7001 38.635 23.7001H33.2221H32.7221V24.2001V32.7633V33.2633H33.2221H41.7794H45.569C50.6807 33.2633 54.8539 37.4919 54.8539 42.7058V45.0213ZM24.1731 21.0054H24.6731V21.0052H38.6348C39.5831 21.0052 40.3401 20.2242 40.3401 19.2804V7.33909C40.3401 6.39515 39.5831 5.61428 38.6348 5.61428H24.1731C23.2248 5.61428 22.4679 6.39531 22.4679 7.33909V19.2805C22.4679 20.2243 23.2248 21.0054 24.1731 21.0054ZM13.9536 49.9409C13.9536 48.9971 13.1967 48.2161 12.2484 48.2161H4.84157C3.89335 48.2161 3.1362 48.997 3.1362 49.9409V55.6608C3.1362 56.6047 3.89342 57.3855 4.84157 57.3855H12.2484C13.1966 57.3855 13.9536 56.6047 13.9536 55.6608V49.9409ZM36.8127 49.9409C36.8127 48.9971 36.0558 48.2161 35.1075 48.2161H27.7007C26.7525 48.2161 25.9953 48.997 25.9953 49.9409V55.6608C25.9953 56.6047 26.7525 57.3855 27.7007 57.3855H35.1075C36.0557 57.3855 36.8127 56.6047 36.8127 55.6608V49.9409ZM57.1586 57.3856C58.1067 57.3856 58.8639 56.6049 58.8639 55.661V49.941C58.8639 48.997 58.1067 48.2162 57.1586 48.2162H49.7517C48.8034 48.2162 48.0465 48.9972 48.0465 49.941V55.661C48.0465 56.6048 48.8035 57.3856 49.7517 57.3856H57.1586Z" fill="white" stroke="#17498A"/>
</svg>
