<svg width="38" height="38" viewBox="0 0 38 38" fill="none" xmlns="http://www.w3.org/2000/svg">
<g clip-path="url(#clip0_2891_14570)">
<path d="M5.62305 10.9402H14.1652C14.4726 10.9402 14.7218 10.691 14.7218 10.3835C14.7218 10.0761 14.4726 9.8269 14.1652 9.8269H5.62305C5.31563 9.8269 5.06641 10.0761 5.06641 10.3835C5.06641 10.691 5.31563 10.9402 5.62305 10.9402Z" fill="white"/>
<path d="M22.287 15.3933C22.5944 15.3933 22.8437 15.1441 22.8437 14.8367C22.8437 14.5293 22.5944 14.28 22.287 14.28H16.1816C15.8742 14.28 15.625 14.5293 15.625 14.8367C15.625 15.1441 15.8742 15.3933 16.1816 15.3933H22.287Z" fill="white"/>
<path d="M5.47461 15.3933H13.5839C13.8913 15.3933 14.1405 15.1441 14.1405 14.8367C14.1405 14.5293 13.8913 14.28 13.5839 14.28H5.47461C5.1672 14.28 4.91797 14.5293 4.91797 14.8367C4.91797 15.1441 5.1672 15.3933 5.47461 15.3933Z" fill="white"/>
<path d="M5.47461 19.8464H18.5342C18.8416 19.8464 19.0909 19.5972 19.0909 19.2898C19.0909 18.9824 18.8416 18.7332 18.5342 18.7332H5.47461C5.1672 18.7332 4.91797 18.9824 4.91797 19.2898C4.91797 19.5972 5.1672 19.8464 5.47461 19.8464Z" fill="white"/>
<path d="M37.9942 31.9603C37.9573 31.4458 37.7213 30.6887 36.807 30.0002L31.9682 26.1749L33.0684 25.0754C33.2796 25.1764 33.5165 25.2314 33.7663 25.2314H33.767C34.2951 25.2314 34.8323 24.9959 35.2409 24.5851C35.2422 24.5839 35.2434 24.5825 35.2447 24.5812C36.0064 23.8122 36.0953 22.653 35.442 21.9949L29.7722 16.2951C29.2655 15.7688 28.3981 15.73 27.7577 16.0769V11.2452C27.7577 10.502 27.4654 9.80314 26.9347 9.27752L18.3936 0.817921C17.8632 0.292601 17.1579 0.0032959 16.4075 0.0032959H3.55886C1.59652 0.0032959 0 1.58408 0 3.52705V5.59071C0 5.89812 0.249227 6.14735 0.556641 6.14735C0.864055 6.14735 1.11328 5.89812 1.11328 5.59071V3.52705C1.11328 2.19787 2.21038 1.1165 3.55886 1.1165L16.7855 1.16074V8.31431C16.7855 9.72981 17.9456 10.8814 19.3718 10.8814H26.6029L26.6445 17.3795C26.4991 17.8333 26.5193 18.3078 26.7127 18.7004L21.6863 23.7242C21.0232 23.4033 20.1305 23.5752 19.4999 24.2028C18.7881 24.8871 18.5849 26.0862 19.2955 26.7939L24.9816 32.4789C25.4114 32.9123 26.0698 33.0113 26.6445 32.8346C26.6917 33.5745 26.4818 34.3149 25.9349 34.841C25.467 35.3056 24.8447 35.5616 24.1789 35.554L23.0391 35.5458C22.7805 35.0323 22.3116 34.6423 21.746 34.4898V34.0186C21.746 32.8931 20.8305 31.9776 19.705 31.9776H12.8512C11.7257 31.9776 10.8102 32.8931 10.8102 34.0186V34.4898C10.2757 34.6339 9.82768 34.99 9.56175 35.4621H3.55886C2.21038 35.4621 1.11328 34.3808 1.11328 33.0516V8.18643C1.11328 7.87902 0.864055 7.62979 0.556641 7.62979C0.249227 7.62979 0 7.87902 0 8.18643V33.0516C0 34.9946 1.59652 36.5754 3.55886 36.5754H9.30005V37.069C9.30005 37.5805 9.7162 37.9967 10.2278 37.9967H12.7656C13.073 37.9967 13.3223 37.7475 13.3223 37.44C13.3223 37.1326 13.073 36.8834 12.7656 36.8834H10.4133V36.4604C10.4133 35.9488 10.8295 35.5326 11.3411 35.5326H21.2153C21.7269 35.5326 22.143 35.9488 22.143 36.4604V36.8834H15.3633C15.0559 36.8834 14.8066 37.1326 14.8066 37.44C14.8066 37.7475 15.0559 37.9967 15.3633 37.9967H22.3286C22.8402 37.9967 23.2563 37.5805 23.2563 37.069V36.6607C23.289 36.6608 24.1653 36.6674 24.1976 36.6673C25.1509 36.6673 26.0457 36.2998 26.7193 35.6309C27.389 34.966 27.7578 34.0828 27.7578 33.1441V32.0623C28.2019 31.4961 28.3625 30.7264 28.0518 30.0894L29.1205 29.0213L32.9381 33.875C34.307 35.5386 35.7003 35.3712 37.0674 34.136C37.7188 33.4832 38.0479 32.7104 37.9942 31.9603ZM12.8513 33.0908H19.7051C20.2167 33.0908 20.6328 33.507 20.6328 34.0186V34.4193H11.9235V34.0186C11.9235 33.507 12.3397 33.0908 12.8513 33.0908ZM27.977 17.2804C28.2681 17.0124 28.6551 16.8232 28.9826 17.0798L34.6524 22.7796C34.8691 22.9978 34.7754 23.4745 34.452 23.7996C34.1526 24.0816 33.7124 24.2782 33.4011 23.9556L31.301 21.8444C31.0842 21.6265 30.7318 21.6255 30.5139 21.8423C30.2959 22.0591 30.295 22.4116 30.5118 22.6295L32.2213 24.3482C30.7478 25.8194 28.7961 27.7713 27.323 29.244L22.5316 24.4535L27.4431 19.5445L28.665 20.773C28.8818 20.9909 29.2342 20.9919 29.4522 20.775C29.6701 20.5583 29.671 20.2058 29.4542 19.9879L27.8378 18.3629C27.5423 18.1303 27.629 17.6405 27.977 17.2804ZM17.8987 8.31439V1.89469L25.8482 9.76818H19.3718C18.5595 9.76818 17.8987 9.11602 17.8987 8.31439ZM25.7684 31.6911L20.0823 26.0061C19.8268 25.678 20.0137 25.2894 20.28 24.9971C20.6335 24.6505 21.1217 24.5593 21.3507 24.8468L26.9824 30.4774C27.2389 30.8065 27.0495 31.1981 26.7815 31.4898C26.4581 31.813 25.9846 31.907 25.7684 31.6911ZM36.2792 33.3499C35.4363 34.1926 34.5246 34.1697 33.8174 33.1922L29.9135 28.2288L31.1755 26.9674L36.1219 30.8778C37.0981 31.5875 37.1205 32.5048 36.2792 33.3499Z" fill="white"/>
</g>
<defs>
<clipPath id="clip0_2891_14570">
<rect width="38" height="38" fill="white"/>
</clipPath>
</defs>
</svg>
