<svg width="52" height="52" viewBox="0 0 52 52" fill="none" xmlns="http://www.w3.org/2000/svg">
<path d="M24.3457 43.4413L24.3458 43.4412C24.4806 43.3064 24.6689 43.2283 24.8594 43.2283C25.0498 43.2283 25.2382 43.3064 25.373 43.4413C25.5078 43.576 25.5859 43.7644 25.5859 43.9548C25.5859 44.1454 25.5079 44.3337 25.373 44.4685L25.3726 44.469C25.2383 44.6039 25.0504 44.6814 24.8594 44.6814C24.6684 44.6814 24.4804 44.6039 24.3462 44.469L24.3457 44.4685C24.2108 44.3336 24.1328 44.1462 24.1328 43.9548C24.1328 43.7644 24.2109 43.576 24.3457 43.4413Z" fill="#17498A"/>
<path d="M30.1974 34.2557V27.07C30.1974 26.7456 30.0363 26.4423 29.7674 26.2607C29.4986 26.0792 29.1571 26.0431 28.856 26.1641L12.0286 32.9412H6.60868C3.51611 32.9412 1 35.4573 1 38.5501C1 41.6428 3.51611 44.1589 6.60888 44.1589H7.25428V50.0234C7.25428 50.5626 7.69149 50.9999 8.23085 50.9999H12.2176C12.7569 50.9999 13.1941 50.5626 13.1941 50.0234V44.63L28.8565 50.9294C28.974 50.9767 29.0977 51 29.2207 51C29.4129 51 29.6038 50.9433 29.7676 50.8327C30.0364 50.6511 30.1974 50.3478 30.1974 50.0235V42.8378C32.1558 42.3922 33.6224 40.6381 33.6224 38.5468C33.6224 36.4555 32.1558 34.7013 30.1974 34.2557ZM11.2409 49.0468H9.20741V44.1588H11.241V49.0468H11.2409ZM11.2411 42.2057H6.60888C4.59306 42.2057 2.95312 40.5658 2.95312 38.5501C2.95312 36.5342 4.59306 34.8943 6.60888 34.8943H11.2415L11.2411 42.2057ZM28.2444 48.578H28.2443L13.1946 42.525V34.5771L23.8808 30.2734V39.9648C23.8808 40.5041 24.318 40.9414 24.8574 40.9414C25.3967 40.9414 25.8339 40.5041 25.8339 39.9648V29.4868L28.2444 28.516V48.578ZM30.1974 40.7914V36.3021C31.0627 36.68 31.6693 37.5437 31.6693 38.5467C31.6693 39.5498 31.0628 40.4134 30.1974 40.7914Z" fill="#17498A"/>
<path d="M42.9432 37.5991H37.4141C36.8747 37.5991 36.4375 38.0364 36.4375 38.5757C36.4375 39.1149 36.8747 39.5522 37.4141 39.5522H42.9432C43.4825 39.5522 43.9197 39.1149 43.9197 38.5757C43.9197 38.0364 43.4825 37.5991 42.9432 37.5991Z" fill="#17498A"/>
<path d="M38.4064 30.443C38.0251 30.0618 37.4067 30.0618 37.0253 30.443L35.118 32.3503C34.7367 32.7316 34.7367 33.35 35.118 33.7314C35.3089 33.922 35.5588 34.0175 35.8087 34.0175C36.0586 34.0175 36.3086 33.922 36.4992 33.7314L38.4064 31.8242C38.7878 31.4428 38.7878 30.8245 38.4064 30.443Z" fill="#17498A"/>
<path d="M38.4741 45.2359L36.5031 43.2648C36.1218 42.8836 35.5034 42.8836 35.1219 43.2648C34.7406 43.6462 34.7406 44.2645 35.1219 44.646L37.093 46.6171C37.2838 46.8077 37.5337 46.9031 37.7836 46.9031C38.0335 46.9031 38.2835 46.8077 38.4741 46.6171C38.8554 46.2357 38.8554 45.6174 38.4741 45.2359Z" fill="#17498A"/>
<path d="M47.0937 1H28.9296C26.7757 1 25.0234 2.75234 25.0234 4.90624V5.29687H8.61718C7.3248 5.29687 6.27344 6.34833 6.27344 7.64061V23.0703C6.27344 24.3626 7.3248 25.414 8.61718 25.414H9.62626V28.4088C9.62626 28.8039 9.86425 29.1599 10.2291 29.3111C10.3499 29.3611 10.4767 29.3854 10.6026 29.3854C10.8567 29.3854 11.1065 29.2862 11.2933 29.0994L14.9787 25.414H34.3769C35.6693 25.414 36.7206 24.3626 36.7206 23.0703V20.1406H47.0937C49.2476 20.1406 50.9999 18.3882 50.9999 16.2343V4.90624C50.9998 2.75234 49.2476 1 47.0937 1ZM34.7675 23.0703C34.7675 23.2857 34.5923 23.4609 34.3769 23.4609H14.5742C14.3152 23.4609 14.0668 23.5638 13.8837 23.7469L11.5795 26.0512V24.4375C11.5795 23.8982 11.1423 23.4609 10.6029 23.4609H8.61718C8.40175 23.4609 8.22656 23.2857 8.22656 23.0703V7.64061C8.22656 7.42518 8.40175 7.24999 8.61718 7.24999H25.0234V16.2343C25.0234 18.3882 26.7757 20.1406 28.9296 20.1406H34.7675V23.0703ZM49.0468 16.2343C49.0468 17.3113 48.1706 18.1875 47.0937 18.1875H28.9296C27.8527 18.1875 26.9765 17.3113 26.9765 16.2343V4.90624C26.9765 3.82929 27.8527 2.95312 28.9296 2.95312H47.0937C48.1706 2.95312 49.0468 3.82929 49.0468 4.90624V16.2343Z" fill="#17498A"/>
<path d="M41.9336 9.72465L35.25 5.86587C34.9478 5.69136 34.5756 5.69136 34.2734 5.86587C33.9713 6.04028 33.7852 6.36274 33.7852 6.71157V14.429C33.7852 14.7779 33.9713 15.1003 34.2734 15.2747C34.4245 15.362 34.5931 15.4056 34.7617 15.4056C34.9304 15.4056 35.0989 15.362 35.25 15.2747L41.9336 11.416C42.2357 11.2415 42.4219 10.9191 42.4219 10.5703C42.4219 10.2214 42.2358 9.89906 41.9336 9.72465ZM35.7383 12.7376V8.40307L39.4922 10.5704L35.7383 12.7376Z" fill="#17498A"/>
<path d="M21.9492 11.2539H12.1836C11.6442 11.2539 11.207 11.6912 11.207 12.2305C11.207 12.7697 11.6442 13.207 12.1836 13.207H21.9492C22.4886 13.207 22.9258 12.7697 22.9258 12.2305C22.9258 11.6912 22.4886 11.2539 21.9492 11.2539Z" fill="#17498A"/>
<path d="M22.6396 17.0088C22.458 16.827 22.2061 16.7227 21.9492 16.7227C21.6924 16.7227 21.4404 16.827 21.2588 17.0088C21.0771 17.1904 20.9727 17.4424 20.9727 17.6992C20.9727 17.9561 21.0771 18.208 21.2588 18.3895C21.4404 18.5712 21.6924 18.6758 21.9492 18.6758C22.207 18.6758 22.458 18.5713 22.6396 18.3895C22.8213 18.208 22.9258 17.9561 22.9258 17.6992C22.9258 17.4424 22.8213 17.1904 22.6396 17.0088Z" fill="#17498A"/>
<path d="M18.286 16.7227H12.1836C11.6442 16.7227 11.207 17.16 11.207 17.6992C11.207 18.2385 11.6442 18.6758 12.1836 18.6758H18.286C18.8254 18.6758 19.2626 18.2385 19.2626 17.6992C19.2626 17.16 18.8254 16.7227 18.286 16.7227Z" fill="#17498A"/>
</svg>
