<svg width="54" height="54" viewBox="0 0 54 54" fill="none" xmlns="http://www.w3.org/2000/svg">
<g clip-path="url(#clip0_2896_14679)">
<path d="M26.5113 45.6457C26.3151 45.4495 26.043 45.3365 25.7656 45.3365C25.4882 45.3365 25.2161 45.4494 25.02 45.6457C24.8238 45.8417 24.7109 46.1139 24.7109 46.3912C24.7109 46.6698 24.8238 46.9407 25.02 47.1369C25.2161 47.3341 25.4882 47.4459 25.7656 47.4459C26.043 47.4459 26.3151 47.3341 26.5113 47.1369C26.7075 46.9407 26.8203 46.6687 26.8203 46.3912C26.8203 46.1139 26.7074 45.8417 26.5113 45.6457Z" fill="white"/>
<path d="M31.5332 35.9162V28.1556C31.5332 27.8052 31.3592 27.4776 31.0688 27.2816C30.7785 27.0855 30.4096 27.0465 30.0845 27.1772L11.9109 34.4964H6.05737C2.7174 34.4964 0 37.2138 0 40.554C0 43.8942 2.7174 46.6116 6.05759 46.6116H6.75463V52.9452C6.75463 53.5276 7.22681 53.9999 7.80931 53.9999H12.115C12.6975 53.9999 13.1696 53.5276 13.1696 52.9452V47.1204L30.085 53.9237C30.2119 53.9748 30.3455 54 30.4784 54C30.686 54 30.8921 53.9387 31.069 53.8192C31.3593 53.6232 31.5332 53.2956 31.5332 52.9453V45.1848C33.6483 44.7036 35.2322 42.8092 35.2322 40.5505C35.2322 38.2919 33.6483 36.3974 31.5332 35.9162ZM11.0602 51.8905H8.864V46.6115H11.0603V51.8905H11.0602ZM11.0604 44.5021H6.05759C3.8805 44.5021 2.10937 42.731 2.10937 40.554C2.10937 38.3769 3.8805 36.6058 6.05759 36.6058H11.0608L11.0604 44.5021ZM29.4239 51.3842H29.4238L13.1702 44.8469V36.2633L24.7113 31.6153V42.082C24.7113 42.6643 25.1835 43.1366 25.766 43.1366C26.3485 43.1366 26.8207 42.6643 26.8207 42.082V30.7657L29.4239 29.7172V51.3842ZM31.5332 42.9746V38.1262C32.4678 38.5344 33.1228 39.4672 33.1228 40.5504C33.1228 41.6337 32.4679 42.5665 31.5332 42.9746Z" fill="white" stroke="#17498A"/>
<path d="M45.2956 39.527H39.3242C38.7417 39.527 38.2695 39.9993 38.2695 40.5817C38.2695 41.1641 38.7417 41.6363 39.3242 41.6363H45.2956C45.8781 41.6363 46.3503 41.1641 46.3503 40.5817C46.3503 39.9993 45.8781 39.527 45.2956 39.527Z" fill="white" stroke="#17498A"/>
<path d="M40.3955 31.7986C39.9836 31.3868 39.3158 31.3868 38.9039 31.7986L36.844 33.8584C36.4322 34.2702 36.4322 34.938 36.844 35.35C37.0501 35.5559 37.32 35.6589 37.5899 35.6589C37.8598 35.6589 38.1298 35.5559 38.3357 35.35L40.3955 33.2902C40.8073 32.8783 40.8073 32.2105 40.3955 31.7986Z" fill="white" stroke="#17498A"/>
<path d="M40.4722 47.7747L38.3435 45.646C37.9316 45.2342 37.2638 45.2342 36.8519 45.646C36.44 46.0578 36.44 46.7257 36.8519 47.1376L38.9806 49.2664C39.1866 49.4723 39.4565 49.5753 39.7264 49.5753C39.9963 49.5753 40.2663 49.4723 40.4722 49.2664C40.884 48.8545 40.884 48.1867 40.4722 47.7747Z" fill="white" stroke="#17498A"/>
<path d="M49.7812 0H30.164C27.8378 0 25.9453 1.89253 25.9453 4.21874V4.64062H8.22656C6.83079 4.64062 5.69531 5.7762 5.69531 7.17186V23.8359C5.69531 25.2316 6.83079 26.3671 8.22656 26.3671H9.31636V29.6015C9.31636 30.0282 9.57339 30.4127 9.96742 30.576C10.0979 30.63 10.2349 30.6562 10.3708 30.6562C10.6453 30.6562 10.9151 30.5491 11.1168 30.3473L15.097 26.3671H36.0471C37.4428 26.3671 38.5783 25.2316 38.5783 23.8359V20.6718H49.7812C52.1074 20.6718 53.9999 18.7793 53.9999 16.4531V4.21874C53.9998 1.89253 52.1074 0 49.7812 0ZM36.4689 23.8359C36.4689 24.0686 36.2797 24.2578 36.0471 24.2578H14.6601C14.3804 24.2578 14.1121 24.3689 13.9144 24.5667L11.4258 27.0553V25.3125C11.4258 24.7301 10.9537 24.2578 10.3712 24.2578H8.22656C7.99389 24.2578 7.80468 24.0686 7.80468 23.8359V7.17186C7.80468 6.9392 7.99389 6.74999 8.22656 6.74999H25.9453V16.4531C25.9453 18.7793 27.8378 20.6718 30.164 20.6718H36.4689V23.8359ZM51.8905 16.4531C51.8905 17.6162 50.9443 18.5625 49.7812 18.5625H30.164C29.0009 18.5625 28.0546 17.6162 28.0546 16.4531V4.21874C28.0546 3.05563 29.0009 2.10937 30.164 2.10937H49.7812C50.9443 2.10937 51.8905 3.05563 51.8905 4.21874V16.4531Z" fill="white" stroke="#17498A"/>
<path d="M44.2105 9.42261L36.9922 5.25512C36.6659 5.06665 36.2638 5.06665 35.9375 5.25512C35.6112 5.44349 35.4102 5.79175 35.4102 6.16848V14.5033C35.4102 14.8801 35.6112 15.2283 35.9375 15.4167C36.1007 15.511 36.2827 15.558 36.4648 15.558C36.647 15.558 36.829 15.511 36.9922 15.4167L44.2105 11.2492C44.5368 11.0609 44.7378 10.7126 44.7378 10.3359C44.7378 9.95913 44.5369 9.61097 44.2105 9.42261ZM37.5195 12.6766V7.9953L41.5737 10.336L37.5195 12.6766Z" fill="white" stroke="#17498A"/>
<path d="M22.625 11.0742H12.0781C11.4956 11.0742 11.0234 11.5465 11.0234 12.1289C11.0234 12.7113 11.4956 13.1836 12.0781 13.1836H22.625C23.2075 13.1836 23.6797 12.7113 23.6797 12.1289C23.6797 11.5465 23.2075 11.0742 22.625 11.0742Z" fill="white" stroke="#17498A"/>
<path d="M23.3707 17.2895C23.1745 17.0932 22.9024 16.9805 22.625 16.9805C22.3476 16.9805 22.0755 17.0932 21.8793 17.2895C21.6832 17.4857 21.5703 17.7578 21.5703 18.0352C21.5703 18.3125 21.6832 18.5846 21.8793 18.7807C22.0755 18.9769 22.3476 19.0898 22.625 19.0898C22.9034 19.0898 23.1745 18.977 23.3707 18.7807C23.5668 18.5846 23.6797 18.3125 23.6797 18.0352C23.6797 17.7578 23.5668 17.4857 23.3707 17.2895Z" fill="white" stroke="#17498A"/>
<path d="M18.6687 16.9805H12.0781C11.4956 16.9805 11.0234 17.4528 11.0234 18.0352C11.0234 18.6176 11.4956 19.0898 12.0781 19.0898H18.6687C19.2513 19.0898 19.7234 18.6176 19.7234 18.0352C19.7234 17.4528 19.2513 16.9805 18.6687 16.9805Z" fill="white" stroke="#17498A"/>
</g>
<defs>
<clipPath id="clip0_2896_14679">
<rect width="54" height="54" fill="white"/>
</clipPath>
</defs>
</svg>
