<svg width="62" height="62" viewBox="0 0 62 62" fill="none" xmlns="http://www.w3.org/2000/svg">
<g clip-path="url(#clip0_2896_14731)">
<path d="M59.0125 27.1024L59.4836 26.2208C60.6637 24.0124 59.8272 21.2557 57.6188 20.0755C55.4104 18.8955 52.6536 19.7319 51.4734 21.9403L46.9999 30.3115V9.99023C46.9999 7.48626 44.9628 5.44922 42.4589 5.44922H34.4442C32.209 2.16273 28.4392 0 24.1738 0C19.9084 0 16.1387 2.16273 13.9035 5.44922H5.88867C3.3847 5.44922 1.34766 7.48626 1.34766 9.99023V19.0723C1.34766 19.5738 1.75429 19.9805 2.25586 19.9805C2.75743 19.9805 3.16406 19.5738 3.16406 19.0723V9.99023C3.16406 8.48782 4.38626 7.26562 5.88867 7.26562H12.8795C12.1619 8.83427 11.7617 10.5773 11.7617 12.4121C11.7617 19.2562 17.3297 24.8242 24.1738 24.8242C31.0179 24.8242 36.5859 19.2562 36.5859 12.4121C36.5859 10.5773 36.1857 8.83427 35.4681 7.26562H42.459C43.9614 7.26562 45.1836 8.48782 45.1836 9.99023V33.7106L40.8007 41.912H40.8008C40.7355 42.0344 40.6978 42.1721 40.6939 42.3154L40.5392 48.0145C40.5172 48.8221 40.9462 49.5603 41.6588 49.941C42.3626 50.3171 43.2317 50.2624 43.8826 49.8011L45.1836 48.8795V57.459C45.1836 58.9614 43.9614 60.1836 42.459 60.1836H36.4043C35.9027 60.1836 35.4961 60.5902 35.4961 61.0918C35.4961 61.5934 35.9027 62 36.4043 62H42.459C44.963 62 47 59.963 47 57.459V47.5927L48.5347 46.5056C48.6517 46.4227 48.7452 46.315 48.8106 46.1925H48.8107L52.5653 39.1666C52.7685 39.3894 53.0123 39.5819 53.293 39.7319C54.6025 40.4318 56.2813 39.9207 56.9802 38.613L60.1193 32.739C61.1528 30.805 60.6395 28.4503 59.0125 27.1024ZM24.1738 23.0078C18.3313 23.0078 13.5781 18.2546 13.5781 12.4121C13.5781 6.56958 18.3313 1.81641 24.1738 1.81641C30.0164 1.81641 34.7695 6.56958 34.7695 12.4121C34.7695 18.2546 30.0162 23.0078 24.1738 23.0078ZM53.0755 22.7965C53.775 21.4876 55.4515 20.9769 56.7627 21.6776C58.0715 22.377 58.5823 24.0536 57.8815 25.3648L57.4534 26.1658L52.6474 23.5975L53.0755 22.7965ZM51.7913 25.1995L56.5973 27.7678L55.7412 29.3698L50.9352 26.8016L51.7913 25.1995ZM42.8326 48.3192C42.6308 48.4621 42.3482 48.3104 42.3548 48.0639L42.4698 43.8336L46.2857 45.8727L42.8326 48.3192ZM47.6367 44.5354L42.8307 41.9671L50.0792 28.4035L54.8851 30.9718L47.6367 44.5354ZM58.5172 31.883L55.3781 37.757C55.142 38.1987 54.5906 38.3658 54.1491 38.13C53.7079 37.8942 53.5405 37.3437 53.7754 36.9022L58.1266 28.76C58.8981 29.6031 59.0551 30.8764 58.5172 31.883Z" fill="white" stroke="#17498A" stroke-width="0.5"/>
<path d="M32.166 60.1836H5.88867C4.38626 60.1836 3.16406 58.9614 3.16406 57.459V23.3105C3.16406 22.809 2.75743 22.4023 2.25586 22.4023C1.75429 22.4023 1.34766 22.809 1.34766 23.3105V57.459C1.34766 59.963 3.3847 62 5.88867 62H32.166C32.6676 62 33.0742 61.5934 33.0742 61.0918C33.0742 60.5902 32.6676 60.1836 32.166 60.1836Z" fill="white" stroke="#17498A" stroke-width="0.5"/>
<path d="M36.4053 55.9453H23.5996C23.098 55.9453 22.6914 55.5387 22.6914 55.0371C22.6914 54.5355 23.098 54.1289 23.5996 54.1289H36.4053C36.9068 54.1289 37.3135 54.5355 37.3135 55.0371C37.3135 55.5387 36.9068 55.9453 36.4053 55.9453Z" fill="white" stroke="#17498A" stroke-width="0.5"/>
<path d="M36.4053 49.8906H23.5996C23.098 49.8906 22.6914 49.484 22.6914 48.9824C22.6914 48.4809 23.098 48.0742 23.5996 48.0742H36.4053C36.9068 48.0742 37.3135 48.4809 37.3135 48.9824C37.3135 49.484 36.9068 49.8906 36.4053 49.8906Z" fill="white" stroke="#17498A" stroke-width="0.5"/>
<path d="M36.4053 43.8359H23.5996C23.098 43.8359 22.6914 43.4293 22.6914 42.9277C22.6914 42.4262 23.098 42.0195 23.5996 42.0195H36.4053C36.9068 42.0195 37.3135 42.4262 37.3135 42.9277C37.3135 43.4293 36.9068 43.8359 36.4053 43.8359Z" fill="white" stroke="#17498A" stroke-width="0.5"/>
<path d="M36.4053 37.7812H23.5996C23.098 37.7812 22.6914 37.3746 22.6914 36.873C22.6914 36.3715 23.098 35.9648 23.5996 35.9648H36.4053C36.9068 35.9648 37.3135 36.3715 37.3135 36.873C37.3135 37.3746 36.9068 37.7812 36.4053 37.7812Z" fill="white" stroke="#17498A" stroke-width="0.5"/>
<path d="M14.2978 55.9454C14.0726 55.9454 13.8473 55.8622 13.6716 55.6948L11.317 53.4523C10.9537 53.1063 10.9398 52.5315 11.2857 52.1682C11.6316 51.805 12.2066 51.791 12.5697 52.1368L14.2728 53.7589L17.3463 50.5923C17.6958 50.2323 18.2707 50.2239 18.6305 50.5731C18.9904 50.9225 18.999 51.4975 18.6496 51.8574L14.9495 55.6695C14.7716 55.8531 14.5349 55.9454 14.2978 55.9454Z" fill="white" stroke="#17498A" stroke-width="0.5"/>
<path d="M14.2978 48.7694C14.0726 48.7694 13.8473 48.6863 13.6716 48.5189L11.317 46.2764C10.9537 45.9304 10.9398 45.3556 11.2857 44.9923C11.6316 44.6291 12.2066 44.6151 12.5697 44.9609L14.2728 46.583L17.3463 43.4164C17.6958 43.0564 18.2707 43.048 18.6305 43.3972C18.9904 43.7466 18.999 44.3216 18.6496 44.6814L14.9495 48.4936C14.7716 48.6772 14.5349 48.7694 14.2978 48.7694Z" fill="white" stroke="#17498A" stroke-width="0.5"/>
<path d="M14.2978 41.5934C14.0726 41.5934 13.8473 41.5102 13.6716 41.3429L11.317 39.1003C10.9537 38.7544 10.9398 38.1796 11.2857 37.8163C11.6316 37.4531 12.2066 37.4391 12.5697 37.7849L14.2728 39.407L17.3463 36.2404C17.6958 35.8803 18.2707 35.872 18.6305 36.2212C18.9904 36.5706 18.999 37.1455 18.6496 37.5054L14.9495 41.3176C14.7716 41.5012 14.5349 41.5934 14.2978 41.5934Z" fill="white" stroke="#17498A" stroke-width="0.5"/>
<path d="M24.1738 11.5039C23.0054 11.5039 22.0547 10.5532 22.0547 9.38477C22.0547 8.21633 23.0053 7.26562 24.1738 7.26562C25.3424 7.26562 26.293 8.21633 26.293 9.38477C26.293 9.88634 26.6995 10.293 27.2012 10.293C27.7029 10.293 28.1094 9.88634 28.1094 9.38477C28.1094 7.52719 26.8157 5.96617 25.082 5.55505V4.54102C25.082 4.03945 24.6755 3.63281 24.1738 3.63281C23.6721 3.63281 23.2656 4.03945 23.2656 4.54102V5.55505C21.5319 5.96617 20.2383 7.52719 20.2383 9.38477C20.2383 11.5548 22.0037 13.3203 24.1738 13.3203C25.3423 13.3203 26.293 14.271 26.293 15.4395C26.293 16.6079 25.3423 17.5586 24.1738 17.5586C23.0054 17.5586 22.0547 16.6079 22.0547 15.4395C22.0547 14.9379 21.6482 14.5312 21.1465 14.5312C20.6448 14.5312 20.2383 14.9379 20.2383 15.4395C20.2383 17.297 21.5319 18.8581 23.2656 19.2692V20.2832C23.2656 20.7848 23.6721 21.1914 24.1738 21.1914C24.6755 21.1914 25.082 20.7848 25.082 20.2832V19.2692C26.8157 18.8581 28.1094 17.297 28.1094 15.4395C28.1094 13.2695 26.3439 11.5039 24.1738 11.5039Z" fill="white" stroke="#17498A"/>
<path d="M16.2324 31.0869C15.7309 31.0869 15.3242 30.6803 15.3242 30.1787V28.7256C15.3242 28.224 15.7309 27.8174 16.2324 27.8174C16.734 27.8174 17.1406 28.224 17.1406 28.7256V30.1787C17.1406 30.6803 16.734 31.0869 16.2324 31.0869Z" fill="white" stroke="#17498A" stroke-width="0.5"/>
<path d="M24.1742 32.0321C23.1092 32.0321 22.0963 31.5707 21.3954 30.7665C21.0659 30.3883 21.1052 29.8147 21.4834 29.4851C21.8616 29.1556 22.4353 29.195 22.7648 29.5731C23.1207 29.9816 23.6344 30.2158 24.1744 30.2158C24.7143 30.2158 25.228 29.9816 25.5838 29.5733C25.9133 29.195 26.4869 29.1556 26.8652 29.4852C27.2434 29.8147 27.2827 30.3883 26.9532 30.7666C26.2522 31.5708 25.2394 32.0321 24.1742 32.0321Z" fill="white" stroke="#17498A" stroke-width="0.5"/>
<path d="M34.0847 31.0464C33.5831 31.0464 33.1765 30.6397 33.1765 30.1382C33.1765 29.7104 32.8284 29.3624 32.4007 29.3624C31.973 29.3624 31.625 29.7104 31.625 30.1382C31.625 30.6397 31.2184 31.0464 30.7168 31.0464C30.2152 31.0464 29.8086 30.6397 29.8086 30.1382C29.8086 28.7089 30.9715 27.546 32.4007 27.546C33.83 27.546 34.9929 28.7089 34.9929 30.1382C34.9929 30.6397 34.5862 31.0464 34.0847 31.0464Z" fill="white" stroke="#17498A" stroke-width="0.5"/>
</g>
<defs>
<clipPath id="clip0_2896_14731">
<rect width="62" height="62" fill="white"/>
</clipPath>
</defs>
</svg>
