<svg width="49" height="52" viewBox="0 0 49 52" fill="none" xmlns="http://www.w3.org/2000/svg">
<path d="M46.8516 22.8567L47.2314 22.1458C48.1832 20.3648 47.5086 18.1417 45.7276 17.1899C43.9467 16.2383 41.7234 16.9128 40.7717 18.6938L37.164 25.4447V9.05664C37.164 7.0373 35.5212 5.39453 33.5019 5.39453H27.0384C25.2358 2.74414 22.1957 1 18.7559 1C15.316 1 12.2759 2.74414 10.4733 5.39453H4.00977C1.99043 5.39453 0.347656 7.0373 0.347656 9.05664V16.3809C0.347656 16.7854 0.675586 17.1133 1.08008 17.1133C1.48457 17.1133 1.8125 16.7854 1.8125 16.3809V9.05664C1.8125 7.84502 2.79814 6.85938 4.00977 6.85938H9.64756C9.06885 8.12441 8.74609 9.53008 8.74609 11.0098C8.74609 16.5292 13.2364 21.0195 18.7559 21.0195C24.2753 21.0195 28.7656 16.5292 28.7656 11.0098C28.7656 9.53008 28.4429 8.12441 27.8642 6.85938H33.502C34.7136 6.85938 35.6992 7.84502 35.6992 9.05664V28.1859L32.1646 34.8H32.1647C32.112 34.8987 32.0816 35.0098 32.0785 35.1253L31.9537 39.7214C31.936 40.3727 32.2819 40.968 32.8566 41.275C33.4242 41.5783 34.1251 41.5342 34.65 41.1622L35.6992 40.4189V47.3379C35.6992 48.5495 34.7136 49.5352 33.502 49.5352H28.6191C28.2146 49.5352 27.8867 49.8631 27.8867 50.2676C27.8867 50.6721 28.2146 51 28.6191 51H33.502C35.5213 51 37.1641 49.3572 37.1641 47.3379V39.3812L38.4018 38.5045C38.4961 38.4377 38.5715 38.3508 38.6242 38.2521H38.6243L41.6522 32.5859C41.8161 32.7656 42.0127 32.9209 42.2391 33.0419C43.2951 33.6063 44.649 33.1941 45.2126 32.1395L47.7441 27.4024C48.5776 25.8428 48.1637 23.9438 46.8516 22.8567ZM18.7559 19.5547C14.0441 19.5547 10.2109 15.7215 10.2109 11.0098C10.2109 6.29805 14.0441 2.46484 18.7559 2.46484C23.4676 2.46484 27.3008 6.29805 27.3008 11.0098C27.3008 15.7215 23.4675 19.5547 18.7559 19.5547ZM42.0637 19.3843C42.6277 18.3287 43.9798 17.9169 45.0372 18.4819C46.0927 19.046 46.5046 20.398 45.9395 21.4555L45.5942 22.1015L41.7185 20.0303L42.0637 19.3843ZM41.028 21.3222L44.9038 23.3934L44.2134 24.6854L40.3376 22.6142L41.028 21.3222ZM33.8032 39.9671C33.6405 40.0823 33.4126 39.96 33.418 39.7612L33.5106 36.3497L36.588 37.9941L33.8032 39.9671ZM37.6775 36.9156L33.8018 34.8444L39.6473 23.9061L43.523 25.9772L37.6775 36.9156ZM46.4521 26.7121L43.9206 31.4492C43.7302 31.8054 43.2855 31.9401 42.9295 31.75C42.5736 31.5599 42.4387 31.1159 42.6281 30.7599L46.1371 24.1936C46.7593 24.8734 46.8859 25.9003 46.4521 26.7121Z" fill="#17498A" stroke="white" stroke-width="0.25"/>
<path d="M25.2012 49.5352H4.00977C2.79814 49.5352 1.8125 48.5495 1.8125 47.3379V19.7988C1.8125 19.3943 1.48457 19.0664 1.08008 19.0664C0.675586 19.0664 0.347656 19.3943 0.347656 19.7988V47.3379C0.347656 49.3572 1.99043 51 4.00977 51H25.2012C25.6057 51 25.9336 50.6721 25.9336 50.2676C25.9336 49.8631 25.6057 49.5352 25.2012 49.5352Z" fill="#17498A" stroke="white" stroke-width="0.25"/>
<path d="M28.6221 46.1172H18.2949C17.8904 46.1172 17.5625 45.7893 17.5625 45.3848C17.5625 44.9803 17.8904 44.6523 18.2949 44.6523H28.6221C29.0266 44.6523 29.3545 44.9803 29.3545 45.3848C29.3545 45.7893 29.0266 46.1172 28.6221 46.1172Z" fill="#17498A" stroke="white" stroke-width="0.25"/>
<path d="M28.6221 41.2344H18.2949C17.8904 41.2344 17.5625 40.9064 17.5625 40.502C17.5625 40.0975 17.8904 39.7695 18.2949 39.7695H28.6221C29.0266 39.7695 29.3545 40.0975 29.3545 40.502C29.3545 40.9064 29.0266 41.2344 28.6221 41.2344Z" fill="#17498A" stroke="white" stroke-width="0.25"/>
<path d="M28.6221 36.3516H18.2949C17.8904 36.3516 17.5625 36.0236 17.5625 35.6191C17.5625 35.2146 17.8904 34.8867 18.2949 34.8867H28.6221C29.0266 34.8867 29.3545 35.2146 29.3545 35.6191C29.3545 36.0236 29.0266 36.3516 28.6221 36.3516Z" fill="#17498A" stroke="white" stroke-width="0.25"/>
<path d="M28.6221 31.4688H18.2949C17.8904 31.4688 17.5625 31.1408 17.5625 30.7363C17.5625 30.3318 17.8904 30.0039 18.2949 30.0039H28.6221C29.0266 30.0039 29.3545 30.3318 29.3545 30.7363C29.3545 31.1408 29.0266 31.4688 28.6221 31.4688Z" fill="#17498A" stroke="white" stroke-width="0.25"/>
<path d="M10.7913 46.1173C10.6097 46.1173 10.428 46.0502 10.2863 45.9152L8.38747 44.1067C8.09451 43.8277 8.08328 43.3642 8.36218 43.0712C8.64119 42.7783 9.10486 42.767 9.39773 43.0459L10.7712 44.354L13.2498 41.8003C13.5316 41.51 13.9953 41.5032 14.2854 41.7849C14.5757 42.0666 14.5826 42.5303 14.3009 42.8205L11.3169 45.8948C11.1734 46.0429 10.9825 46.1173 10.7913 46.1173Z" fill="#17498A" stroke="white" stroke-width="0.25"/>
<path d="M10.7913 40.3302C10.6097 40.3302 10.428 40.2631 10.2863 40.1281L8.38747 38.3196C8.09451 38.0406 8.08328 37.577 8.36218 37.2841C8.64119 36.9912 9.10486 36.9799 9.39773 37.2588L10.7712 38.5669L13.2498 36.0132C13.5316 35.7228 13.9953 35.7161 14.2854 35.9977C14.5757 36.2795 14.5826 36.7432 14.3009 37.0334L11.3169 40.1077C11.1734 40.2558 10.9825 40.3302 10.7913 40.3302Z" fill="#17498A" stroke="white" stroke-width="0.25"/>
<path d="M10.7913 34.5431C10.6097 34.5431 10.428 34.476 10.2863 34.341L8.38747 32.5325C8.09451 32.2535 8.08328 31.7899 8.36218 31.497C8.64119 31.2041 9.10486 31.1928 9.39773 31.4717L10.7712 32.7798L13.2498 30.2261C13.5316 29.9357 13.9953 29.929 14.2854 30.2106C14.5757 30.4924 14.5826 30.956 14.3009 31.2463L11.3169 34.3206C11.1734 34.4686 10.9825 34.5431 10.7913 34.5431Z" fill="#17498A" stroke="white" stroke-width="0.25"/>
<path d="M18.7559 10.2773C17.8136 10.2773 17.0469 9.51064 17.0469 8.56836C17.0469 7.62607 17.8135 6.85938 18.7559 6.85938C19.6982 6.85938 20.4648 7.62607 20.4648 8.56836C20.4648 8.97285 20.7927 9.30078 21.1973 9.30078C21.6019 9.30078 21.9297 8.97285 21.9297 8.56836C21.9297 7.07031 20.8864 5.81143 19.4883 5.47988V4.66211C19.4883 4.25762 19.1604 3.92969 18.7559 3.92969C18.3513 3.92969 18.0234 4.25762 18.0234 4.66211V5.47988C16.6253 5.81143 15.582 7.07031 15.582 8.56836C15.582 10.3184 17.0058 11.7422 18.7559 11.7422C19.6981 11.7422 20.4648 12.5089 20.4648 13.4512C20.4648 14.3935 19.6981 15.1602 18.7559 15.1602C17.8136 15.1602 17.0469 14.3935 17.0469 13.4512C17.0469 13.0467 16.719 12.7188 16.3145 12.7188C15.9099 12.7188 15.582 13.0467 15.582 13.4512C15.582 14.9492 16.6253 16.2081 18.0234 16.5396V17.3574C18.0234 17.7619 18.3513 18.0898 18.7559 18.0898C19.1604 18.0898 19.4883 17.7619 19.4883 17.3574V16.5396C20.8864 16.2081 21.9297 14.9492 21.9297 13.4512C21.9297 11.7012 20.506 10.2773 18.7559 10.2773Z" fill="#17498A" stroke="white" stroke-width="0.25"/>
<path d="M12.3535 26.0702C11.949 26.0702 11.6211 25.7423 11.6211 25.3378V24.1659C11.6211 23.7614 11.949 23.4335 12.3535 23.4335C12.758 23.4335 13.0859 23.7614 13.0859 24.1659V25.3378C13.0859 25.7423 12.758 26.0702 12.3535 26.0702Z" fill="#17498A" stroke="white" stroke-width="0.25"/>
<path d="M18.7572 26.8324C17.8983 26.8324 17.0814 26.4603 16.5162 25.8118C16.2505 25.5068 16.2822 25.0442 16.5872 24.7784C16.8922 24.5127 17.3549 24.5444 17.6206 24.8494C17.9076 25.1788 18.3218 25.3676 18.7573 25.3676C19.1927 25.3676 19.607 25.1788 19.8939 24.8495C20.1596 24.5444 20.6222 24.5127 20.9273 24.7785C21.2323 25.0442 21.264 25.5068 20.9983 25.8119C20.433 26.4604 19.6162 26.8324 18.7572 26.8324Z" fill="#17498A" stroke="white" stroke-width="0.25"/>
<path d="M26.7492 26.0375C26.3447 26.0375 26.0168 25.7095 26.0168 25.305C26.0168 24.9601 25.7361 24.6794 25.3912 24.6794C25.0463 24.6794 24.7656 24.9601 24.7656 25.305C24.7656 25.7095 24.4377 26.0375 24.0332 26.0375C23.6287 26.0375 23.3008 25.7095 23.3008 25.305C23.3008 24.1524 24.2386 23.2146 25.3912 23.2146C26.5438 23.2146 27.4816 24.1524 27.4816 25.305C27.4816 25.7095 27.1537 26.0375 26.7492 26.0375Z" fill="#17498A" stroke="white" stroke-width="0.25"/>
</svg>
