<svg width="56" height="56" viewBox="0 0 56 56" fill="none" xmlns="http://www.w3.org/2000/svg">
    <g clip-path="url(#clip0_2891_14547)">
        <path
            d="M28.5582 30.3594L28.4442 30.0175C28.4413 30.0086 28.439 30.001 28.4374 29.9957L28.4357 29.9898L28.3687 29.7984L28.4633 29.6093L32.5349 21.4665C32.8165 20.9029 32.5884 20.218 32.0249 19.936L28.5582 30.3594ZM28.5582 30.3594H28.9186M28.5582 30.3594H28.9186M28.9186 30.3594H50.8448C51.4714 30.3594 52.082 30.107 52.5244 29.6641C52.9721 29.2163 53.2188 28.6187 53.2188 27.9855V8.65515C53.2188 8.02195 52.9721 7.42409 52.5244 6.97692C52.0816 6.53347 51.4712 6.28125 50.8448 6.28125H26.2427C24.933 6.28125 23.8688 7.346 23.8688 8.65515V26.0693V26.3791L24.1463 26.517C24.9523 26.9177 25.7045 27.2923 26.3517 27.6148L26.7986 27.8375M28.9186 30.3594L26.7986 27.8375M26.7986 27.8375L27.0219 27.3909M26.7986 27.8375L27.0219 27.3909M27.0219 27.3909L30.4945 20.4461C30.4945 20.4461 30.4946 20.4461 30.4946 20.446M27.0219 27.3909L30.4946 20.446M30.4946 20.446C30.7765 19.8826 31.4617 19.6545 32.0248 19.936L30.4946 20.446ZM20.865 24.8849L21.5876 25.2443V24.4372V8.65515C21.5876 6.08883 23.6764 4 26.2427 4H50.8448C53.3636 4 55.5 6.03184 55.5 8.65515V27.9855C55.5 30.6084 53.3636 32.6406 50.8448 32.6406H42.5811H41.8648L42.1117 33.313L48.4008 50.437L48.4008 50.4372C48.6182 51.0284 48.3148 51.6836 47.7236 51.9008L47.896 52.3701L47.7236 51.9008C47.0479 52.149 46.4414 51.7181 46.2594 51.2236C46.2594 51.2236 46.2594 51.2235 46.2594 51.2235L39.5551 32.9683L39.4348 32.6406H39.0858H37.9356H37.5854L37.4657 32.9698L30.8293 51.2199C30.8293 51.22 30.8293 51.22 30.8293 51.22C30.6416 51.7358 30.0334 52.1442 29.3677 51.902L29.3674 51.9019C28.7756 51.6869 28.4699 51.0322 28.6852 50.4403L28.6852 50.4402L34.914 33.3115L35.158 32.6406H34.4442H28.5618H28.2633L28.1217 32.9034C27.0292 34.9305 24.6081 35.4715 22.8155 34.5754L17.5629 31.9496L16.8394 31.5878V32.3968V50.8303C16.8394 51.46 16.3287 51.9709 15.6987 51.9709H5.15515C4.52519 51.9709 4.01453 51.46 4.01453 50.8303V41.6595V41.3002L3.67395 41.1856C1.82993 40.5652 0.5 38.8198 0.5 36.7718V31.5C0.5 27.6103 2.6839 24.4701 5.54687 22.8594L6.16266 22.5129L5.63109 22.0474C4.10223 20.7087 3.13611 18.7466 3.13611 16.563C3.13611 12.5432 6.40714 9.27179 10.4274 9.27179C14.4471 9.27179 17.7182 12.5432 17.7182 16.563C17.7182 18.5154 16.9454 20.29 15.6893 21.6013L15.193 22.1194L15.8509 22.4057C16.0018 22.4714 16.1507 22.5404 16.2964 22.613L16.2968 22.6132L20.865 24.8849ZM26.2287 31.5545L26.2296 31.5518C26.477 30.8466 26.1582 30.0664 25.4894 29.734C24.453 29.2178 21.9002 27.9479 19.6068 26.8072L16.5827 25.3032L15.6325 24.8306L15.3707 24.7004L15.3022 24.6664L15.2847 24.6577L15.2803 24.6555L15.2795 24.6551C15.2795 24.6551 15.2794 24.655 15.2793 24.655C14.2283 24.1302 13.0534 23.8543 11.8766 23.8543H10.4269C6.27509 23.8543 2.78125 27.2092 2.78125 31.5V36.7718C2.78125 38.0814 3.8455 39.1457 5.15515 39.1457C5.78477 39.1457 6.29578 39.6567 6.29578 40.2863V49.1897V49.6897H6.79578H14.0581H14.5581V49.1897V29.7427C14.5581 28.8957 15.4519 28.3442 16.2083 28.7224L16.2084 28.7224L16.4319 28.2751L16.2085 28.7225L16.2086 28.7225L16.2093 28.7228L16.2117 28.7241L16.2215 28.7289L16.2598 28.7481L16.4082 28.8222L16.9615 29.0987L18.8523 30.0435C20.3692 30.8016 22.276 31.7547 23.8358 32.5351L23.8361 32.5352C24.28 32.7569 24.7988 32.7764 25.2592 32.5891L25.2609 32.5884C25.6998 32.408 26.0558 32.0391 26.2161 31.5918L26.2198 31.5816L26.223 31.5713C26.2239 31.5684 26.2255 31.5634 26.2287 31.5545ZM28.4342 29.9849L28.4344 29.9856C28.4339 29.9838 28.4336 29.9828 28.4342 29.9849ZM10.4269 11.553C7.6642 11.553 5.41736 13.7999 5.41736 16.563C5.41736 19.3258 7.66423 21.5726 10.4269 21.5726C13.1901 21.5726 15.437 19.3258 15.437 16.563C15.437 13.7999 13.1901 11.553 10.4269 11.553Z"
            fill="white" stroke="#17498A" />
        <path
            d="M29.7578 11.0291H47.3309C47.9609 11.0291 48.4715 11.5396 48.4715 12.1697C48.4715 12.7996 47.9606 13.3103 47.3309 13.3103H29.7578C29.1278 13.3103 28.6172 12.7997 28.6172 12.1697C28.6172 11.5396 29.1278 11.0291 29.7578 11.0291Z"
            fill="white" stroke="#17498A" />
        <path
            d="M38.543 17.1797H47.3297C47.9598 17.1797 48.4703 17.6903 48.4703 18.3203C48.4703 18.9503 47.9594 19.4609 47.3297 19.4609H38.543C37.9133 19.4609 37.4023 18.9503 37.4023 18.3203C37.4023 17.6904 37.9133 17.1797 38.543 17.1797Z"
            fill="white" stroke="#17498A" />
        <path
            d="M38.543 23.3303H47.3297C47.9598 23.3303 48.4703 23.8409 48.4703 24.4709C48.4703 25.1006 47.9593 25.6116 47.3297 25.6116H38.543C37.9133 25.6116 37.4023 25.1006 37.4023 24.4709C37.4023 23.841 37.9133 23.3303 38.543 23.3303Z"
            fill="white" stroke="#17498A" />
    </g>
    <defs>
        <clipPath id="clip0_2891_14547">
            <rect width="56" height="56" fill="white" />
        </clipPath>
    </defs>
</svg>
    