<svg width="58" height="50" viewBox="0 0 58 50" fill="none" xmlns="http://www.w3.org/2000/svg">
<path d="M21.3061 21.8229L22.0288 22.1823V21.3752V5.263C22.0288 2.63721 24.166 0.5 26.7918 0.5H51.9086C54.4857 0.5 56.6716 2.57887 56.6716 5.263V24.9977C56.6716 27.6815 54.4857 29.7607 51.9086 29.7607H43.4719H42.7556L43.0025 30.4331L49.4232 47.9154L49.4232 47.9156C49.6471 48.5245 49.3346 49.1995 48.7256 49.4232C48.0292 49.679 47.4047 49.2346 47.2174 48.7257C47.2174 48.7256 47.2174 48.7255 47.2174 48.7255L40.3728 30.0884L40.2525 29.7607H39.9035H38.7293H38.379L38.2594 30.0899L31.4841 48.7219C31.291 49.2529 30.6646 49.6741 29.9785 49.4244L29.9783 49.4243C29.3686 49.2028 29.0537 48.5285 29.2755 47.9187L29.2755 47.9187L35.6347 30.4316L35.8786 29.7607H35.1648H29.1594H28.8608L28.7192 30.0235C27.601 32.0985 25.1228 32.652 23.2881 31.7349L17.9257 29.0541L17.2021 28.6924V29.5013V48.3205C17.2021 48.9692 16.6761 49.4955 16.0272 49.4955H5.263C4.61408 49.4955 4.08805 48.9692 4.08805 48.3205V38.9578V38.5985L3.74748 38.4839C1.86075 37.8492 0.5 36.0633 0.5 33.9679V28.5858C0.5 24.6106 2.73194 21.4014 5.65778 19.7553L6.27358 19.4088L5.74201 18.9433C4.17901 17.5747 3.19126 15.5688 3.19126 13.3363C3.19126 9.22663 6.53541 5.88208 10.6455 5.88208C14.7552 5.88208 18.0993 9.22661 18.0993 13.3363C18.0993 15.3324 17.3092 17.1466 16.0251 18.4873L15.5288 19.0054L16.1866 19.2916C16.3409 19.3587 16.4931 19.4292 16.642 19.5035L16.6424 19.5037L21.3061 21.8229ZM26.7676 28.6379L26.7685 28.6352C27.0193 27.9203 26.6961 27.1292 26.018 26.7922C24.9599 26.2652 22.3537 24.9688 20.0123 23.8042L16.925 22.2687L15.9549 21.7863L15.6876 21.6533L15.6177 21.6185L15.5998 21.6097L15.5953 21.6074L15.5945 21.607C15.5944 21.607 15.5944 21.607 15.5943 21.6069C14.5227 21.0719 13.3249 20.7906 12.1251 20.7906H10.6451C6.41202 20.7906 2.8499 24.2111 2.8499 28.5858V33.9679C2.8499 35.2991 3.93173 36.381 5.263 36.381C5.91157 36.381 6.43795 36.9074 6.43795 37.5559V46.6456V47.1456H6.93795H14.3522H14.8522V46.6456V26.7918C14.8522 25.9192 15.7729 25.3511 16.552 25.7407L16.5522 25.7408L16.7751 25.2946L16.7752 25.2943L16.5523 25.7408L16.5524 25.7409L16.553 25.7412L16.5555 25.7424L16.5655 25.7474L16.6047 25.767L16.7562 25.8427L17.321 26.1249L19.2514 27.0895C20.8 27.8634 22.7467 28.8365 24.3392 29.6331L24.3395 29.6333C24.79 29.8582 25.3164 29.878 25.7837 29.688L25.7854 29.6873C26.2307 29.5042 26.5921 29.1298 26.7547 28.676L26.7584 28.6658L26.7616 28.6555C26.7626 28.6523 26.7643 28.647 26.7676 28.6379ZM29.0492 27.069L29.1632 27.4108H29.5236H51.9086C52.5455 27.4108 53.1662 27.1543 53.6158 26.7041C54.0709 26.2489 54.3217 25.6415 54.3217 24.9977V5.263C54.3217 4.61963 54.0712 4.01219 53.6165 3.55771C53.1664 3.10655 52.5456 2.8499 51.9086 2.8499H26.7918C25.4604 2.8499 24.3787 3.93224 24.3787 5.263V23.0414V23.3513L24.6561 23.4892C25.479 23.8982 26.2469 24.2807 26.9077 24.61L27.3546 24.8327L27.5779 24.3861L31.1232 17.296C31.1232 17.2959 31.1232 17.2959 31.1232 17.2959C31.4136 16.7155 32.1194 16.4805 32.6995 16.7705C33.2799 17.0609 33.515 17.7664 33.2249 18.3469C33.2249 18.347 33.2249 18.347 33.2249 18.347L29.0681 26.6602L28.9735 26.8493L29.0405 27.0408L29.0423 27.047C29.0439 27.0524 29.0463 27.06 29.0492 27.069ZM29.0391 27.036L29.0393 27.0366C29.0388 27.0349 29.0385 27.0339 29.0391 27.036ZM10.6451 8.23198C7.83032 8.23198 5.54116 10.5212 5.54116 13.3363C5.54116 16.1511 7.83035 18.4403 10.6451 18.4403C13.4602 18.4403 15.7494 16.1511 15.7494 13.3363C15.7494 10.5212 13.4603 8.23198 10.6451 8.23198Z" fill="#17498A" />
<path d="M30.382 7.67615H48.3227C48.9717 7.67615 49.4976 8.20209 49.4976 8.8511C49.4976 9.50002 48.9713 10.026 48.3227 10.026H30.382C29.733 10.026 29.207 9.5001 29.207 8.8511C29.207 8.20209 29.733 7.67615 30.382 7.67615Z" fill="#17498A" />
<path d="M39.3507 13.9554H48.3213C48.9703 13.9554 49.4963 14.4814 49.4963 15.1304C49.4963 15.7793 48.97 16.3053 48.3213 16.3053H39.3507C38.7021 16.3053 38.1758 15.7793 38.1758 15.1304C38.1758 14.4815 38.7021 13.9554 39.3507 13.9554Z" fill="#17498A"/>
<path d="M39.3507 20.2347H48.3213C48.9703 20.2347 49.4963 20.7607 49.4963 21.4097C49.4963 22.0583 48.9699 22.5846 48.3213 22.5846H39.3507C38.7022 22.5846 38.1758 22.0583 38.1758 21.4097C38.1758 20.7608 38.7021 20.2347 39.3507 20.2347Z" fill="#17498A" />
</svg>
