<svg width="54" height="54" viewBox="0 0 54 54" fill="none" xmlns="http://www.w3.org/2000/svg">
<g clip-path="url(#clip0_2891_14605)">
<path d="M17.9219 22.8151H16.3398V21.233H17.9219V22.8151ZM15.2852 22.8151H13.7031V21.233H15.2852V22.8151Z" fill="#17498A"/>
<path d="M15.8129 34.0025C18.7149 29.7191 26.548 17.5634 26.548 12.4227C26.548 6.50322 21.7323 1.6875 15.8129 1.6875C9.89384 1.6875 5.07812 6.50322 5.07812 12.4227C5.07812 17.5634 12.9108 29.7191 15.8129 34.0025ZM6.66016 12.4227C6.66016 7.3754 10.766 3.26953 15.8129 3.26953C20.8597 3.26953 24.966 7.3754 24.966 12.4227C24.966 16.7325 18.1822 27.5389 15.8129 31.1602C13.4555 27.557 6.66016 16.7362 6.66016 12.4227Z" fill="#17498A"/>
<path d="M20.9122 12.4226C20.9122 9.60995 18.624 7.32178 15.8113 7.32178C12.9991 7.32178 10.7109 9.60995 10.7109 12.4226C10.7109 15.2348 12.9991 17.523 15.8113 17.523C18.624 17.523 20.9122 15.2348 20.9122 12.4226ZM12.293 12.4226C12.293 10.4821 13.8713 8.90381 15.8113 8.90381C17.7518 8.90381 19.3301 10.4821 19.3301 12.4226C19.3301 14.3626 17.7518 15.941 15.8113 15.941C13.8713 15.941 12.293 14.3626 12.293 12.4226Z" fill="#17498A"/>
<path d="M50.4647 17.0826L42.4891 25.0583H39.3926L32.7295 18.3025H26.3202V19.8846H32.0679L38.7309 26.6403H43.1445L50.4647 19.3201L52.418 21.273V23.6365L50.5327 25.5218V38.2926L48.0604 40.7649L48.0612 44.3578L49.8826 46.1792V47.6529L48.7381 48.7974L44.7109 44.7698H32.0691L30.7919 47.8536L32.1091 49.1707L30.6078 50.672H28.7415L22.8393 44.7698H12.7119L1.58203 33.64V19.8846H5.3031V18.3025H0V34.2955L12.0564 46.3519H22.1843L28.086 52.254H31.2628L34.3461 49.1707L32.6578 47.4819L33.1263 46.3519H44.0555L48.7381 51.0345L51.4646 48.3084V45.5242L49.6428 43.7024V41.42L52.1147 38.948V26.1768L54 24.292V20.6179L50.4647 17.0826Z" fill="#17498A"/>
</g>
<defs>
<clipPath id="clip0_2891_14605">
<rect width="54" height="54" fill="#17498A"/>
</clipPath>
</defs>
</svg>
