<svg width="65" height="65" viewBox="0 0 65 65" fill="none" xmlns="http://www.w3.org/2000/svg">
<path d="M32.2727 8.2596C32.9788 8.2596 33.5512 7.68717 33.5512 6.98105V1.27855C33.5512 0.572434 32.9788 0 32.2727 0C31.5666 0 30.9941 0.572434 30.9941 1.27855V6.98105C30.9943 7.68717 31.5667 8.2596 32.2727 8.2596Z" fill="#D21F34"/>
<path d="M63.5258 43.9239L61.2672 41.6717C60.4637 40.8692 59.3928 40.4271 58.2518 40.4271C57.5222 40.4271 56.8218 40.6087 56.2011 40.9488L51.9449 36.6976L52.1522 36.4906C53.8789 34.7604 53.8782 31.949 52.152 30.2248C51.5352 29.6068 50.7655 29.1947 49.9264 29.0212C50.0419 28.6225 50.1028 28.2048 50.1028 27.7773C50.1028 26.5897 49.6414 25.4761 48.8063 24.6444C48.1893 24.0264 47.4197 23.6143 46.5807 23.4409C46.6962 23.0421 46.757 22.6246 46.757 22.197C46.757 21.0092 46.2957 19.8957 45.4592 19.0627C44.8275 18.4318 44.0509 18.0324 43.2355 17.8624C43.6717 16.3584 43.2989 14.6662 42.1157 13.481C41.1308 12.5003 39.7944 12.0788 38.5064 12.2154L30.0723 10.6189C28.786 10.3749 27.1796 10.2136 26.1657 11.1384C26.1017 11.1968 26.0364 11.264 25.9722 11.3388C24.4 10.7657 22.5663 11.1069 21.3073 12.3645C20.472 13.1988 20.012 14.3119 20.012 15.4989C20.012 15.9265 20.0725 16.344 20.1879 16.7429C19.3498 16.9162 18.5811 17.3278 17.9662 17.9438C17.1293 18.7772 16.6679 19.8891 16.667 21.0747C16.6666 21.5033 16.7274 21.9222 16.8434 22.3222C16.0049 22.4951 15.2357 22.9059 14.619 23.5219C13.7821 24.3579 13.3212 25.4716 13.3212 26.658C13.3212 27.5667 13.5925 28.4324 14.0953 29.1637C13.4605 29.3789 12.8791 29.737 12.3922 30.2234C10.6644 31.949 10.6637 34.7606 12.3933 36.4932L12.5999 36.6989L8.34314 40.9479C6.76117 40.2031 4.81205 40.4821 3.50659 41.7859L1.24656 44.0396C0.442687 44.8425 0.000126954 45.9134 0 47.0551C0 48.197 0.442687 49.2681 1.24656 50.071L4.06709 52.8881C4.56665 53.3872 5.37623 53.3867 5.87516 52.8871C6.37421 52.3876 6.37371 51.578 5.87414 51.0791L3.05362 48.262C2.73344 47.9422 2.5571 47.5136 2.5571 47.0553C2.5571 46.5971 2.73344 46.1686 3.05285 45.8496L5.31301 43.5958C5.8777 43.0317 6.742 42.9477 7.39835 43.3401C7.44456 43.4095 7.49801 43.4755 7.5592 43.5369C7.66876 43.6467 7.79381 43.7309 7.9266 43.7924L20.8877 56.7345C20.9493 56.8686 21.0338 56.995 21.1441 57.1054C21.2515 57.2129 21.374 57.2961 21.504 57.3573C21.7781 57.6672 21.9296 58.063 21.9296 58.4853C21.9296 58.9436 21.7533 59.372 21.4331 59.6918L19.1752 61.947C18.5081 62.6113 17.4229 62.6111 16.7578 61.9491L13.9372 59.1283C13.4379 58.629 12.6285 58.629 12.1292 59.1283C11.6298 59.6276 11.6298 60.4371 12.1292 60.9364L14.9517 63.7592C15.7825 64.5865 16.8735 65 17.9651 65C19.0569 65 20.1492 64.5859 20.981 63.7578L23.2403 61.5012C24.0441 60.6982 24.4868 59.6272 24.4868 58.4853C24.4868 57.6704 24.2602 56.8921 23.8388 56.2211L28.6296 51.4362C28.6346 51.431 28.6397 51.4258 28.6449 51.4206C29.1935 50.8535 30.7211 50.9596 32.1985 51.0622C33.2481 51.1352 34.4184 51.2163 35.5617 51.0845L40.808 56.3245C40.4681 56.9442 40.2867 57.6437 40.2867 58.3722C40.2867 59.5128 40.7294 60.5832 41.5333 61.3862L43.7927 63.6428C44.596 64.4452 45.6669 64.8873 46.8079 64.8873C47.9489 64.8873 49.0197 64.4454 49.8232 63.6428L63.5267 49.9559C64.3306 49.153 64.7733 48.0821 64.7733 46.9402C64.7731 45.7985 64.3305 44.7276 63.5258 43.9239ZM29.5962 13.1313L35.1424 14.1811L31.8227 17.4996C31.3092 17.2528 30.6053 16.7924 29.8332 16.0538C28.7763 15.0428 28.0203 13.8754 27.9515 13.1473C27.9514 13.147 27.9514 13.1466 27.9514 13.1462C27.9514 13.1461 27.9513 13.1459 27.9513 13.1458C27.9463 13.0935 27.945 13.0517 27.9457 13.0199C28.1129 12.9793 28.557 12.9342 29.5962 13.1313ZM23.1142 14.1738C23.7619 13.5267 24.7681 13.452 25.5 13.9477C25.9148 15.6867 27.3982 17.2628 28.0656 17.9014C28.5603 18.3747 30.1473 19.7936 31.7492 20.1836C31.9659 20.4943 32.0839 20.8646 32.0839 21.2554C32.0839 21.7587 31.8902 22.2293 31.5374 22.5818C31.1857 22.9342 30.7143 23.1282 30.21 23.1282C29.7056 23.1282 29.2342 22.9342 28.8808 22.5801L28.8807 22.58L28.88 22.5794L23.1141 16.8238C22.7625 16.4728 22.5689 16.0021 22.5689 15.4989C22.5691 14.9955 22.7627 14.5249 23.1142 14.1738ZM19.7733 19.753C20.1251 19.4007 20.5959 19.2066 21.0994 19.2066C21.6036 19.2066 22.076 19.4011 22.43 19.7548L27.073 24.3884C27.8041 25.1207 27.8041 26.3123 27.0755 27.042C26.7218 27.3943 26.2488 27.5883 25.7437 27.5883C25.2385 27.5883 24.7655 27.3943 24.4133 27.0436L24.4132 27.0434L20.8909 23.5219C20.8854 23.5164 20.8794 23.5113 20.8738 23.5057L19.7719 22.4043C19.4183 22.0511 19.2237 21.5796 19.2241 21.0766C19.2246 20.5753 19.4186 20.1062 19.7733 19.753ZM16.426 25.3311C16.7781 24.9795 17.25 24.7859 17.755 24.7859C18.2558 24.7859 18.7236 24.9768 19.0742 25.3222L22.6073 28.8537C22.9596 29.2046 23.1537 29.6747 23.1537 30.1774C23.1537 30.68 22.9596 31.1501 22.6059 31.5024C22.254 31.8538 21.7826 32.0474 21.2784 32.0474C20.7736 32.0474 20.3006 31.8533 19.9482 31.5024L18.6674 30.2231C18.6671 30.2227 18.6668 30.2225 18.6665 30.2222L16.4262 27.9845C16.073 27.6317 15.8785 27.1605 15.8785 26.6577C15.8785 26.1551 16.073 25.6838 16.426 25.3311ZM14.1993 32.0325C14.5528 31.6793 15.0253 31.4848 15.5297 31.4848C16.034 31.4848 16.5064 31.6791 16.8598 32.0321L18.1424 33.3132C18.4949 33.6641 18.6888 34.1342 18.6888 34.6369C18.6888 35.1396 18.4947 35.6096 18.1398 35.9633C17.788 36.3156 17.3166 36.5097 16.8123 36.5097C16.308 36.5097 15.8366 36.3157 15.4822 35.9608L15.3217 35.8008C15.3195 35.7987 15.3178 35.7964 15.3158 35.7943C15.3134 35.7921 15.3109 35.79 15.3084 35.7877L14.2005 34.6841C13.4694 33.9515 13.4688 32.7621 14.1993 32.0325ZM40.2545 46.5633C39.7554 46.0636 38.9458 46.0632 38.4464 46.5622L37.3089 47.6983C36.228 48.7792 34.2695 48.6431 32.3755 48.5117C30.3187 48.3687 28.1918 48.2212 26.8155 49.6342L22.1062 54.3378L10.3296 42.5785L14.4972 38.4184C15.1861 38.8406 15.9809 39.067 16.8126 39.067C18.0008 39.067 19.1149 38.6064 19.9471 37.7727C20.7848 36.9383 21.2463 35.8248 21.2463 34.637C21.2463 34.626 21.2456 34.6151 21.2456 34.604C21.2566 34.6042 21.2677 34.6048 21.2787 34.6048C22.4652 34.6048 23.5785 34.1456 24.4118 33.3133C25.2496 32.479 25.711 31.3653 25.711 30.1777C25.711 30.1666 25.7103 30.1557 25.7103 30.1447C25.7214 30.1447 25.7326 30.1454 25.7439 30.1454C26.93 30.1454 28.0439 29.6867 28.8828 28.8513C29.7537 27.979 30.1845 26.8305 30.1762 25.6845C30.1877 25.6846 30.1991 25.6853 30.2105 25.6853C31.3987 25.6852 32.5127 25.2247 33.3461 24.3897C34.1814 23.5555 34.6415 22.4424 34.6415 21.2554C34.6415 20.4252 34.4157 19.6316 33.9949 18.9442L37.6477 15.2929C37.9199 15.0218 38.2556 14.8517 38.6074 14.7815C38.6454 14.7774 38.683 14.7713 38.7202 14.764C39.2847 14.6861 39.8774 14.8603 40.309 15.2902C41.0402 16.0226 41.0402 17.2142 40.3117 17.9439L39.1992 19.0518C39.1955 19.0555 39.1916 19.0588 39.1879 19.0625L37.9066 20.3417C37.4069 20.8406 37.4064 21.6502 37.9054 22.1497C38.4046 22.6494 39.2141 22.6498 39.7135 22.1509L40.8304 21.0355C40.8307 21.0352 40.831 21.035 40.8312 21.0347L41.0001 20.8665C41.7332 20.1401 42.921 20.1416 43.6534 20.873C44.0058 21.2239 44.1999 21.694 44.1999 22.1967C44.1999 22.6993 44.0058 23.1694 43.6506 23.5231L42.5317 24.6443C42.5316 24.6444 42.5315 24.6445 42.5314 24.6448L41.2502 25.9208C40.7498 26.4191 40.7482 27.2287 41.2465 27.7289C41.7448 28.2292 42.5542 28.2307 43.0545 27.7325L44.3416 26.4507C44.6934 26.0983 45.1648 25.9043 45.669 25.9043C46.1734 25.9043 46.6449 26.0983 46.9992 26.4532C47.3517 26.8042 47.5457 27.2744 47.5457 27.7771C47.5457 28.2797 47.3517 28.7498 46.9972 29.1027L44.7666 31.3342C44.2675 31.8336 44.2676 32.6431 44.7669 33.1423C45.0166 33.3919 45.3436 33.5165 45.6708 33.5165C45.9981 33.5165 46.3254 33.3916 46.575 33.1419L47.6682 32.0483C47.6744 32.0424 47.6811 32.0372 47.6873 32.0309C48.0391 31.6785 48.5105 31.4845 49.0148 31.4845C49.5191 31.4845 49.9905 31.6785 50.3436 32.0322C51.074 32.7618 51.0733 33.9514 50.3436 34.6824L49.2321 35.7926C49.2317 35.7929 49.2312 35.7933 49.2308 35.7937C49.2305 35.7941 49.2301 35.7946 49.2297 35.795L47.4655 37.557C46.966 38.056 46.9655 38.8656 47.4644 39.3652C47.7141 39.6151 48.0417 39.7402 48.3691 39.7402C48.696 39.7402 49.023 39.6155 49.2726 39.3663L50.1355 38.5044L54.2713 42.6354L42.4957 54.3966L38.2765 50.1825C38.5707 49.9933 38.8521 49.7709 39.1163 49.5067L40.2532 48.3713C40.753 47.8725 40.7535 47.0629 40.2545 46.5633ZM61.7195 48.1467L48.016 61.8335C47.6955 62.1537 47.2664 62.3301 46.8078 62.3301C46.3492 62.3301 45.9201 62.1537 45.5995 61.8334L43.3401 59.5768C43.0199 59.2572 42.8436 58.8293 42.8436 58.3722C42.8436 57.9151 43.0199 57.4873 43.3401 57.1675L57.0436 43.4806C57.3643 43.1603 57.7932 42.984 58.2519 42.984C58.7105 42.984 59.1396 43.1603 59.461 43.4814L61.7197 45.7337C62.0398 46.0535 62.2162 46.4818 62.2162 46.9401C62.216 47.3985 62.0397 47.827 61.7195 48.1467Z" fill="#17498A"/>
<path d="M15.296 7.18193C15.5456 7.43101 15.8724 7.55543 16.1992 7.55543C16.5267 7.55543 16.8544 7.43025 17.1041 7.18002C17.6029 6.68021 17.6021 5.87075 17.1023 5.37195L12.4434 0.722274C11.9437 0.223473 11.1341 0.224108 10.6353 0.724051C10.1365 1.22387 10.1373 2.03332 10.6371 2.53212L15.296 7.18193Z" fill="#D21F34"/>
<path d="M48.3469 7.55538C48.6738 7.55538 49.0008 7.43071 49.2504 7.1815L53.9058 2.5317C54.4054 2.03277 54.4059 1.22318 53.9068 0.723622C53.4079 0.22406 52.5984 0.223552 52.0987 0.722607L47.4434 5.37241C46.9438 5.87134 46.9433 6.68092 47.4423 7.18048C47.692 7.43046 48.0195 7.55538 48.3469 7.55538Z" fill="#D21F34"/>
</svg>
