<svg width="59" height="59" viewBox="0 0 59 59" fill="none" xmlns="http://www.w3.org/2000/svg">
<g clip-path="url(#clip0_1873_42300)">
<path d="M25.5615 0C18.7589 0 13.2246 5.53425 13.2246 12.3369C13.2246 19.1395 18.7589 24.6739 25.5615 24.6739C26.9644 24.6739 28.3358 24.441 29.6455 23.9808L33.5284 26.1C33.8819 26.293 34.3223 26.2851 34.6686 26.0795C35.0184 25.8718 35.2328 25.4954 35.2328 25.0885V19.9955C36.9546 17.8224 37.8982 15.1197 37.8982 12.3369C37.8984 5.53425 32.3641 0 25.5615 0ZM33.2031 18.8361C33.0256 19.0446 32.9282 19.3092 32.9282 19.583V23.1468L30.2862 21.7047C29.9866 21.5412 29.6207 21.5198 29.3041 21.6472C28.1139 22.1262 26.8548 22.3691 25.5615 22.3691C20.0298 22.3691 15.5293 17.8686 15.5293 12.3368C15.5293 6.80505 20.0298 2.30457 25.5615 2.30457C31.0932 2.30457 35.5937 6.80505 35.5937 12.3368C35.5937 14.7175 34.7447 17.0255 33.2031 18.8361Z" fill="#D21F34"/>
<path d="M25.368 38.4688C25.368 37.8324 24.8521 37.3164 24.2157 37.3164H18.277C17.9623 37.3164 17.6612 37.4451 17.4439 37.6727L0.319154 55.5967C-0.120465 56.0569 -0.103871 56.7863 0.356259 57.226C0.579584 57.4393 0.866056 57.5452 1.15218 57.5452C1.45594 57.5452 1.75924 57.4258 1.98556 57.1889L18.7698 39.6211H24.2157C24.8521 39.6211 25.368 39.1052 25.368 38.4688Z" fill="#17498A"/>
<path d="M57.2767 29.0824C57.6927 28.9225 57.9792 28.5371 58.0124 28.0925L58.9959 14.9176C59.0478 14.2227 58.4483 13.6276 57.7541 13.6832L44.8719 14.7227C43.9135 14.8 43.4683 16.0047 44.1498 16.6862L46.7689 19.3053L36.5985 29.4652H15.7314C15.4239 29.4652 15.129 29.588 14.9127 29.8066L0.429392 44.4282C-0.0185244 44.8803 -0.0150673 45.6099 0.437112 46.0578C0.661704 46.2804 0.954976 46.3915 1.24802 46.3915C1.54475 46.3915 1.84147 46.2777 2.06676 46.0501L16.2119 31.7699H37.0753C37.3807 31.7699 37.6736 31.6487 37.8897 31.4328L49.2133 20.1211C49.6573 19.6775 49.6576 18.9347 49.2137 18.491L47.5423 16.8195L56.5974 16.0888L55.8956 25.49L54.2866 23.9539C53.8272 23.5153 53.0997 23.5312 52.6597 23.9893L39.861 37.3164H34.3553C33.7189 37.3164 33.203 37.8324 33.203 38.4687C33.203 39.105 33.7189 39.621 34.3553 39.621H40.3521C40.6658 39.621 40.966 39.4931 41.1832 39.2669L53.5261 26.4143L56.0674 28.8404C56.39 29.148 56.8607 29.2426 57.2767 29.0824Z" fill="#17498A"/>
<path d="M28.3285 39.1083C28.8921 39.9529 30.247 39.6691 30.4214 38.6653C30.6048 37.6093 29.3063 36.8949 28.5122 37.6139C28.0916 37.9949 28.0202 38.6373 28.3285 39.1083Z" fill="#17498A"/>
<path d="M19.2594 43.8678L10.4907 53.0079C10.2849 53.2225 10.1699 53.5084 10.1699 53.8057V57.8477C10.1699 58.1533 10.2914 58.4464 10.5074 58.6625C10.7236 58.8787 11.0167 59 11.3224 59L20.091 58.999C20.7274 58.9988 21.2433 58.4829 21.2433 57.8466V44.6654C21.2433 44.195 20.9574 43.7718 20.5209 43.5963C20.0843 43.4208 19.585 43.5283 19.2594 43.8678ZM18.9386 56.6944L12.4746 56.6952V54.2691L18.9386 47.5312V56.6944Z" fill="#17498A"/>
<path d="M26.7773 43.5581V57.8476C26.7773 58.1532 26.8988 58.4464 27.1149 58.6625C27.331 58.8786 27.6241 59 27.9298 59L36.6984 58.9989C37.3348 58.9988 37.8507 58.4829 37.8507 57.8466V43.5581C37.8507 42.9218 37.3348 42.4058 36.6983 42.4058H27.9297C27.2932 42.4058 26.7773 42.9218 26.7773 43.5581ZM29.082 44.7104H35.546V56.6944L29.082 56.6952V44.7104Z" fill="#17498A"/>
<path d="M52.481 32.3446L43.7124 41.374C43.5036 41.589 43.3867 41.877 43.3867 42.1768V57.8477C43.3867 58.1533 43.5082 58.4464 43.7242 58.6625C43.9404 58.8787 44.2335 59 44.5392 59L53.3078 58.999C53.9441 58.9988 54.4601 58.4829 54.4601 57.8466V33.1473C54.4601 32.6782 54.1757 32.2558 53.7409 32.0794C53.3061 31.903 52.8077 32.0081 52.481 32.3446ZM52.1554 56.6944L45.6914 56.6952V42.6442L52.1554 35.9879V56.6944Z" fill="#17498A"/>
<path d="M26.8876 11.2058C25.7283 10.7958 25.0154 10.4646 24.5764 10.1318C24.3883 9.98942 24.3828 9.77059 24.4113 9.61225C24.4579 9.35321 24.6547 9.00773 25.0563 8.88674C25.9758 8.60995 26.5598 9.07238 26.6234 9.12596L26.8296 9.27416C27.3013 9.61329 27.9526 9.54369 28.3419 9.11248C28.7588 8.65074 28.7287 7.94009 28.2743 7.51522L28.1686 7.41646C27.8709 7.14197 27.3358 6.80733 26.6395 6.62676V6.43547C26.6395 5.82173 26.1764 5.28578 25.5638 5.24614C24.8927 5.2027 24.3349 5.73427 24.3349 6.39595V6.69924C23.2104 7.06166 22.3527 8.03781 22.143 9.20421C21.9472 10.2926 22.3365 11.326 23.1841 11.9685C23.8294 12.4576 24.7073 12.8794 26.1195 13.3787C26.9795 13.6827 26.9606 14.3664 26.9126 14.6464C26.8149 15.2159 26.3364 15.7907 25.4873 15.7907C24.7044 15.7907 24.1415 15.6593 23.7684 15.3893C23.298 15.049 22.6479 15.052 22.2352 15.4603C21.7251 15.9649 21.7927 16.7817 22.3423 17.2008C22.8864 17.6156 23.5442 17.8834 24.335 18.0098V18.2381C24.335 18.8519 24.7981 19.3878 25.4107 19.4275C26.0818 19.4709 26.6397 18.9393 26.6397 18.2776V17.9262C27.9548 17.5263 28.9419 16.4483 29.1841 15.0359C29.4762 13.3339 28.5532 11.7946 26.8876 11.2058Z" fill="#17498A"/>
</g>
<defs>
<clipPath id="clip0_1873_42300">
<rect width="59" height="59" fill="white"/>
</clipPath>
</defs>
</svg>
