<svg width="61" height="61" viewBox="0 0 61 61" fill="none" xmlns="http://www.w3.org/2000/svg">
<g clip-path="url(#clip0_1873_42283)">
<path d="M33.1816 23.1133H52.7207C53.7077 23.1133 54.5078 22.3131 54.5078 21.3262V1.78711C54.5078 0.800148 53.7077 0 52.7207 0H33.1816C32.1947 0 31.3945 0.800148 31.3945 1.78711V21.3262C31.3945 22.3131 32.1947 23.1133 33.1816 23.1133ZM34.9688 3.57422H50.9336V19.5391H34.9688V3.57422Z" fill="#D21F34" stroke="white"/>
<path d="M24.6035 0H5.06445C4.07749 0 3.27734 0.800148 3.27734 1.78711V21.3262C3.27734 22.3131 4.07749 23.1133 5.06445 23.1133H24.6035C25.5905 23.1133 26.3906 22.3131 26.3906 21.3262V1.78711C26.3906 0.800148 25.5905 0 24.6035 0ZM22.8164 19.5391H6.85156V3.57422H22.8164V19.5391Z" fill="#17498A" stroke="white"/>
<path d="M24.6035 28.1172H5.06445C4.07749 28.1172 3.27734 28.9173 3.27734 29.9043V49.4434C3.27734 50.4303 4.07749 51.2305 5.06445 51.2305H24.6035C25.5905 51.2305 26.3906 50.4303 26.3906 49.4434V29.9043C26.3906 28.9173 25.5905 28.1172 24.6035 28.1172ZM22.8164 47.6562H6.85156V31.6914H22.8164V47.6562Z" fill="#17498A" stroke="white"/>
<path d="M56.7835 45.5029C55.7861 43.755 54.0868 42.5034 52.1216 42.069L47.5978 41.0687V32.0488C47.5978 29.0926 45.1928 26.6875 42.2365 26.6875C39.2803 26.6875 36.8752 29.0926 36.8752 32.0488V39.888C34.9305 40.3276 33.1794 41.4163 31.9151 43.0079C30.3033 45.0367 29.6674 47.6509 30.1661 50.1895C30.6314 53.5607 33.4103 59.8633 33.4385 59.9269C33.7246 60.5732 34.3648 60.9901 35.0716 60.9905L52.4674 61H52.4683C53.1908 61 53.8422 60.5649 54.119 59.8975C54.2019 59.6976 56.1631 54.9597 57.3681 51.2691C57.9948 49.3539 57.7816 47.2521 56.7835 45.5029ZM53.971 50.1577C53.9709 50.1581 53.9709 50.1584 53.9708 50.1588C53.149 52.676 51.921 55.798 51.2664 57.4251L36.2527 57.417C35.3828 55.3243 33.9566 51.6116 33.7016 49.6632C33.6962 49.6211 33.6892 49.5794 33.6807 49.538C33.3707 48.0172 33.7473 46.4476 34.7136 45.2313C35.2901 44.5056 36.0372 43.9569 36.8752 43.6216V48.4902C36.8752 49.4772 37.6753 50.2773 38.6623 50.2773C39.6493 50.2773 40.4494 49.4772 40.4494 48.4902V41.4634V41.4609V32.0488C40.4494 31.0634 41.2511 30.2617 42.2365 30.2617C43.2219 30.2617 44.0236 31.0634 44.0236 32.0488V42.5118C44.0236 43.3974 44.6722 44.1493 45.5483 44.2794L45.5982 44.2868L51.3499 45.5589C52.3463 45.7792 53.1735 46.3884 53.679 47.2743C54.1854 48.1616 54.2891 49.1857 53.971 50.1577Z" fill="#17498A" stroke="white"/>
<path d="M44.6964 7.93995L42.2071 10.4293L41.207 9.42921C40.5092 8.7314 39.3776 8.7314 38.6797 9.42921C37.9818 10.127 37.9818 11.2586 38.6797 11.9565L40.9434 14.2202C41.2923 14.5692 41.7497 14.7437 42.207 14.7437C42.6642 14.7437 43.1217 14.5692 43.4706 14.2202L47.2235 10.4673C47.9214 9.76947 47.9214 8.63787 47.2235 7.93995C46.5258 7.24202 45.3942 7.24202 44.6964 7.93995Z" fill="#D21F34" stroke="white"/>
</g>
<defs>
<clipPath id="clip0_1873_42283">
<rect width="61" height="61" fill="white"/>
</clipPath>
</defs>
</svg>
