<svg width="59" height="59" viewBox="0 0 59 59" fill="none" xmlns="http://www.w3.org/2000/svg">
<g clip-path="url(#clip0_2935_17258)">
<path d="M19.0281 37.1563C20.7363 35.448 20.7363 32.668 19.0281 30.9597C18.2003 30.1324 17.1001 29.6764 15.9298 29.6764C15.2532 29.6764 14.6005 29.8295 14.0104 30.118C11.9295 27.1408 10.8334 23.6568 10.8334 19.9922C10.8334 10.6137 18.1598 2.84439 27.5122 2.30423C28.1482 2.26732 28.6335 1.72221 28.597 1.08662C28.5601 0.450579 28.015 -0.0333145 27.3794 0.00179586C16.808 0.612627 8.52734 9.39338 8.52734 19.9922C8.52734 24.2208 9.81968 28.2373 12.2698 31.6489C11.1503 33.3486 11.3375 35.6623 12.8315 37.1563C13.6593 37.9836 14.7594 38.4396 15.9298 38.4396C17.1001 38.4396 18.2003 37.9836 19.0281 37.1563ZM14.4619 32.5906C14.8666 32.1859 15.3982 31.9833 15.9298 31.9833C16.4609 31.9833 16.9926 32.1859 17.3972 32.5906C18.2066 33.3995 18.2066 34.7166 17.3972 35.5254C16.5879 36.3348 15.2712 36.3348 14.4619 35.5254C13.653 34.7166 13.653 33.3999 14.4619 32.5906Z" fill="#17498A"/>
<path d="M46.3275 39.948C45.5987 39.948 44.9136 40.1379 44.319 40.471C43.7919 38.7997 42.2272 37.5843 40.3839 37.5843C39.2176 37.5843 38.163 38.0709 37.4121 38.8514C37.2037 38.6354 36.9719 38.4423 36.7212 38.2753C39.3788 37.0856 41.7703 35.3183 43.7055 33.0798C46.8447 29.4473 48.5737 24.7992 48.5737 19.9922C48.5737 15.7659 47.2813 11.7471 44.8317 8.33509C45.9512 6.63538 45.7639 4.32214 44.2695 2.8277C42.5612 1.11944 39.7817 1.11944 38.0729 2.8277C36.3647 4.53596 36.3647 7.31598 38.0729 9.02424C38.9273 9.87859 40.049 10.3058 41.1712 10.3058C41.8289 10.3058 42.4856 10.1577 43.0892 9.86419C45.1711 12.8423 46.2676 16.329 46.2676 19.9922C46.2676 28.3332 40.6054 35.3836 32.6214 37.2409V31.0344C37.1938 29.3464 40.3178 24.9266 40.3178 19.9922C40.3178 13.5035 35.0386 8.22435 28.5495 8.22435C22.0608 8.22435 16.7816 13.5031 16.7816 19.9922C16.7816 22.553 17.5905 24.9882 19.1201 27.0336C20.4543 28.8175 22.3003 30.203 24.3713 30.9935V47.954L22.9228 45.5778C21.7056 43.5796 19.1646 42.9315 17.1386 44.1009C15.2116 45.2136 14.4598 47.6552 15.4326 49.6691L19.7336 58.358C19.9348 58.7645 20.3435 58.9999 20.768 58.9999C20.94 58.9999 21.1142 58.9616 21.2785 58.8801C21.8492 58.5975 22.0828 57.9056 21.8006 57.3353L17.5041 48.6562C17.0589 47.7339 17.4046 46.6104 18.2918 46.0981C19.2087 45.5688 20.403 45.8735 20.9539 46.7778L24.5397 52.6615C24.8089 53.1027 25.3387 53.3111 25.8361 53.1715C26.3335 53.032 26.6774 52.5783 26.6774 52.0611V25.6058C26.6774 24.6029 27.4935 23.7873 28.4964 23.7873C29.4992 23.7873 30.3153 24.6029 30.3153 25.6058V30.1666C30.3149 30.1747 30.3153 30.1828 30.3153 30.1913V47.5044C30.3153 48.1413 30.8312 48.6572 31.4681 48.6572C32.1051 48.6572 32.6214 48.1413 32.6214 47.5044V41.7093C32.6214 40.7064 33.437 39.8904 34.4399 39.8904C35.4428 39.8904 36.2589 40.7064 36.2589 41.7093V47.9239C36.2589 48.5608 36.7752 49.0771 37.4117 49.0771C38.0486 49.0771 38.5649 48.5608 38.5649 47.9239V41.7093C38.5649 40.7064 39.381 39.8904 40.3839 39.8904C41.3868 39.8904 42.2025 40.7064 42.2025 41.7093V48.0018C42.2025 48.6387 42.7188 49.155 43.3557 49.155C43.9927 49.155 44.5085 48.6387 44.5085 48.0018V44.073C44.5085 43.0701 45.3246 42.254 46.3275 42.254C47.3304 42.254 48.1465 43.0701 48.1465 44.073V57.8462C48.1465 58.4831 48.6623 58.9994 49.2993 58.9994C49.9362 58.9994 50.4525 58.4831 50.4525 57.8462V44.073C50.4525 41.7985 48.602 39.948 46.3275 39.948ZM39.7038 7.39386C38.8944 6.58452 38.8944 5.26788 39.7038 4.45854C40.1084 4.05387 40.6396 3.85176 41.1712 3.85176C41.7028 3.85176 42.2344 4.05387 42.6391 4.45854C43.448 5.26788 43.448 6.58452 42.6391 7.39386C41.8298 8.20275 40.5127 8.20275 39.7038 7.39386ZM19.0877 19.9922C19.0877 14.7747 23.3324 10.5299 28.5499 10.5299C33.767 10.5299 38.0117 14.7747 38.0117 19.9922C38.0117 23.6662 35.8587 26.9859 32.6214 28.5348V25.6058C32.6214 24.9585 32.471 24.3454 32.2037 23.7994C33.2264 22.8136 33.8309 21.4394 33.8309 19.9922C33.8309 17.0798 31.4618 14.7108 28.5499 14.7108C25.6376 14.7108 23.2685 17.0798 23.2685 19.9922C23.2685 21.3971 23.8406 22.747 24.8242 23.731C24.5356 24.2937 24.3713 24.9311 24.3713 25.6058V28.4862C21.1605 26.917 19.0877 23.663 19.0877 19.9922ZM26.4041 22.0529C25.8725 21.5028 25.5745 20.7741 25.5745 19.9922C25.5745 18.3515 26.9092 17.0168 28.5495 17.0168C30.1902 17.0168 31.5249 18.3515 31.5249 19.9922C31.5249 20.7853 31.2026 21.5407 30.6543 22.0925C30.0259 21.705 29.2868 21.4812 28.4964 21.4812C27.7329 21.4812 27.0181 21.6901 26.4041 22.0529Z" fill="#17498A"/>
<path d="M32.6333 2.71705C32.9367 2.71705 33.2342 2.59371 33.4485 2.379C33.6632 2.16473 33.7865 1.86719 33.7865 1.5638C33.7865 1.26086 33.6632 0.963325 33.4485 0.748611C33.2342 0.534347 32.9367 0.411011 32.6333 0.411011C32.3303 0.411011 32.0328 0.534347 31.8185 0.748611C31.6038 0.963325 31.4805 1.26086 31.4805 1.5638C31.4805 1.86719 31.6038 2.16473 31.8185 2.379C32.0328 2.59371 32.3303 2.71705 32.6333 2.71705Z" fill="#17498A"/>
</g>
<defs>
<clipPath id="clip0_2935_17258">
<rect width="59" height="59" fill="white"/>
</clipPath>
</defs>
</svg>
