<svg width="62" height="54" viewBox="0 0 62 54" fill="none" xmlns="http://www.w3.org/2000/svg">
<path d="M44.7283 33.8182H40.1829C38.9277 33.8182 37.9102 34.8357 37.9102 36.0909C37.9102 37.3461 38.9277 38.3636 40.1829 38.3636H44.7283C45.9836 38.3636 47.0011 37.3461 47.0011 36.0909C47.0011 34.8357 45.9836 33.8182 44.7283 33.8182Z" fill="#17498A"/>
<path d="M53.3636 42.9091C54.6189 42.9091 55.6364 41.8916 55.6364 40.6364V23.7038C56.4459 23.2632 57.1839 22.6881 57.822 21.9852C59.3438 20.3092 60.1818 18.0544 60.1818 15.6364C60.1818 14.3103 59.9022 13.0313 59.3506 11.8345L57.2547 7.28636C55.775 4.075 52.5341 2 48.9982 2H13.1836C9.64773 2 6.40682 4.075 4.92716 7.28636L2.83125 11.8345C2.27966 13.0313 2 14.3103 2 15.6364C2 18.0544 2.83807 20.3092 4.35977 21.9852C4.99795 22.6882 5.73591 23.2632 6.54545 23.7038V47.4545H4.27273C3.0175 47.4545 2 48.472 2 49.7273C2 50.9825 3.0175 52 4.27273 52H57.9091C59.1643 52 60.1818 50.9825 60.1818 49.7273C60.1818 48.472 59.1643 47.4545 57.9091 47.4545H33.8182V36.0909C33.8182 32.3314 30.7595 29.2727 27 29.2727H22.4545C18.695 29.2727 15.6364 32.3314 15.6364 36.0909V47.4545H11.0909V24.7155C13.6202 24.5902 15.8811 23.4268 17.4545 21.6432C19.1216 23.5332 21.5605 24.7273 24.2727 24.7273C26.985 24.7273 29.4239 23.5332 31.0909 21.6433C32.758 23.5332 35.1968 24.7273 37.9091 24.7273C40.6214 24.7273 43.0602 23.5332 44.7273 21.6433C46.3007 23.4269 48.5616 24.5903 51.0909 24.7156V40.6364C51.0909 41.8916 52.1084 42.9091 53.3636 42.9091ZM20.1818 36.0909C20.1818 34.8377 21.2014 33.8182 22.4545 33.8182H27C28.2532 33.8182 29.2727 34.8377 29.2727 36.0909V47.4545H20.1818V36.0909ZM47 15.6364C47 14.3811 45.9825 13.3636 44.7273 13.3636C43.472 13.3636 42.4545 14.3811 42.4545 15.6364C42.4545 18.1427 40.4155 20.1818 37.9091 20.1818C35.4027 20.1818 33.3636 18.1427 33.3636 15.6364C33.3636 14.3811 32.3461 13.3636 31.0909 13.3636C29.8357 13.3636 28.8182 14.3811 28.8182 15.6364C28.8182 18.1427 26.7791 20.1818 24.2727 20.1818C21.7664 20.1818 19.7273 18.1427 19.7273 15.6364C19.7273 14.3811 18.7098 13.3636 17.4545 13.3636C16.1993 13.3636 15.1818 14.3811 15.1818 15.6364C15.1818 18.1427 13.1427 20.1818 10.6364 20.1818C9.67443 20.1818 6.54545 19.4926 6.54545 15.6364C6.54545 14.972 6.68466 14.3332 6.95943 13.7372L9.05534 9.18864C9.79523 7.58295 11.4157 6.54545 13.1836 6.54545H48.9982C50.7661 6.54545 52.3866 7.58295 53.1265 9.18864L55.2224 13.7372L55.2225 13.7374C55.4972 14.3332 55.6364 14.972 55.6364 15.6364C55.6364 19.4926 52.5074 20.1818 51.5455 20.1818C49.0391 20.1818 47 18.1427 47 15.6364Z" fill="#17498A"/>
</svg>
