<svg width="64" height="64" viewBox="0 0 64 64" fill="none" xmlns="http://www.w3.org/2000/svg">
<g clip-path="url(#clip0_2926_17190)">
<path d="M63.9488 62.2672L61.7035 53.8771C61.0853 51.567 59.3866 49.7651 57.241 48.9548C60.4969 45.0112 57.6188 38.8913 52.4591 38.9148C47.2997 38.8911 44.4209 45.0123 47.6773 48.9549C45.5318 49.7652 43.8331 51.5671 43.2149 53.8772L42.8195 55.355L42.1631 52.902C41.4661 50.2975 39.5147 48.282 37.066 47.4367C40.8264 43.1792 37.7322 36.2953 31.9978 36.3176C26.2637 36.2952 23.169 43.1802 26.9296 47.4367C24.4809 48.282 22.5296 50.2975 21.8326 52.902L21.1762 55.355L20.7808 53.8771C20.1626 51.567 18.464 49.7652 16.3184 48.9549C19.5744 45.0113 16.6962 38.8913 11.5365 38.9148C6.37707 38.8911 3.49839 45.0123 6.75467 48.9548C4.60907 49.7651 2.91031 51.5669 2.2921 53.8771L0.0467624 62.2672C-0.0637298 62.6801 0.024014 63.1208 0.284246 63.4599C0.544477 63.7989 0.947574 63.9976 1.37492 63.9976H20.6547C31.0652 63.9954 52.2803 63.9992 62.6206 63.9976C63.4942 64.017 64.1996 63.1137 63.9488 62.2672ZM52.4591 41.6646C54.3399 41.6646 55.8702 43.1948 55.8702 45.0758C55.871 46.9611 54.3307 48.4941 52.4471 48.4867C50.5717 48.4802 49.0479 46.9528 49.0479 45.0758C49.0479 43.1947 50.5782 41.6646 52.4591 41.6646ZM31.9978 39.0674C34.1856 39.0674 35.9655 40.8472 35.9655 43.0351C35.7475 48.299 28.2472 48.2973 28.03 43.0351C28.03 40.8472 29.8099 39.0674 31.9978 39.0674ZM11.5365 41.6646C13.4173 41.6646 14.9476 43.1948 14.9476 45.0758C14.9483 46.9611 13.4081 48.4941 11.5243 48.4867C9.64896 48.4802 8.12519 46.9528 8.12519 45.0758C8.12532 43.1947 9.65546 41.6646 11.5365 41.6646ZM4.94829 54.5879C5.47638 52.6145 7.27213 51.2364 9.31524 51.2364H11.5243C11.5616 51.2281 13.7227 51.2424 13.7574 51.2364C15.8005 51.2364 17.5963 52.6147 18.1242 54.5879L19.7525 60.6745L19.599 61.2478H3.16617L4.94829 54.5879ZM22.4457 61.2478L24.4888 53.6128C25.097 51.3401 27.165 49.7527 29.5177 49.7527H34.4777C36.8306 49.7527 38.8984 51.3401 39.5066 53.6128L41.5497 61.2477H22.4457V61.2478ZM44.3964 61.2478L44.243 60.6745L45.8712 54.588C46.3993 52.6147 48.195 51.2365 50.2381 51.2365C51.3517 51.2374 53.567 51.2359 54.6803 51.2365C56.7234 51.2365 58.5191 52.6147 59.0472 54.588L60.8295 61.2478H44.3964Z" fill="#17498A"/>
<path d="M38.6025 23.0821C38.4633 23.0821 38.3235 23.061 38.1876 23.018L31.9968 21.0583L25.8061 23.0181C25.3901 23.1497 24.9362 23.0762 24.5829 22.8196C24.2298 22.563 24.0196 22.1541 24.0162 21.7177L23.967 15.2244L20.1901 9.94225C19.9363 9.58727 19.866 9.13281 20.0009 8.71771C20.1358 8.30261 20.4596 7.97626 20.8737 7.83827L27.034 5.78492L30.8906 0.560533C31.1499 0.209308 31.5603 0.00219727 31.9968 0.00219727C32.4333 0.00219727 32.8437 0.209433 33.103 0.560533L36.9594 5.78479L43.1198 7.83815C43.5337 7.97614 43.8577 8.30249 43.9926 8.71758C44.1274 9.13268 44.0573 9.58715 43.8033 9.94212L40.0265 15.2243L39.9772 21.7175C39.9876 22.4524 39.3333 23.0978 38.6025 23.0821ZM31.9968 18.2413C32.1368 18.2413 32.2768 18.2627 32.4118 18.3054L37.2418 19.8343L37.2803 14.7683C37.2824 14.4851 37.3719 14.2094 37.5368 13.9791L40.4834 9.858L35.6772 8.25599C35.4086 8.16637 35.1741 7.99601 35.0057 7.76815L31.9968 3.69206L28.988 7.76803C28.8198 7.99588 28.5853 8.16625 28.3166 8.25587L23.5103 9.85788L26.4569 13.979C26.6217 14.2093 26.7113 14.4851 26.7134 14.7682L26.7519 19.8342C26.8922 19.8153 32.0102 18.1031 31.9968 18.2413Z" fill="#17498A"/>
<path d="M59.5413 28.2438C59.6828 28.4111 54.6233 26.7363 54.5615 26.7347L49.9965 28.1798C49.5804 28.3115 49.1265 28.238 48.7733 27.9814C48.4202 27.7247 48.21 27.3159 48.2066 26.8794L48.1704 22.0913L45.3854 18.1963C45.1316 17.8413 45.0613 17.3868 45.1962 16.9718C45.3311 16.5567 45.6549 16.2303 46.069 16.0923L50.6116 14.5782L53.4552 10.7258C53.7145 10.3747 54.1249 10.1675 54.5614 10.1675C54.9979 10.1675 55.4084 10.3747 55.6676 10.7258L58.5113 14.5782L63.0538 16.0923C63.4678 16.2303 63.7918 16.5567 63.9266 16.9718C64.0615 17.3868 63.9914 17.8413 63.7374 18.1963L60.9525 22.0913L60.9161 26.8794C60.9266 27.6141 60.2723 28.2595 59.5413 28.2438ZM48.7056 18.1119L50.6604 20.846C50.8252 21.0763 50.9148 21.3521 50.9169 21.6352L50.9424 24.9961L54.1467 23.9818C54.4167 23.8963 54.7065 23.8963 54.9766 23.9818L58.1808 24.9961L58.2064 21.6352C58.2085 21.3519 58.298 21.0763 58.4629 20.846L60.4178 18.1119L57.2292 17.0491C56.9605 16.9595 56.7261 16.7891 56.5578 16.5614L54.5617 13.8573L52.5656 16.5614C52.3973 16.7893 52.1628 16.9596 51.8941 17.0491L48.7056 18.1119Z" fill="#17498A"/>
<path d="M4.45286 28.2438C3.72179 28.2595 3.06771 27.6143 3.07796 26.8793L3.04158 22.0913L0.256529 18.1963C0.00267213 17.8413 -0.067573 17.3868 0.0672926 16.9718C0.202158 16.5567 0.52601 16.2303 0.940106 16.0923L5.48266 14.5782L8.32634 10.7258C8.58557 10.3747 8.99604 10.1675 9.43251 10.1675C9.86898 10.1675 10.2794 10.3747 10.5387 10.7258L13.3825 14.5782L17.925 16.0923C18.339 16.2303 18.663 16.5567 18.7978 16.9718C18.9327 17.3868 18.8626 17.8413 18.6086 18.1963L15.8237 22.0913L15.7874 26.8794C15.7842 27.3159 15.5738 27.7247 15.2207 27.9814C14.8675 28.2378 14.4137 28.3115 13.9976 28.1798L9.43263 26.7347C9.30914 26.7491 4.40674 28.3909 4.45286 28.2438ZM9.43263 23.9175C9.5705 23.8299 12.8266 24.9483 13.0519 24.9959L13.0774 21.635C13.0795 21.3518 13.169 21.0762 13.3339 20.8459L15.2887 18.1118L12.1002 17.049C11.8315 16.9594 11.5971 16.789 11.4287 16.5613L9.43263 13.8572L7.43652 16.5613C7.26829 16.7891 7.0338 16.9595 6.76507 17.049L3.57655 18.1118L5.53141 20.8459C5.69615 21.0762 5.78576 21.3518 5.78789 21.635L5.81351 24.9959C6.05 24.9452 9.28527 23.8324 9.43263 23.9175Z" fill="#17498A"/>
</g>
<defs>
<clipPath id="clip0_2926_17190">
<rect width="64" height="64" fill="white"/>
</clipPath>
</defs>
</svg>
