<svg width="54" height="53" viewBox="0 0 54 53" fill="none" xmlns="http://www.w3.org/2000/svg">
<path d="M51.3961 23.1681L51.8064 22.4145C52.8343 20.5267 52.1057 18.1702 50.1823 17.1613C48.2588 16.1526 45.8577 16.8676 44.8298 18.7554L40.9335 25.9114V8.54004C40.9335 6.39954 39.1593 4.6582 36.9784 4.6582H29.9979C28.0511 1.84879 24.7678 0 21.0527 0C17.3377 0 14.0544 1.84879 12.1076 4.6582H5.12695C2.94607 4.6582 1.17188 6.39954 1.17188 8.54004V16.3037C1.17188 16.7325 1.52604 17.0801 1.96289 17.0801C2.39974 17.0801 2.75391 16.7325 2.75391 16.3037V8.54004C2.75391 7.25572 3.8184 6.21094 5.12695 6.21094H11.2158C10.5908 7.55188 10.2422 9.04188 10.2422 10.6104C10.2422 16.461 15.0917 21.2207 21.0527 21.2207C27.0137 21.2207 31.8633 16.461 31.8633 10.6104C31.8633 9.04188 31.5147 7.55188 30.8897 6.21094H36.9785C38.2871 6.21094 39.3516 7.25572 39.3516 8.54004V28.8171L35.5342 35.828H35.5343C35.4774 35.9327 35.4446 36.0504 35.4412 36.1728L35.3064 41.0447C35.2873 41.735 35.6609 42.366 36.2816 42.6915C36.8946 43.013 37.6515 42.9662 38.2184 42.5719L39.3516 41.7841V49.1182C39.3516 50.4025 38.2871 51.4473 36.9785 51.4473H31.7051C31.2682 51.4473 30.9141 51.7949 30.9141 52.2236C30.9141 52.6524 31.2682 53 31.7051 53H36.9785C39.1594 53 40.9336 51.2587 40.9336 49.1182V40.6841L42.2703 39.7548C42.3722 39.684 42.4536 39.5918 42.5106 39.4872H42.5107L45.7808 33.4811C45.9578 33.6716 46.1701 33.8362 46.4146 33.9644C47.5551 34.5626 49.0173 34.1258 49.626 33.0079L52.3601 27.9866C53.2603 26.3333 52.8132 24.3204 51.3961 23.1681ZM21.0527 19.668C15.9641 19.668 11.8242 15.6048 11.8242 10.6104C11.8242 5.61593 15.9641 1.55273 21.0527 1.55273C26.1414 1.55273 30.2812 5.61593 30.2812 10.6104C30.2812 15.6048 26.1413 19.668 21.0527 19.668ZM46.2252 19.4873C46.8344 18.3684 48.2946 17.9319 49.4366 18.5308C50.5765 19.1288 51.0214 20.5619 50.411 21.6828L50.0382 22.3676L45.8523 20.1721L46.2252 19.4873ZM45.1067 21.5415L49.2925 23.737L48.5469 25.1065L44.361 22.911L45.1067 21.5415ZM37.3039 41.3051C37.1282 41.4273 36.882 41.2976 36.8878 41.0869L36.9879 37.4707L40.3114 39.2138L37.3039 41.3051ZM41.4881 38.0706L37.3023 35.8751L43.6155 24.2804L47.8013 26.4759L41.4881 38.0706ZM50.9647 27.2548L48.2307 32.2762C48.025 32.6537 47.5448 32.7965 47.1603 32.595C46.7759 32.3935 46.6302 31.9229 46.8348 31.5455L50.6245 24.5852C51.2964 25.3058 51.4332 26.3943 50.9647 27.2548Z" fill="#17498A"/>
<path d="M28.0137 51.4473H5.12695C3.8184 51.4473 2.75391 50.4025 2.75391 49.1182V19.9268C2.75391 19.498 2.39974 19.1504 1.96289 19.1504C1.52604 19.1504 1.17188 19.498 1.17188 19.9268V49.1182C1.17188 51.2587 2.94607 53 5.12695 53H28.0137C28.4505 53 28.8047 52.6524 28.8047 52.2236C28.8047 51.7949 28.4505 51.4473 28.0137 51.4473Z" fill="#17498A"/>
<path d="M31.7061 47.8242H20.5527C20.1159 47.8242 19.7617 47.4766 19.7617 47.0479C19.7617 46.6191 20.1159 46.2715 20.5527 46.2715H31.7061C32.1429 46.2715 32.4971 46.6191 32.4971 47.0479C32.4971 47.4766 32.1429 47.8242 31.7061 47.8242Z" fill="#17498A"/>
<path d="M31.7061 42.6484H20.5527C20.1159 42.6484 19.7617 42.3008 19.7617 41.8721C19.7617 41.4433 20.1159 41.0957 20.5527 41.0957H31.7061C32.1429 41.0957 32.4971 41.4433 32.4971 41.8721C32.4971 42.3008 32.1429 42.6484 31.7061 42.6484Z" fill="#17498A"/>
<path d="M31.7061 37.4727H20.5527C20.1159 37.4727 19.7617 37.1251 19.7617 36.6963C19.7617 36.2675 20.1159 35.9199 20.5527 35.9199H31.7061C32.1429 35.9199 32.4971 36.2675 32.4971 36.6963C32.4971 37.1251 32.1429 37.4727 31.7061 37.4727Z" fill="#17498A"/>
<path d="M31.7061 32.2969H20.5527C20.1159 32.2969 19.7617 31.9493 19.7617 31.5205C19.7617 31.0917 20.1159 30.7441 20.5527 30.7441H31.7061C32.1429 30.7441 32.4971 31.0917 32.4971 31.5205C32.4971 31.9493 32.1429 32.2969 31.7061 32.2969Z" fill="#17498A"/>
<path d="M12.451 47.8242C12.2549 47.8242 12.0586 47.7531 11.9056 47.61L9.85488 45.693C9.53847 45.3973 9.52634 44.9059 9.82756 44.5953C10.1289 44.2849 10.6297 44.2729 10.946 44.5685L12.4293 45.9551L15.1062 43.2482C15.4106 42.9404 15.9113 42.9333 16.2247 43.2318C16.5381 43.5305 16.5456 44.022 16.2413 44.3296L13.0186 47.5884C12.8637 47.7453 12.6575 47.8242 12.451 47.8242Z" fill="#17498A"/>
<path d="M12.451 41.6899C12.2549 41.6899 12.0586 41.6188 11.9056 41.4758L9.85488 39.5588C9.53847 39.263 9.52634 38.7716 9.82756 38.4611C10.1289 38.1506 10.6297 38.1386 10.946 38.4343L12.4293 39.8209L15.1062 37.1139C15.4106 36.8062 15.9113 36.799 16.2247 37.0976C16.5381 37.3962 16.5456 37.8877 16.2413 38.1953L13.0186 41.4541C12.8637 41.6111 12.6575 41.6899 12.451 41.6899Z" fill="#17498A"/>
<path d="M12.451 35.5557C12.2549 35.5557 12.0586 35.4845 11.9056 35.3415L9.85488 33.4245C9.53847 33.1287 9.52634 32.6373 9.82756 32.3268C10.1289 32.0163 10.6297 32.0043 10.946 32.3L12.4293 33.6866L15.1062 30.9796C15.4106 30.6719 15.9113 30.6647 16.2247 30.9633C16.5381 31.2619 16.5456 31.7534 16.2413 32.0611L13.0186 35.3198C12.8637 35.4768 12.6575 35.5557 12.451 35.5557Z" fill="#17498A"/>
<path d="M21.0527 9.83398C20.0351 9.83398 19.207 9.02128 19.207 8.02246C19.207 7.02364 20.035 6.21094 21.0527 6.21094C22.0705 6.21094 22.8984 7.02364 22.8984 8.02246C22.8984 8.45122 23.2525 8.79883 23.6895 8.79883C24.1264 8.79883 24.4805 8.45122 24.4805 8.02246C24.4805 6.43453 23.3537 5.10011 21.8438 4.74868V3.88184C21.8438 3.45307 21.4897 3.10547 21.0527 3.10547C20.6158 3.10547 20.2617 3.45307 20.2617 3.88184V4.74868C18.7517 5.10011 17.625 6.43453 17.625 8.02246C17.625 9.87746 19.1626 11.3867 21.0527 11.3867C22.0704 11.3867 22.8984 12.1994 22.8984 13.1982C22.8984 14.1971 22.0704 15.0098 21.0527 15.0098C20.0351 15.0098 19.207 14.1971 19.207 13.1982C19.207 12.7695 18.853 12.4219 18.416 12.4219C17.9791 12.4219 17.625 12.7695 17.625 13.1982C17.625 14.7862 18.7517 16.1206 20.2617 16.472V17.3389C20.2617 17.7676 20.6158 18.1152 21.0527 18.1152C21.4897 18.1152 21.8438 17.7676 21.8438 17.3389V16.472C23.3537 16.1206 24.4805 14.7862 24.4805 13.1982C24.4805 11.3432 22.9428 9.83398 21.0527 9.83398Z" fill="#17498A"/>
<path d="M14.1348 26.5742C13.6979 26.5742 13.3438 26.2266 13.3438 25.7979V24.5557C13.3438 24.1269 13.6979 23.7793 14.1348 23.7793C14.5716 23.7793 14.9258 24.1269 14.9258 24.5557V25.7979C14.9258 26.2266 14.5716 26.5742 14.1348 26.5742Z" fill="#17498A"/>
<path d="M21.0525 27.3822C20.1249 27.3822 19.2426 26.9878 18.6322 26.3004C18.3452 25.9771 18.3795 25.4867 18.7088 25.205C19.0382 24.9233 19.5379 24.957 19.8249 25.2802C20.1349 25.6294 20.5823 25.8296 21.0526 25.8296C21.5229 25.8296 21.9703 25.6294 22.2801 25.2803C22.5671 24.957 23.0667 24.9233 23.3962 25.2051C23.7256 25.4867 23.7598 25.9771 23.4729 26.3005C22.8623 26.9879 21.9802 27.3822 21.0525 27.3822Z" fill="#17498A"/>
<path d="M29.6813 26.5396C29.2445 26.5396 28.8903 26.192 28.8903 25.7632C28.8903 25.3976 28.5872 25.1001 28.2147 25.1001C27.8422 25.1001 27.5391 25.3976 27.5391 25.7632C27.5391 26.192 27.1849 26.5396 26.748 26.5396C26.3112 26.5396 25.957 26.192 25.957 25.7632C25.957 24.5414 26.9698 23.5474 28.2147 23.5474C29.4595 23.5474 30.4724 24.5414 30.4724 25.7632C30.4724 26.192 30.1182 26.5396 29.6813 26.5396Z" fill="#17498A"/>
</svg>
