<svg width="52" height="46" viewBox="0 0 52 46" fill="none" xmlns="http://www.w3.org/2000/svg">
<path d="M34.125 29.3492H38.1875C39.0332 29.3492 39.7188 30.0348 39.7188 30.8805C39.7188 31.7262 39.0332 32.4117 38.1875 32.4117H34.125C33.2793 32.4117 32.5938 31.7262 32.5938 30.8805C32.5938 30.0348 33.2793 29.3492 34.125 29.3492Z" fill="white" stroke="#17498A"/>
<path d="M47.4375 19.5123V19.8095V34.943C47.4375 35.7887 46.752 36.4742 45.9062 36.4742C45.0605 36.4742 44.375 35.7887 44.375 34.943V20.7138V20.2379L43.8997 20.2144C41.7794 20.1094 39.8832 19.1344 38.5625 17.6372L38.1875 17.2121L37.8125 17.6372C36.4132 19.2236 34.3679 20.2242 32.0938 20.2242C29.8196 20.2242 27.7743 19.2236 26.375 17.6372L26 17.2121L25.625 17.6372C24.2257 19.2236 22.1804 20.2242 19.9062 20.2242C17.6321 20.2242 15.5868 19.2236 14.1875 17.6371L13.8125 17.212L13.4375 17.6371C12.1168 19.1343 10.2205 20.1093 8.10028 20.2143L7.625 20.2378V20.7137V41.0367V41.5367H8.125H12.1875H12.6875V41.0367V30.8805C12.6875 27.7965 15.1973 25.2867 18.2812 25.2867H22.3438C25.4277 25.2867 27.9375 27.7965 27.9375 30.8805V41.0367V41.5367H28.4375H49.9688C50.8145 41.5367 51.5 42.2223 51.5 43.068C51.5 43.9137 50.8145 44.5992 49.9688 44.5992H2.03125C1.18553 44.5992 0.5 43.9137 0.5 43.068C0.5 42.2223 1.18553 41.5367 2.03125 41.5367H4.0625H4.5625V41.0367V19.8095V19.5123L4.30151 19.3703C3.62668 19.003 3.0116 18.5238 2.47924 17.9375L2.47923 17.9374C1.20876 16.5381 0.5 14.6454 0.5 12.5992C0.5 11.4859 0.734479 10.4142 1.19702 9.41067L1.19703 9.41063L3.07025 5.34569L3.07026 5.34567C4.31104 2.65276 7.03029 0.911743 9.99537 0.911743H42.0046C44.9697 0.911743 47.689 2.65276 48.9297 5.34567L49.3839 5.13643L48.9297 5.34569L50.803 9.41063L50.803 9.41067C51.2655 10.4142 51.5 11.4859 51.5 12.5992C51.5 14.6454 50.7912 16.5381 49.5208 17.9374C48.9884 18.5238 48.3733 19.0031 47.6985 19.3703L47.4375 19.5123ZM24.375 41.5367H24.875V41.0367V30.8805C24.875 29.4843 23.7399 28.3492 22.3438 28.3492H18.2812C16.8851 28.3492 15.75 29.4843 15.75 30.8805V41.0367V41.5367H16.25H24.375ZM5.8516 6.62734L6.30571 6.83659L5.8516 6.62734L3.97842 10.6925C3.97841 10.6925 3.9784 10.6926 3.97838 10.6926C3.70218 11.2917 3.5625 11.9342 3.5625 12.5992C3.5625 14.4815 4.33744 15.6482 5.27473 16.3277C6.18301 16.9863 7.2056 17.1617 7.71875 17.1617C10.235 17.1617 12.2812 15.1154 12.2812 12.5992C12.2812 11.7535 12.9668 11.068 13.8125 11.068C14.6582 11.068 15.3438 11.7535 15.3438 12.5992C15.3438 15.1154 17.39 17.1617 19.9062 17.1617C22.4225 17.1617 24.4688 15.1154 24.4688 12.5992C24.4688 11.7535 25.1543 11.068 26 11.068C26.8457 11.068 27.5312 11.7535 27.5312 12.5992C27.5312 15.1154 29.5775 17.1617 32.0938 17.1617C34.61 17.1617 36.6562 15.1154 36.6562 12.5992C36.6562 11.7535 37.3418 11.068 38.1875 11.068C39.0332 11.068 39.7188 11.7535 39.7188 12.5992C39.7188 15.1154 41.765 17.1617 44.2812 17.1617C44.7944 17.1617 45.817 16.9863 46.7253 16.3277C47.6626 15.6482 48.4375 14.4815 48.4375 12.5992C48.4375 11.9342 48.2978 11.2917 48.0217 10.6927L48.0218 10.6927L48.0193 10.6875L46.1484 6.62734C45.4055 5.01503 43.7799 3.97424 42.0046 3.97424H9.99537C8.22013 3.97424 6.59454 5.01503 5.8516 6.62734Z" fill="white" stroke="#17498A"/>
</svg>
