<svg width="56" height="56" viewBox="0 0 56 56" fill="none" xmlns="http://www.w3.org/2000/svg">
<g clip-path="url(#clip0_2926_17081)">
<mask id="path-1-inside-1_2926_17081" fill="white">
<path d="M55.5194 33.5118L52.2382 30.2306C51.9305 29.9229 51.5132 29.75 51.0781 29.75H45.5V18.0469C45.5 17.1408 44.7654 16.4062 43.8594 16.4062H38.9375V12.0283C40.2649 11.0296 41.125 9.44158 41.125 7.65625V4.92188C41.125 4.48678 40.9521 4.06952 40.6444 3.76184L37.3632 0.480594C37.0555 0.172922 36.6382 0 36.2031 0H19.7969C19.3618 0 18.9445 0.172922 18.6368 0.480594L15.3556 3.76184C15.0479 4.06952 14.875 4.48678 14.875 4.92188V7.65625C14.875 9.44158 15.7351 11.0295 17.0625 12.0283V16.4062H12.1406C11.2346 16.4062 10.5 17.1408 10.5 18.0469V29.75H4.92188C4.48678 29.75 4.06952 29.9229 3.76184 30.2306L0.480594 33.5118C0.172922 33.8195 0 34.2368 0 34.6719V37.4062C0 39.1916 0.860125 40.7795 2.1875 41.7783V54.3594C2.1875 55.2654 2.92206 56 3.82812 56H22.4219C23.3279 56 24.0625 55.2654 24.0625 54.3594V41.7783C25.3899 40.7796 26.25 39.1916 26.25 37.4062V34.6719C26.25 34.2368 26.0771 33.8195 25.7694 33.5118L22.4882 30.2306C22.1805 29.9229 21.7632 29.75 21.3281 29.75H13.7812V19.6875H17.0625V24.6094C17.0625 25.5154 17.7971 26.25 18.7031 26.25H37.2969C38.2029 26.25 38.9375 25.5154 38.9375 24.6094V19.6875H42.2188V29.75H34.6719C34.2368 29.75 33.8195 29.9229 33.5118 30.2306L30.2306 33.5118C29.9229 33.8195 29.75 34.2368 29.75 34.6719V37.4062C29.75 39.1916 30.6101 40.7795 31.9375 41.7783V54.3594C31.9375 55.2654 32.6721 56 33.5781 56H52.1719C53.0779 56 53.8125 55.2654 53.8125 54.3594V41.7783C55.1399 40.7796 56 39.1916 56 37.4062V34.6719C56 34.2368 55.8271 33.8195 55.5194 33.5118ZM14.7656 52.7188H11.4844V49.4375H14.7656V52.7188ZM20.7812 52.7188H18.0469V47.7969C18.0469 46.8908 17.3123 46.1562 16.4062 46.1562H9.84375C8.93769 46.1562 8.20312 46.8908 8.20312 47.7969V52.7188H5.46875V42.875C6.95767 42.875 8.30977 42.2767 9.29688 41.3081C10.284 42.2767 11.6361 42.875 13.125 42.875C14.6139 42.875 15.966 42.2767 16.9531 41.3081C17.9402 42.2767 19.2923 42.875 20.7812 42.875V52.7188ZM20.6486 33.0312L22.9688 35.3514V37.4062C22.9688 38.6124 21.9874 39.5938 20.7812 39.5938C19.5751 39.5938 18.5938 38.6124 18.5938 37.4062C18.5938 36.5002 17.8592 35.7656 16.9531 35.7656C16.0471 35.7656 15.3125 36.5002 15.3125 37.4062C15.3125 38.6124 14.3312 39.5938 13.125 39.5938C11.9188 39.5938 10.9375 38.6124 10.9375 37.4062C10.9375 36.5002 10.2029 35.7656 9.29688 35.7656C8.39081 35.7656 7.65625 36.5002 7.65625 37.4062C7.65625 38.6124 6.67494 39.5938 5.46875 39.5938C4.26256 39.5938 3.28125 38.6124 3.28125 37.4062V35.3514L5.60142 33.0312H20.6486ZM29.6406 22.9688H26.3594V19.6875H29.6406V22.9688ZM35.6562 22.9688H32.9219V18.0469C32.9219 17.1408 32.1873 16.4062 31.2812 16.4062H24.7188C23.8127 16.4062 23.0781 17.1408 23.0781 18.0469V22.9688H20.3438V13.125C21.8327 13.125 23.1848 12.5267 24.1719 11.5581C25.159 12.5267 26.5111 13.125 28 13.125C29.4889 13.125 30.841 12.5267 31.8281 11.5581C32.8152 12.5267 34.1673 13.125 35.6562 13.125V22.9688ZM37.8438 7.65625C37.8438 8.86244 36.8624 9.84375 35.6562 9.84375C34.4501 9.84375 33.4688 8.86244 33.4688 7.65625C33.4688 6.75019 32.7342 6.01562 31.8281 6.01562C30.9221 6.01562 30.1875 6.75019 30.1875 7.65625C30.1875 8.86244 29.2062 9.84375 28 9.84375C26.7938 9.84375 25.8125 8.86244 25.8125 7.65625C25.8125 6.75019 25.0779 6.01562 24.1719 6.01562C23.2658 6.01562 22.5312 6.75019 22.5312 7.65625C22.5312 8.86244 21.5499 9.84375 20.3438 9.84375C19.1376 9.84375 18.1562 8.86244 18.1562 7.65625V5.60142L20.4764 3.28125H35.5235L37.8438 5.60142V7.65625ZM44.5156 52.7188H41.2344V49.4375H44.5156V52.7188ZM50.5312 52.7188H47.7969V47.7969C47.7969 46.8908 47.0623 46.1562 46.1562 46.1562H39.5938C38.6877 46.1562 37.9531 46.8908 37.9531 47.7969V52.7188H35.2188V42.875C36.7077 42.875 38.0598 42.2767 39.0469 41.3081C40.034 42.2767 41.3861 42.875 42.875 42.875C44.3639 42.875 45.716 42.2767 46.7031 41.3081C47.6902 42.2767 49.0423 42.875 50.5312 42.875V52.7188ZM52.7188 37.4062C52.7188 38.6124 51.7374 39.5938 50.5312 39.5938C49.3251 39.5938 48.3438 38.6124 48.3438 37.4062C48.3438 36.5002 47.6092 35.7656 46.7031 35.7656C45.7971 35.7656 45.0625 36.5002 45.0625 37.4062C45.0625 38.6124 44.0812 39.5938 42.875 39.5938C41.6688 39.5938 40.6875 38.6124 40.6875 37.4062C40.6875 36.5002 39.9529 35.7656 39.0469 35.7656C38.1408 35.7656 37.4062 36.5002 37.4062 37.4062C37.4062 38.6124 36.4249 39.5938 35.2188 39.5938C34.0126 39.5938 33.0312 38.6124 33.0312 37.4062V35.3514L35.3514 33.0312H50.3985L52.7188 35.3514V37.4062Z"/>
</mask>
<path d="M55.5194 33.5118L52.2382 30.2306C51.9305 29.9229 51.5132 29.75 51.0781 29.75H45.5V18.0469C45.5 17.1408 44.7654 16.4062 43.8594 16.4062H38.9375V12.0283C40.2649 11.0296 41.125 9.44158 41.125 7.65625V4.92188C41.125 4.48678 40.9521 4.06952 40.6444 3.76184L37.3632 0.480594C37.0555 0.172922 36.6382 0 36.2031 0H19.7969C19.3618 0 18.9445 0.172922 18.6368 0.480594L15.3556 3.76184C15.0479 4.06952 14.875 4.48678 14.875 4.92188V7.65625C14.875 9.44158 15.7351 11.0295 17.0625 12.0283V16.4062H12.1406C11.2346 16.4062 10.5 17.1408 10.5 18.0469V29.75H4.92188C4.48678 29.75 4.06952 29.9229 3.76184 30.2306L0.480594 33.5118C0.172922 33.8195 0 34.2368 0 34.6719V37.4062C0 39.1916 0.860125 40.7795 2.1875 41.7783V54.3594C2.1875 55.2654 2.92206 56 3.82812 56H22.4219C23.3279 56 24.0625 55.2654 24.0625 54.3594V41.7783C25.3899 40.7796 26.25 39.1916 26.25 37.4062V34.6719C26.25 34.2368 26.0771 33.8195 25.7694 33.5118L22.4882 30.2306C22.1805 29.9229 21.7632 29.75 21.3281 29.75H13.7812V19.6875H17.0625V24.6094C17.0625 25.5154 17.7971 26.25 18.7031 26.25H37.2969C38.2029 26.25 38.9375 25.5154 38.9375 24.6094V19.6875H42.2188V29.75H34.6719C34.2368 29.75 33.8195 29.9229 33.5118 30.2306L30.2306 33.5118C29.9229 33.8195 29.75 34.2368 29.75 34.6719V37.4062C29.75 39.1916 30.6101 40.7795 31.9375 41.7783V54.3594C31.9375 55.2654 32.6721 56 33.5781 56H52.1719C53.0779 56 53.8125 55.2654 53.8125 54.3594V41.7783C55.1399 40.7796 56 39.1916 56 37.4062V34.6719C56 34.2368 55.8271 33.8195 55.5194 33.5118ZM14.7656 52.7188H11.4844V49.4375H14.7656V52.7188ZM20.7812 52.7188H18.0469V47.7969C18.0469 46.8908 17.3123 46.1562 16.4062 46.1562H9.84375C8.93769 46.1562 8.20312 46.8908 8.20312 47.7969V52.7188H5.46875V42.875C6.95767 42.875 8.30977 42.2767 9.29688 41.3081C10.284 42.2767 11.6361 42.875 13.125 42.875C14.6139 42.875 15.966 42.2767 16.9531 41.3081C17.9402 42.2767 19.2923 42.875 20.7812 42.875V52.7188ZM20.6486 33.0312L22.9688 35.3514V37.4062C22.9688 38.6124 21.9874 39.5938 20.7812 39.5938C19.5751 39.5938 18.5938 38.6124 18.5938 37.4062C18.5938 36.5002 17.8592 35.7656 16.9531 35.7656C16.0471 35.7656 15.3125 36.5002 15.3125 37.4062C15.3125 38.6124 14.3312 39.5938 13.125 39.5938C11.9188 39.5938 10.9375 38.6124 10.9375 37.4062C10.9375 36.5002 10.2029 35.7656 9.29688 35.7656C8.39081 35.7656 7.65625 36.5002 7.65625 37.4062C7.65625 38.6124 6.67494 39.5938 5.46875 39.5938C4.26256 39.5938 3.28125 38.6124 3.28125 37.4062V35.3514L5.60142 33.0312H20.6486ZM29.6406 22.9688H26.3594V19.6875H29.6406V22.9688ZM35.6562 22.9688H32.9219V18.0469C32.9219 17.1408 32.1873 16.4062 31.2812 16.4062H24.7188C23.8127 16.4062 23.0781 17.1408 23.0781 18.0469V22.9688H20.3438V13.125C21.8327 13.125 23.1848 12.5267 24.1719 11.5581C25.159 12.5267 26.5111 13.125 28 13.125C29.4889 13.125 30.841 12.5267 31.8281 11.5581C32.8152 12.5267 34.1673 13.125 35.6562 13.125V22.9688ZM37.8438 7.65625C37.8438 8.86244 36.8624 9.84375 35.6562 9.84375C34.4501 9.84375 33.4688 8.86244 33.4688 7.65625C33.4688 6.75019 32.7342 6.01562 31.8281 6.01562C30.9221 6.01562 30.1875 6.75019 30.1875 7.65625C30.1875 8.86244 29.2062 9.84375 28 9.84375C26.7938 9.84375 25.8125 8.86244 25.8125 7.65625C25.8125 6.75019 25.0779 6.01562 24.1719 6.01562C23.2658 6.01562 22.5312 6.75019 22.5312 7.65625C22.5312 8.86244 21.5499 9.84375 20.3438 9.84375C19.1376 9.84375 18.1562 8.86244 18.1562 7.65625V5.60142L20.4764 3.28125H35.5235L37.8438 5.60142V7.65625ZM44.5156 52.7188H41.2344V49.4375H44.5156V52.7188ZM50.5312 52.7188H47.7969V47.7969C47.7969 46.8908 47.0623 46.1562 46.1562 46.1562H39.5938C38.6877 46.1562 37.9531 46.8908 37.9531 47.7969V52.7188H35.2188V42.875C36.7077 42.875 38.0598 42.2767 39.0469 41.3081C40.034 42.2767 41.3861 42.875 42.875 42.875C44.3639 42.875 45.716 42.2767 46.7031 41.3081C47.6902 42.2767 49.0423 42.875 50.5312 42.875V52.7188ZM52.7188 37.4062C52.7188 38.6124 51.7374 39.5938 50.5312 39.5938C49.3251 39.5938 48.3438 38.6124 48.3438 37.4062C48.3438 36.5002 47.6092 35.7656 46.7031 35.7656C45.7971 35.7656 45.0625 36.5002 45.0625 37.4062C45.0625 38.6124 44.0812 39.5938 42.875 39.5938C41.6688 39.5938 40.6875 38.6124 40.6875 37.4062C40.6875 36.5002 39.9529 35.7656 39.0469 35.7656C38.1408 35.7656 37.4062 36.5002 37.4062 37.4062C37.4062 38.6124 36.4249 39.5938 35.2188 39.5938C34.0126 39.5938 33.0312 38.6124 33.0312 37.4062V35.3514L35.3514 33.0312H50.3985L52.7188 35.3514V37.4062Z" fill="white" stroke="#17498A" stroke-width="2" mask="url(#path-1-inside-1_2926_17081)"/>
</g>
<defs>
<clipPath id="clip0_2926_17081">
<rect width="56" height="56" fill="white"/>
</clipPath>
</defs>
</svg>
