<svg width="52" height="52" viewBox="0 0 52 52" fill="none" xmlns="http://www.w3.org/2000/svg">
<path d="M50.5709 30.9213L47.6412 27.9916C47.3665 27.7169 46.9939 27.5625 46.6055 27.5625H41.625V17.1133C41.625 16.3043 40.9691 15.6484 40.1602 15.6484H35.7656V11.7396C36.9508 10.8479 37.7188 9.42998 37.7188 7.83594V5.39453C37.7188 5.00605 37.5644 4.6335 37.2896 4.35879L34.36 1.4291C34.0853 1.15439 33.7127 1 33.3242 1H18.6758C18.2873 1 17.9147 1.15439 17.64 1.4291L14.7104 4.35879C14.4356 4.6335 14.2812 5.00605 14.2812 5.39453V7.83594C14.2812 9.42998 15.0492 10.8478 16.2344 11.7396V15.6484H11.8398C11.0309 15.6484 10.375 16.3043 10.375 17.1133V27.5625H5.39453C5.00605 27.5625 4.6335 27.7169 4.35879 27.9916L1.4291 30.9213C1.15439 31.196 1 31.5686 1 31.957V34.3984C1 35.9925 1.76797 37.4103 2.95312 38.302V49.5352C2.95312 50.3441 3.60898 51 4.41797 51H21.0195C21.8285 51 22.4844 50.3441 22.4844 49.5352V38.302C23.6695 37.4104 24.4375 35.9925 24.4375 34.3984V31.957C24.4375 31.5686 24.2831 31.196 24.0084 30.9213L21.0787 27.9916C20.804 27.7169 20.4314 27.5625 20.043 27.5625H13.3047V18.5781H16.2344V22.9727C16.2344 23.7816 16.8902 24.4375 17.6992 24.4375H34.3008C35.1098 24.4375 35.7656 23.7816 35.7656 22.9727V18.5781H38.6953V27.5625H31.957C31.5686 27.5625 31.196 27.7169 30.9213 27.9916L27.9916 30.9213C27.7169 31.196 27.5625 31.5686 27.5625 31.957V34.3984C27.5625 35.9925 28.3305 37.4103 29.5156 38.302V49.5352C29.5156 50.3441 30.1715 51 30.9805 51H47.582C48.391 51 49.0469 50.3441 49.0469 49.5352V38.302C50.232 37.4104 51 35.9925 51 34.3984V31.957C51 31.5686 50.8456 31.196 50.5709 30.9213ZM14.1836 48.0703H11.2539V45.1406H14.1836V48.0703ZM19.5547 48.0703H17.1133V43.6758C17.1133 42.8668 16.4574 42.2109 15.6484 42.2109H9.78906C8.98008 42.2109 8.32422 42.8668 8.32422 43.6758V48.0703H5.88281V39.2812C7.21221 39.2812 8.41943 38.7471 9.30078 37.8822C10.1821 38.7471 11.3894 39.2812 12.7188 39.2812C14.0481 39.2812 15.2554 38.7471 16.1367 37.8822C17.0181 38.7471 18.2253 39.2812 19.5547 39.2812V48.0703ZM19.4362 30.4922L21.5078 32.5638V34.3984C21.5078 35.4754 20.6316 36.3516 19.5547 36.3516C18.4777 36.3516 17.6016 35.4754 17.6016 34.3984C17.6016 33.5895 16.9457 32.9336 16.1367 32.9336C15.3277 32.9336 14.6719 33.5895 14.6719 34.3984C14.6719 35.4754 13.7957 36.3516 12.7188 36.3516C11.6418 36.3516 10.7656 35.4754 10.7656 34.3984C10.7656 33.5895 10.1098 32.9336 9.30078 32.9336C8.4918 32.9336 7.83594 33.5895 7.83594 34.3984C7.83594 35.4754 6.95977 36.3516 5.88281 36.3516C4.80586 36.3516 3.92969 35.4754 3.92969 34.3984V32.5638L6.00127 30.4922H19.4362ZM27.4648 21.5078H24.5352V18.5781H27.4648V21.5078ZM32.8359 21.5078H30.3945V17.1133C30.3945 16.3043 29.7387 15.6484 28.9297 15.6484H23.0703C22.2613 15.6484 21.6055 16.3043 21.6055 17.1133V21.5078H19.1641V12.7188C20.4935 12.7188 21.7007 12.1846 22.582 11.3197C23.4634 12.1846 24.6706 12.7188 26 12.7188C27.3294 12.7188 28.5366 12.1846 29.418 11.3197C30.2993 12.1846 31.5065 12.7188 32.8359 12.7188V21.5078ZM34.7891 7.83594C34.7891 8.91289 33.9129 9.78906 32.8359 9.78906C31.759 9.78906 30.8828 8.91289 30.8828 7.83594C30.8828 7.02695 30.227 6.37109 29.418 6.37109C28.609 6.37109 27.9531 7.02695 27.9531 7.83594C27.9531 8.91289 27.077 9.78906 26 9.78906C24.923 9.78906 24.0469 8.91289 24.0469 7.83594C24.0469 7.02695 23.391 6.37109 22.582 6.37109C21.773 6.37109 21.1172 7.02695 21.1172 7.83594C21.1172 8.91289 20.241 9.78906 19.1641 9.78906C18.0871 9.78906 17.2109 8.91289 17.2109 7.83594V6.00127L19.2825 3.92969H32.7174L34.7891 6.00127V7.83594ZM40.7461 48.0703H37.8164V45.1406H40.7461V48.0703ZM46.1172 48.0703H43.6758V43.6758C43.6758 42.8668 43.0199 42.2109 42.2109 42.2109H36.3516C35.5426 42.2109 34.8867 42.8668 34.8867 43.6758V48.0703H32.4453V39.2812C33.7747 39.2812 34.9819 38.7471 35.8633 37.8822C36.7446 38.7471 37.9519 39.2812 39.2812 39.2812C40.6106 39.2812 41.8179 38.7471 42.6992 37.8822C43.5806 38.7471 44.7878 39.2812 46.1172 39.2812V48.0703ZM48.0703 34.3984C48.0703 35.4754 47.1941 36.3516 46.1172 36.3516C45.0402 36.3516 44.1641 35.4754 44.1641 34.3984C44.1641 33.5895 43.5082 32.9336 42.6992 32.9336C41.8902 32.9336 41.2344 33.5895 41.2344 34.3984C41.2344 35.4754 40.3582 36.3516 39.2812 36.3516C38.2043 36.3516 37.3281 35.4754 37.3281 34.3984C37.3281 33.5895 36.6723 32.9336 35.8633 32.9336C35.0543 32.9336 34.3984 33.5895 34.3984 34.3984C34.3984 35.4754 33.5223 36.3516 32.4453 36.3516C31.3684 36.3516 30.4922 35.4754 30.4922 34.3984V32.5638L32.5638 30.4922H45.9986L48.0703 32.5638V34.3984Z" fill="#17498A" stroke="white" stroke-width="1.5"/>
</svg>
