<svg width="61" height="60" viewBox="0 0 61 60" fill="none" xmlns="http://www.w3.org/2000/svg">
<path d="M60.9841 32.6588L57.1712 9.80449C57.109 9.43137 56.8676 9.11075 56.5229 8.9434C56.1784 8.77618 55.7728 8.78262 55.4339 8.96063L45.9786 13.9324C45.4424 14.2144 45.2081 14.8481 45.4348 15.4031L46.0494 16.907C44.3037 17.6537 42.308 17.7152 40.5141 17.0665C37.235 15.8805 33.6218 16.0695 30.5001 17.57C27.3785 16.0697 23.7652 15.8808 20.486 17.0665C18.6922 17.7151 16.6965 17.6536 14.9506 16.9068L15.5653 15.403C15.792 14.8481 15.5578 14.2142 15.0215 13.9323L5.56621 8.96075C5.22738 8.7825 4.8217 8.77618 4.47715 8.94352C4.13248 9.11086 3.8911 9.43149 3.82891 9.80461L0.0158278 32.6588C-0.0772207 33.2165 0.247675 33.7599 0.788213 33.9511L5.9944 35.7934C6.12748 35.8404 6.26354 35.8628 6.39757 35.8628C6.8708 35.8628 7.31674 35.5837 7.50307 35.1279L8.10687 33.6505L10.8732 35.8055C10.9425 36.7054 11.3251 37.586 12.0232 38.2727C12.7894 39.0264 13.793 39.4066 14.7992 39.4154C14.808 40.4052 15.1949 41.3923 15.961 42.1459C16.7271 42.8995 17.7307 43.2798 18.7369 43.2886C18.7457 44.2783 19.1326 45.2655 19.8988 46.0192C20.6739 46.7815 21.6919 47.1627 22.71 47.1627C22.9343 47.1627 23.1584 47.1431 23.3802 47.1061C23.5079 47.8907 23.8777 48.6444 24.4914 49.2481C25.2665 50.0105 26.2846 50.3916 27.3027 50.3916C28.0639 50.3916 28.8251 50.1785 29.4848 49.7523L29.7716 50.0343C30.5467 50.7968 31.5647 51.1778 32.5829 51.1778C33.601 51.1778 34.6191 50.7968 35.3943 50.0343C35.8784 49.5582 36.2113 48.9887 36.393 48.3841C36.87 48.5789 37.386 48.6811 37.918 48.6811C38.98 48.6811 39.9784 48.2742 40.7294 47.5357C41.3538 46.9214 41.7262 46.1519 41.8476 45.3525C42.0501 45.3832 42.2545 45.3994 42.4589 45.3994C43.4771 45.3994 44.4951 45.0183 45.2703 44.2558C46.0129 43.5255 46.4247 42.5567 46.4339 41.5254C47.4396 41.516 48.4424 41.1357 49.2081 40.3828C50.3861 39.2239 50.6679 37.5134 50.0554 36.0894L53.2141 34.436L53.497 35.1281C53.6833 35.584 54.1293 35.863 54.6025 35.863C54.7364 35.863 54.8727 35.8408 55.0057 35.7936L60.2119 33.9514C60.7523 33.76 61.0772 33.2165 60.9841 32.6588ZM5.72062 33.2057L2.52778 32.0759L5.91064 11.7995L12.9559 15.5039L5.72062 33.2057ZM15.9607 36.6157C15.3396 37.2263 14.3293 37.2261 13.7084 36.6154C13.0873 36.0045 13.0873 35.0105 13.7084 34.3996L15.0081 33.1213C15.3089 32.8254 15.709 32.6624 16.1344 32.6624C16.5599 32.6624 16.9599 32.8254 17.2608 33.1213C17.8818 33.7322 17.8818 34.7262 17.2608 35.3371L15.9611 36.6155C15.9609 36.6155 15.9608 36.6156 15.9607 36.6157ZM19.8988 40.4885C19.2777 41.0996 18.267 41.0996 17.6459 40.4885C17.0251 39.8778 17.025 38.8845 17.6452 38.2736C17.6455 38.2733 17.6458 38.2731 17.6461 38.2727L20.5662 35.4005C20.867 35.1046 21.2671 34.9415 21.6925 34.9415C22.118 34.9415 22.5181 35.1046 22.8189 35.4005C23.44 36.0114 23.44 37.0054 22.8189 37.6163L19.8988 40.4885ZM23.8366 44.3618C23.2156 44.9726 22.2048 44.9729 21.5838 44.3618C20.9626 43.7509 20.9626 42.7568 21.5838 42.1459L24.5039 39.2736C24.8144 38.9682 25.2223 38.8154 25.6302 38.8154C26.0382 38.8154 26.4461 38.9682 26.7567 39.2736C27.0577 39.5695 27.2234 39.963 27.2234 40.3815C27.2234 40.8 27.0577 41.1935 26.7568 41.4894L23.8366 44.3618ZM29.4581 46.5786L28.4291 47.5908C27.808 48.2018 26.7973 48.2015 26.1763 47.5908C25.5552 46.98 25.5552 45.9861 26.176 45.3751L27.2052 44.3628C27.5156 44.0574 27.9236 43.9046 28.3315 43.9046C28.7394 43.9046 29.1474 44.0574 29.458 44.3628C30.0792 44.9736 30.0792 45.9677 29.4581 46.5786ZM33.7093 48.3768C33.0883 48.9877 32.0776 48.9877 31.4564 48.3768L31.2259 48.1501C31.9236 47.422 32.3073 46.4755 32.3073 45.4706C32.3073 45.2116 32.2817 44.9566 32.232 44.7081L33.7091 46.1608C34.3305 46.7719 34.3305 47.7659 33.7093 48.3768ZM47.5231 38.7252C46.902 39.3361 45.8913 39.3362 45.2703 38.7252L37.569 31.1501C37.1037 30.6927 36.3494 30.6926 35.884 31.1501C35.4188 31.6077 35.4188 32.3498 35.884 32.8075L43.5854 40.3826C43.8862 40.6785 44.0519 41.072 44.0519 41.4905C44.0519 41.9089 43.8862 42.3024 43.5853 42.5983C42.9642 43.2091 41.9535 43.2094 41.3324 42.5983L35.7586 37.1159C35.2933 36.6584 34.539 36.6584 34.0736 37.1159C33.6083 37.5735 33.6083 38.3155 34.0736 38.7732L39.0444 43.6625C39.3453 43.9584 39.511 44.3519 39.511 44.7704C39.511 45.1889 39.3453 45.5824 39.0444 45.8783C38.7435 46.1742 38.3435 46.3373 37.918 46.3373C37.4926 46.3373 37.0925 46.1742 36.7917 45.8783L33.2107 42.356C32.7454 41.8985 31.991 41.8985 31.5257 42.356C31.3921 42.4874 31.2982 42.6424 31.2414 42.8073C31.209 42.7731 31.1767 42.7389 31.1429 42.7056C30.645 42.216 30.0381 41.8731 29.3763 41.6971C29.5271 41.2805 29.6058 40.837 29.6058 40.3816C29.6058 39.3372 29.1923 38.355 28.4414 37.6164C27.6753 36.8627 26.6716 36.4824 25.6654 36.4736C25.6565 35.4838 25.2697 34.4967 24.5037 33.7432C23.7527 33.0046 22.7543 32.5978 21.6923 32.5978C21.0631 32.5978 20.4568 32.7417 19.9106 33.0116C19.7229 32.4455 19.402 31.9132 18.9454 31.4641C18.1945 30.7254 17.1961 30.3188 16.1341 30.3188C15.072 30.3188 14.0737 30.7255 13.3228 31.4641L12.0231 32.7423C11.8372 32.9254 11.674 33.1224 11.5326 33.3297L9.03366 31.383L14.0619 19.0809C16.3522 20.042 18.9608 20.1152 21.308 19.2664C23.4021 18.5093 25.6635 18.4416 27.7675 19.0378L24.7371 20.6866C23.6354 21.2859 22.8384 22.321 22.5505 23.5265C22.2625 24.732 22.5075 26.0079 23.2224 27.0271C24.3788 28.6756 26.5218 29.3461 28.4343 28.6582L34.9655 26.3078C35.9378 25.9581 37.0388 26.1972 37.7707 26.9172L47.5227 36.5093C48.1442 37.1202 48.1442 38.1143 47.5231 38.7252ZM48.5615 34.2161L39.456 25.2599C38.0707 23.8972 35.9867 23.4451 34.147 24.1068L27.616 26.4571C26.7236 26.7783 25.7237 26.4652 25.1839 25.696C24.8454 25.2135 24.7341 24.6335 24.8704 24.0626C25.0068 23.4919 25.3691 23.0212 25.8906 22.7374L31.0765 19.9156C33.7181 18.4783 36.8581 18.2416 39.6916 19.2664C42.0387 20.1152 44.6475 20.0418 46.9377 19.0809L52.3198 32.2487L48.5615 34.2161ZM55.2793 33.2057L48.0441 15.5039L55.0893 11.7995L58.4722 32.0759L55.2793 33.2057Z" fill="#17498A"/>
</svg>
