<svg width="72" height="72" viewBox="0 0 72 72" fill="none" xmlns="http://www.w3.org/2000/svg">
<g clip-path="url(#clip0_2926_17246)">
<path d="M6.67626 46.5901C4.50095 48.182 4.01645 51.245 5.5996 53.4313C6.51971 54.7025 8.00727 55.4611 9.57832 55.4611C10.6171 55.4611 11.6114 55.1386 12.4546 54.5278C12.4661 54.5195 12.4776 54.5113 12.4892 54.5025L23.9568 45.6524C24.4704 45.2767 24.9 44.812 25.2345 44.2709L32.4422 33.5888L34.9608 35.3631C35.0525 35.4878 35.0679 35.6196 35.0679 35.6938C35.0679 35.78 35.047 35.947 34.9059 36.0882L27.6048 43.3887C26.6776 44.3159 26.1667 45.5486 26.1667 46.8604C26.1667 48.1716 26.6776 49.4043 27.6048 50.3315C28.5315 51.2588 29.7648 51.7691 31.076 51.7691C32.3872 51.7691 33.6199 51.2588 34.5471 50.3315L42.2113 42.6674C44.168 40.7107 45.2457 38.1047 45.2457 35.3307C45.2457 32.8126 44.3553 30.4351 42.7276 28.5537L50.6642 20.6171C51.0526 20.2288 51.3965 19.803 51.6947 19.3476C51.7425 19.3476 51.7909 19.3504 51.8387 19.3504C54.081 19.3504 56.3195 18.9439 58.4217 18.1364C61.3458 17.0136 63.9561 15.1398 65.9721 12.719L70.0245 7.85146C70.7776 6.94618 71.1336 5.80194 71.0264 4.62914C70.9193 3.45634 70.3618 2.3956 69.457 1.64249C67.5888 0.0868092 64.8032 0.341694 63.2481 2.20993L60.229 5.83655C60.179 4.32152 59.5786 2.82188 58.425 1.6683C56.0135 -0.743764 52.0892 -0.743764 49.6771 1.6683L48.6729 2.67246C47.5051 3.84087 46.8613 5.39435 46.8613 7.04615C46.8613 7.13899 46.864 7.23127 46.8684 7.32301C46.324 7.19667 45.7698 7.1291 45.2139 7.11921C45.1666 7.11427 45.1188 7.11207 45.0699 7.11207H38.3539C33.5166 7.11207 28.6458 8.19918 24.2677 10.2558C18.4218 13.0019 11.9212 14.4521 5.46117 14.4521C5.42491 14.4526 5.38811 14.4548 5.35185 14.4521C4.94645 14.4521 4.56028 14.6273 4.29331 14.9328C4.02524 15.2387 3.90329 15.6458 3.95822 16.049L4.44218 19.5888C5.53148 27.5572 10.4446 34.3699 17.627 37.9246L17.3825 38.302L6.67626 46.5901ZM22.8862 42.7234C22.8735 42.7416 22.8615 42.7602 22.8499 42.7789C22.7043 43.0184 22.5154 43.2233 22.2885 43.3881C22.277 43.3964 22.2654 43.4051 22.2539 43.4134L10.7896 52.2607C10.4325 52.5145 10.0145 52.6486 9.57832 52.6486C8.90651 52.6486 8.27039 52.3245 7.87763 51.7812C7.19977 50.8451 7.40961 49.5317 8.3462 48.8539C8.35828 48.8451 8.37037 48.8363 8.3819 48.8269L19.2942 40.3789C19.4194 40.2823 19.5271 40.1647 19.6133 40.0312L26.8995 28.7784C27.3939 29.7144 28.1042 30.5329 28.993 31.1586L30.1427 31.9688L22.8862 42.7234ZM40.2222 40.6783L32.5586 48.3424C32.1625 48.7379 31.6357 48.956 31.076 48.956C30.5162 48.956 29.9894 48.7379 29.5934 48.3424C29.1979 47.9464 28.9798 47.4196 28.9798 46.8598C28.9798 46.3001 29.1979 45.7733 29.5934 45.3778L36.8944 38.0767C37.5305 37.4406 37.8804 36.5941 37.8804 35.6932C37.8804 34.7923 37.5305 33.9458 36.8944 33.3103C36.8373 33.2531 36.7757 33.2015 36.7098 33.1548L30.6124 28.8591C29.65 28.1813 29.0402 27.12 28.9391 25.9472C28.8386 24.7744 29.2577 23.6247 30.0905 22.7924L31.5561 21.3263L39.7608 29.5309C39.7932 29.5634 39.8272 29.5936 39.8624 29.6221L40.2222 29.9825C41.6477 31.408 42.4332 33.3075 42.4332 35.3301C42.4332 37.3533 41.6482 39.2523 40.2222 40.6783ZM40.7605 26.5426L34.5471 20.3293C34.5147 20.2969 34.4807 20.2667 34.4455 20.2375L33.5446 19.3372L41.4642 11.4176C42.7985 10.0833 44.6942 9.64609 46.3976 10.1026C46.1362 10.1833 45.8796 10.2888 45.6319 10.4195C44.5904 10.9694 43.8257 11.8917 43.478 13.0173C43.1308 14.1423 43.2423 15.3354 43.7922 16.3769C44.3421 17.4179 45.2644 18.1831 46.3894 18.5303C47.0173 18.7242 47.6545 18.8818 48.2961 19.0071L40.7605 26.5426ZM61.3573 8.87704L65.4096 4.00896C65.9727 3.3322 66.9812 3.23991 67.6575 3.80351C67.9848 4.07598 68.1865 4.4605 68.2255 4.88513C68.2645 5.3092 68.1354 5.72339 67.8629 6.05133L63.81 10.9189C62.1016 12.9717 59.8895 14.5592 57.4132 15.5106C54.1744 16.7548 50.5544 16.8724 47.2194 15.8424C46.8124 15.7166 46.4784 15.4398 46.2795 15.0629C46.0801 14.6861 46.04 14.2543 46.1658 13.8467C46.2916 13.4397 46.5685 13.1057 46.9453 12.9063C47.1782 12.7833 47.432 12.7212 47.6885 12.7212C47.8468 12.7212 48.0061 12.7448 48.1615 12.7931C48.9212 13.0277 49.6903 13.1859 50.4599 13.2722C50.5835 13.3013 50.7109 13.3139 50.8389 13.3084C51.9299 13.3968 53.0186 13.3397 54.0777 13.1447C54.2117 13.1222 54.3441 13.0958 54.4754 13.0651C54.4831 13.0634 54.4908 13.0618 54.4979 13.0601C54.5259 13.0535 54.5534 13.0475 54.5809 13.0403C57.1781 12.4487 59.5709 11.0221 61.3573 8.87704ZM49.6738 7.0456C49.6738 6.14472 50.0248 5.29767 50.662 4.66045L51.6662 3.6563C52.3237 2.99876 53.1872 2.67026 54.0513 2.67026C54.9149 2.67026 55.7784 2.99876 56.4359 3.6563C57.0731 4.29351 57.4242 5.14056 57.4242 6.04145C57.4242 6.94233 57.0731 7.78938 56.4359 8.42605L55.4318 9.43075C54.9572 9.90537 54.3743 10.2058 53.7618 10.3382C53.7201 10.3465 53.6783 10.3553 53.6366 10.3635C52.6022 10.5459 51.5003 10.2448 50.695 9.46097C50.6845 9.44998 50.6747 9.43899 50.6637 9.42856C50.6494 9.41373 50.634 9.40054 50.6192 9.38626C50.01 8.75454 49.6738 7.92616 49.6738 7.0456ZM7.22888 19.2076L6.95971 17.2399C13.3335 17.0328 19.6979 15.5095 25.4636 12.8008C29.4703 10.9189 33.9275 9.92404 38.3539 9.92404H38.9802L30.5618 18.3424C30.5596 18.3446 30.558 18.3468 30.5558 18.349L28.102 20.8033C27.0291 21.8762 26.359 23.2583 26.1684 24.7326L19.1667 35.546C12.6639 32.4478 8.20557 26.3537 7.22888 19.2076Z" fill="#17498A"/>
<path d="M16.0785 54.915L5.2948 65.6987C4.74548 66.248 4.74548 67.1385 5.2948 67.6878C5.56946 67.9625 5.92927 68.0998 6.28907 68.0998C6.64888 68.0998 7.00923 67.9625 7.28334 67.6878L18.0671 56.9041C18.6164 56.3548 18.6164 55.4643 18.0671 54.915C17.5183 54.3662 16.6278 54.3662 16.0785 54.915Z" fill="#17498A"/>
<path d="M2.53181 69.0469C2.16157 69.0469 1.79902 69.1968 1.53754 69.4589C1.27551 69.7203 1.125 70.0834 1.125 70.4531C1.125 70.8228 1.27551 71.1859 1.53754 71.4474C1.79902 71.7089 2.16157 71.8594 2.53181 71.8594C2.9015 71.8594 3.26405 71.7089 3.52608 71.4474C3.78756 71.1859 3.93807 70.8228 3.93807 70.4531C3.93807 70.0834 3.78756 69.7203 3.52608 69.4589C3.26405 69.1974 2.9015 69.0469 2.53181 69.0469Z" fill="#17498A"/>
<path d="M27.975 54.915C27.4262 54.3662 26.5358 54.3662 25.9864 54.915L19.0018 61.8996C18.4525 62.4489 18.4525 63.3394 19.0018 63.8887C19.2765 64.1634 19.6363 64.3007 19.9961 64.3007C20.3559 64.3007 20.7157 64.1634 20.9904 63.8887L27.975 56.9041C28.5243 56.3548 28.5243 55.4643 27.975 54.915Z" fill="#17498A"/>
<path d="M69.3234 30.3901L56.6517 33.3026C56.1535 33.4169 55.7563 33.7932 55.6151 34.2848C55.4739 34.7765 55.6107 35.3054 55.9722 35.6675L56.9263 36.6211L24.0995 69.4485C23.5502 69.9978 23.5502 70.8883 24.0995 71.4376C24.3736 71.7117 24.734 71.8496 25.0938 71.8496C25.4536 71.8496 25.8139 71.7117 26.088 71.4376L59.9097 37.6159C60.459 37.0666 60.459 36.1761 59.9097 35.6268L59.7575 35.4746L67.765 33.6339L65.9248 41.6413L65.7726 41.4892C65.2233 40.9404 64.3328 40.9404 63.7835 41.4892L39.4667 65.8065C38.9174 66.3553 38.9174 67.2457 39.4667 67.795C40.0155 68.3443 40.906 68.3443 41.4553 67.795L64.7778 44.4725L65.732 45.4267C66.0934 45.7881 66.6224 45.9255 67.1146 45.7837C67.6062 45.6426 67.9825 45.246 68.0968 44.7472L71.0093 32.0754C71.118 31.6036 70.9758 31.1086 70.633 30.7659C70.2908 30.4236 69.7958 30.2814 69.3234 30.3901Z" fill="#17498A"/>
<path d="M36.8203 69.037C36.449 69.037 36.0875 69.1859 35.8244 69.4473C35.5629 69.7105 35.4141 70.0719 35.4141 70.4432C35.4141 70.8129 35.5629 71.1744 35.8244 71.4375C36.0875 71.699 36.4506 71.8495 36.8203 71.8495C37.19 71.8495 37.5515 71.699 37.8146 71.4375C38.0761 71.1744 38.2266 70.8129 38.2266 70.4432C38.2266 70.0719 38.0761 69.7105 37.8146 69.4473C37.5531 69.1859 37.19 69.037 36.8203 69.037Z" fill="#17498A"/>
</g>
<defs>
<clipPath id="clip0_2926_17246">
<rect width="72" height="72" fill="white"/>
</clipPath>
</defs>
</svg>
